<?xml version="1.0" encoding="UTF-8" standalone="no"?>
<svg width="413px" height="160px" viewBox="0 0 413 160" version="1.1" xmlns="http://www.w3.org/2000/svg" xmlns:xlink="http://www.w3.org/1999/xlink">
    <!-- Generator: Sketch 42 (36781) - http://www.bohemiancoding.com/sketch -->
    <title>Combined Shape</title>
    <desc>Created with Sketch.</desc>
    <defs></defs>
    <g id="Mobile" stroke="none" stroke-width="1" fill="none" fill-rule="evenodd">
        <g id="8.0_404" transform="translate(-476.000000, -521.000000)" fill="#FD4141">
            <path d="M558.910156,624.433594 L578.636719,624.433594 L578.636719,639.179688 L558.910156,639.179688 L558.910156,672.1875 L540.746094,672.1875 L540.746094,639.179688 L476,639.179688 L476,628.535156 L539.671875,530 L558.910156,530 L558.910156,624.433594 Z M496.507812,624.433594 L540.746094,624.433594 L540.746094,554.707031 L538.597656,558.613281 L496.507812,624.433594 Z M869.261719,624.433594 L888.988281,624.433594 L888.988281,639.179688 L869.261719,639.179688 L869.261719,672.1875 L851.097656,672.1875 L851.097656,639.179688 L786.351562,639.179688 L786.351562,628.535156 L850.023438,530 L869.261719,530 L869.261719,624.433594 Z M806.859375,624.433594 L848.949219,558.613281 L851.097656,554.707031 L851.097656,624.433594 L806.859375,624.433594 Z M704,635.641016 L684,681 L664,635.641016 L614.717968,641 L644,601 L614.717968,561 L664,566.358984 L684,521 L704,566.358984 L753.282032,561 L724,601 L753.282032,641 L704,635.641016 Z" id="Combined-Shape"></path>
        </g>
    </g>
</svg>