<svg viewBox="0 0 413 160" xmlns="http://www.w3.org/2000/svg"><path d="M82.91 103.434h19.727v14.746H82.91v33.007H64.746V118.18H0v-10.645L63.672 9H82.91v94.434zm-62.402 0h44.238V33.707l-2.148 3.906-42.09 65.82zm372.754 0h19.726v14.746h-19.726v33.007h-18.164V118.18h-64.746v-10.645L374.022 9h19.24v94.434zm-62.403 0l42.09-65.82 2.148-3.907v69.727h-44.24zM228 114.64L208 160l-20-45.36-49.282 5.36L168 80l-29.282-40L188 45.36 208 0l20 45.36L277.282 40 248 80l29.282 40L228 114.64z" fill="#FD4141" fill-rule="evenodd"/></svg>