<svg viewBox="0 0 85 100" xmlns="http://www.w3.org/2000/svg"><g fill="none" fill-rule="evenodd"><path d="M16.37 17.977l1.885.05-.027 1.017-1.19-.025c.024-.306-.34-.69-.485-.81-.06-.05-.14-.123-.217-.204l.033-.03zM30.196 14.54h-3.928v-1.564l-1.912.08v.962h-.393v-.963l-1.57.026v.313h-1.258l-.052-.65h-1.52v.468l.76.027v.91h-.837v-.39l-.943-.05v1.353l1.885.078.026 1.823.655-.025s.366 1.406.287 1.927l4.504-.156 2.908-1.9h1.44l-.052-2.267zM48.16 87.456h.994v-1.9h-.995M63.775 98.454c.225.015.42.017.528.017.288 0 1.414.027 1.69.105.274.078.85.34 1.27.313.418-.026.876-.26 1.1-.26.22 0 .614.038.863.416l.48.733-.01.022h-5.93v-1.303l.01-.043zM73.336 97.703l-.68-.794c-.157-.183-.302-.366-.353-.508-.025-.07-.025-.25-.018-.435l-1.464.02c-.126 0-.612-.167-.802-.25-.19-.085-.843-.17-.843-.17l-.013.01 1.648 2.478s.382.506.478 1.745h3.22c-.006-.194-.042-.402-.084-.522-.08-.22-1.088-1.575-1.088-1.575M81.885 97.453c-.05.095-.077.277-.077.277l-.118.012s-.523-.886-.694-1.16c-.17-.273-1.06-.52-1.06-.52l-.04.926h-.3s.013-.054.013-.118c0-.065.13-.17.13-.248 0-.078-.065-.142-.13-.195-.067-.052-.028-.182-.04-.274-.013-.09-.263-.142-.342-.273-.078-.13-.05-.455-.04-.508.015-.052.015-.572.04-.65.027-.078.093-.25.093-.366 0-.117.12-.376.158-.43.04-.05.222-.39.275-.56.052-.168.09-.494.09-.585 0-.09.328-.416.394-.467.066-.052.08-.144.09-.235.015-.09.25-.208.25-.208l.89.025.16.19.26-.75-.03-4.063h-1.003L80.81 89.1h-1.9v.46l-.95.023h-.01l.03 2.393s-.17.924-.254 1.155c-.083.232-.042.63-.042.63l.338 2.227-1.542-1.26-.803-1.596-.014-.014c-.124.106-.242.2-.27.212-.036.014-.143.072-.24.133l.02.03-.044 2.435-2.472.038c-.036.12-.058.296.09.49.21.274 1.845 2.45 1.924 2.578.078.13.132.287.132.418 0 .12-.022.338.034.352h.018c.078-.027.157-.13.287-.183.132-.05.236-.117.302-.183.066-.064.184-.18.287-.142.106.04.263.208.118.26-.143.053-.326.065-.405.117-.04.027-.137.078-.223.13h6.692v-2.344l-.03-.003zM58.736 85.36L58.7 83.41l1.858-.02-.027-2.002c1.335-.09 1.672-.902 1.752-1.41.008.646.188 1.83 1.406 1.83 1.133 0 1.882-.037 2.25-.06l-1.24 7.227-.003.007-5.89.072-.07-3.69z" fill="#CADBE7"/><path d="M62.3 79.566s-.022.167-.018.41c-.08.508-.417 1.32-1.75 1.41l-.05-3.816-.034-2.433c.134.196 1.012 1.47 1.208 1.74.21.293.55.63.55.63l.037-.002.058 2.06" fill="#CADBE7"/><path d="M66.323 79.502l-.385 2.243c-.368.024-1.117.06-2.25.06-1.218 0-1.398-1.183-1.406-1.83.038-.238.02-.41.02-.41l-.06-2.06.786-.02s.465.02.718.188c.222.147 2.005 1.42 2.467 1.75l.11.08M75.153 93.46l.02.03-.044 2.435-2.472.038c.012-.05.03-.093.037-.122.027-.103.367-.48.393-.532.027-.053.157-.117.327-.157.17-.038.17-.09.17-.09.08-.04.066-.196.08-.287.012-.09.393-.403.432-.43.04-.026.314-.168.418-.22.105-.053.407-.443.46-.522.022-.034.098-.088.178-.14M72.197 95.333s.132.053.118.17c-.006.06-.023.264-.03.464l-1.464.02c-.126 0-.612-.167-.802-.25-.19-.085-.843-.17-.843-.17l-.013.01c-.748-1.13-1.523-2.3-1.782-2.705-.503-.786-.61-1.505-.666-2.5l.393-.02c.008.12.04.37.063.464.026.103.223.703.314.742.093.04.393.117.498.18.105.067.38.118.46.17.077.053.652.34.718.365.066.027.197.105.197.105v.403l-1.06-.44-.13.297 1.217.535v.47l-.668-.067v.17l.692.286v.145l2.79 1.158zM78.17 84.5l-.274.525.055 4.558.03 2.394s-.17.923-.254 1.154c-.083.232-.042.63-.042.63l.338 2.227-1.542-1.26-.802-1.596-.015-.014.344-.296c.08-.065.38-.273.486-.35.103-.08.13-.34.143-.418.014-.08.29-.208.393-.3.104-.09-.17-.22-.276-.31-.104-.094-.08-.262-.08-.262v-3.855l-.01-.18c-.014-.21-.185-.704-.264-.926-.078-.223.21-.614.29-.692.078-.078.22-.17.81-.547.25-.158.358-.347.4-.53l.038.008.233.042zM78.212 79.166h.034c-.01.18-.025.32-.025.32s-.025.066 0 .158c.026.09.053.156.053.234 0 .078-.04.247-.04.286l.005.223c-.345-.312-.647-.59-.724-.665-.07-.072-.256-.286-.455-.524l.73-.02.422-.012z" fill="#CADBE7"/><path d="M71.44 88.184c.065-.05.05-.22.05-.22v-1.03s-.3.144-.393.132c-.09-.014-.235-.144-.326-.183-.09-.04-.876-.274-1.008-.274-.13 0-.17.273-.22.39-.055.117-.094.52-.107.703-.012.183-.09.39-.13.52-.04.132.157.183.157.183l.732-.012 1.06.117s.054-.13.054-.182c0-.05.064-.09.13-.144m2.004-.598c.09-.052.105-.273.105-.273s-.093-.574-.144-.73c-.052-.156-.5-.078-.5-.078s-.01.21-.01.287c0 .078-.014.117-.067.195-.052.08.29.052.29.052l-.015.3-.456.012v.39l-.145-.012s-.013-.366-.013-.47c0-.104-.158-.116-.275-.09-.118.025.025.272.05.403.028.13-.077.508-.116.586-.04.078-.327.117-.327.117v.61s.338-.05.338-.103c0-.053-.08-.13-.118-.21-.04-.077.106-.18.106-.18l.97-.04.012-.248s-.08-.13-.106-.22c-.025-.092.054-.144.093-.183.04-.04.236-.066.327-.117m-6.538 1.367c.37-1.316 1.14-3.2 1.485-4.014h.002l1.33-1.28.023-.483h.316s.086-2.08.086-2.394c0-.316-.148-1.303-.148-1.303l-.054-.11-.114-.237.02-.01 4.054-.042-.02.21 3.174-.092c.2.238.386.452.456.524.077.076.38.353.724.666.007.21.018.504.035.57.027.105.027.65.027.756 0 .103 0 .638-.105.833-.106.195-.42.508-.472.586-.052.078-.105.35-.105.547 0 .195.17.742-.052.964-.223.22-.655.48-.773.533-.118.053-.275.22-.327.312-.052.09-.38.546-.287.794l.09.247s.105.457.118.73l.012.274-.025 4.35s.013.207-.157.363-.982.77-1.048.847c-.066.078-.746.598-.798.65-.054.053-.184.26-.275.275-.093.01-.25 0-.302.05-.052.052-.366.52-.484.613 0 0-.13.09-.274.156-.144.063-.55.063-.93.024-.38-.04-1.15-.416-1.387-.572-.237-.156-.355-.3-.408-.404-.052-.104-.22-1.64-.22-1.64l.902-.392v-.286l-.97.222v-.365l1.323-.508v-.26l-1.296.442v-.352l1.297-.442v-.274l-1.44.47v-.262l1.465-.56v-.326l-1.453.483v-.262l1.44-.534v-.364l-1.152-.118-2.08-.012-.146.442 1.087.52v.64l-.38-.105h-1.206v.156l.616.34-.066.116-.68-.34-.08-.247s-.17.143-.17.235c0 .01 0 .026.003.044l-.393.02-.016-.286c-.01-.25.07-.653.206-1.133" fill="#CADBE7"/><path d="M81.838 84.264l.02 3.008h-1.004L80.81 89.1h-1.9v.46l-.95.023h-.01l-.054-4.558.275-.525-.232-.042-.037-.008c.06-.248-.007-.49-.007-.64 0-.26.014-.455.078-.6.067-.143.355-.43.512-.807.157-.376.08-.976.08-1.08 0-.062-.034-.412-.06-.698.4.36.8.717.95.84.24.2 1.677 1.866 2.386 2.8" fill="#CADBE7"/><path d="M82.044 83.056v.416l-.21.26.004.532c-.708-.933-2.146-2.598-2.386-2.798-.15-.124-.55-.48-.95-.84-.018-.192-.032-.353-.032-.384 0-.078.012-.34.012-.403 0-.067-.052-.328-.064-.445-.015-.117.052-.48.052-.48h.458v-.34l-.34-.247c.026-.156.287-.35.287-.35l2.07-1.2.903.234s.078.21.09.39c.015.184.027 1.903.027 1.98 0 .08-.066.248-.09.313-.027.066-.106.208-.106.26 0 .053-.028.378.038.456.066.08.17.17.145.223-.027.05-.118.104-.197.117-.078.012-.3.117-.353.144-.054.025-.145.117-.145.22 0 .105.066.573.145.664.078.092.182.25.13.3-.052.052-.302.3-.248.378.052.078.182.13.236.196.053.064.354.43.485.415.01 0 .023-.005.04-.01M58.805 89.052l5.89-.072c-.034.22-1.01 6.432-1.07 7.018h-.201l-.028-.01c.072-.283.016-.64.016-.64s0-.054-.08-.236c-.077-.182-.693-.195-.863-.13-.17.065-1.06.924-1.283 1.107-.224.18-.524.312-.695.324-.17.013-2.578-.04-2.578-.04l-.06.007-.006-.044-.027-1.406 1.1-.027-.05-1.875h-4.05c0-.03 0-.06.003-.09 0-.004 0-.008.002-.013.002-.025.005-.055.006-.088 0-.01 0-.018.003-.026.003-.037.006-.066.01-.09.015-.112.018-.436.015-.846v-.01c.005-.37.005-.684.005-.684h-.013c-.012-.75-.033-1.557-.033-1.917 0-.054.002-.108.006-.166l.033.003 3.95-.048zM60.558 83.387l-.027-2-.05-3.817h-.03l-1.92-.022v-.314l-.866.42.253-.924-3.63.022v.482l-.636-.02-.003.002c.11.2.177.337.196.396.063.188 2.237 5.86 2.237 5.86l-.564 1.953.918-.02 2.302-.044-.036-1.952 1.858-.02z" fill="#CADBE7"/><path d="M59.317 71.898c.02.418.046.79.08.883l.02 1.03 1.014.02.018 1.307.033 2.433h-.03l-1.92-.022v-.314l-.866.42.253-.924-3.63.022v.482l-.636-.02-.003.002c-.167-.307-.43-.766-.762-1.335-.16-.268-.332-.56-.52-.872-.846-1.408-.698-1.764-.698-1.764l-.017-3.128 4.806-.093 1.926-.036.022.547.866-.02v.02s.016.733.047 1.364" fill="#CADBE7"/><path d="M67.696 74.608c-.423-1.008-.255-1.49-.255-1.49l.276-1.345v-.017l-5.632.095-2.767.048c.02.418.046.79.08.883l.02 1.03 1.014.02.018 1.308c.134.195 1.012 1.468 1.208 1.74.21.292.55.628.55.628h.036l.786-.02s.465.02.718.187c.222.147 2.005 1.42 2.467 1.75l.005-.006.802-3.8 1.122-.023c-.195-.417-.355-.77-.446-.986" fill="#CADBE7"/><path d="M77.763 79.158l-3.88.133.02-.21-4.053.043-.02.01c-.346-.714-1.15-2.38-1.688-3.54l5.15-.102.65-.023c1.767 1.697 2.83 2.734 2.83 2.734s.627.577.99.958M69.998 79.48l-.054-.11-.01.005-3.61.127-.386 2.243-1.24 7.228-.003.007 2.21-.027c.368-1.316 1.14-3.2 1.484-4.014h.002l1.33-1.28.023-.483h.316s.085-2.08.085-2.394c0-.316-.147-1.303-.147-1.303" fill="#CADBE7"/><path d="M80.957 74.578l.184 1.745s-.04.104-.223.22c-.182.118-2.264 1.226-2.396 1.446-.13.22-.26.468-.26.78 0 .128-.006.272-.014.397h-.034l-.42.01v-.01l-7.72-7.426.03-.03 6.23-.083 1.056-.863.318.338.422-.274.018.006c-.002.002-.003.005-.003.007-.04.144-.027.69.118.73.143.04.354 0 .433.013.078.014 1.82.99 1.898 1.015.08.027.197.196.197.313l.17 1.538h-1.95v.13h1.95zM69.944 79.37l-.01.005-3.61.127-.11-.08.003-.005.804-3.8 1.122-.023c.537 1.16 1.342 2.825 1.688 3.54l.114.236" fill="#CADBE7"/><path d="M68.535 70.26l-.5-.482.146-1.008.212.02-.02-.923.253.042c.022-.17-.106-1.324-.106-1.324l.147-.59v-.01l5.076-.067.013-.01c.058.08.113.153.157.204.13.156.314.234.327.313.014.078.066.34.157.443.093.103.368.338.446.325.08-.012.197-.117.21-.012.012.103.05.533 0 .586-.053.05-.25.116-.197.22.052.104.327.43.47.585.146.156.46.43.55.444.092.01.146-.028.21.077.066.103.236.39.668.533.432.143.812.234.957.092.144-.144.144-.3.158-.34.012-.038.025-.038.103-.038.08 0 .133-.013.237.143.105.157.25.482.34.533.092.053.328.183.197.288-.128.1-.55.383-.598.526l-.017-.006-.424.274-.318-.338-1.055.863-6.23.082-.03.03-1.538-1.48zM65.784 54.434l.06 3.914-4.37.096-.11-5.717 3.242-.066 1.15-.022M54.857 89.1l3.948-.05-.07-3.69-2.3.046-.92.02-6.36.124V87.455h-.997l-.018.028.022.63v.02h.075l.027 1.198 1.912.026.052 1.433-.13.44 4.752-.05c-.012-.75-.033-1.556-.033-1.917 0-.054.002-.108.006-.166l.034.003z" fill="#CADBE7"/><path d="M64 64.17l-.025-1.558 1.938-.032 4.242-.072.023-.003c.024.242.082.792.082.875v.104s.052.325.157.352c.105.026.275.066.327-.027.053-.09.027-.338.118-.338.093 0 .236-.014.262-.078.027-.066.066-.078-.026-.117-.09-.04-.222-.093-.222-.21 0-.117-.027-.376.025-.442.055-.066.094-.195.25-.208.084-.006.186-.033.274-.047.076-.01.14-.01.172.02.066.066.003.157.003.157 0 .272.066.583.494.86.602.39.877.402.877.402s.327.104.09.143c-.234.04-.548.13-.588.208-.04.08-.09.17-.157.184 0 0-.196.065-.248.168-.052.105-.09.327-.066.43.028.105.146.313.094.313-.054 0-.263.04-.29-.052-.025-.09-.05-.156-.103-.273-.053-.118-.13-.247-.092-.364.04-.118.054-.3-.025-.274-.08.025-.353.117-.34.26.012.143-.028.22.04.3.064.078.168.156.13.207-.04.052-.053.09 0 .143.052.052.38.195.484.195.104 0 .432.013.524-.026.092-.04.224-.025.184-.17-.04-.143-.04-.207-.132-.285-.09-.078-.235-.287-.13-.34.105-.05.157-.143.287 0 .13.145.733.834.824.94.062.07.187.24.302.394l-.012.01-5.077.067-2.728.036.026 1.797-1.915-1.826-.023-.022L64 64.17zM68.532 70.252c1.782 1.71 3.77 3.637 5.39 5.195l-.63.044-5.15.104c-.195-.417-.355-.77-.446-.986-.423-1.008-.254-1.49-.254-1.49l.274-1.345v-.017l.318-.004-.085-1.028-.128-.085.083-.395M70.94 57.964c.027.078-.012.208-.025.26v.015l-.026-.003-5.045.11-.06-3.913 2.852-.025.008-.004c.086.24.18.555.24.667.08.143.21.404.275.494.066.092.118.195.224.26.103.067.248.157.248.235 0 .08.09.47.13.52.04.054.04.21.223.418.184.208.64.755.695.808.052.05.235.078.26.156M49.155 85.55v.005h-.993v-2.161h.86L49 81.727h1.964l-.158-5.774 2.066-.064.015-.01c.333.57.595 1.03.762 1.336.11.2.177.337.196.396.063.188 2.237 5.86 2.237 5.86l-.564 1.953-6.36.125z" fill="#CADBE7"/><path fill="#CADBE7" d="M65.845 58.348l.068 4.232-1.938.032L64 64.17l-1.88.022-.02-.903-.535-.016-.053-2.837-.04-1.993M71.95 60.06c.026.326-.328.234-.328.234s-.25-.052-.314.273c-.066.327-.118.522-.04.664.068.126.274.542.328.862 0 0 .05.052.118.103 0 0-.19.057-.302.074l-.052.003c-.09 0-.393.04-.47-.026-.08-.064-.25-.156-.225-.26.027-.104.067-.234.027-.273-.04-.04-.196-.066-.287-.066-.093 0-.29.027-.25.118.04.09.144.182.196.195.055.013.107.092.107.145v.05s-.027.08-.106.092c-.077.014-.18.092-.18.144 0 .012.002.054.008.115l-.023.003-4.242.072-.068-4.232 5.044-.11h.024c-.007.082.026.342.026.546v.22c0 .08 0 .17.118.418.118.247.275.417.354.417.078 0 .51-.106.537.22"/><path d="M61.473 58.444l-.11-5.717-.304.006-.58.012-.472.01.02 1.276.158-.038s-.02.84-.08 1.035c-.058.195-.058.703-.058.8 0 .093.07 4.246.077 4.64l.762-.017.595-.012h.03l-.04-1.994zM48.162 88.112v.02h-.632l-.025 1.25-1.153.027v.91l-1.204.027-.027-.886-5.576.08-.027-1.902 3.85-.13-.13-5.703 1.936-.027v1.902l1.964-.027.027-.26h.998v2.162h-.004v1.9l-.018.028M66.52 50.597l-.03.01-1.493.077-.393 1.928.002.05-3.242.065-.11-5.793 4.11.027.008.004c-.038.117-.107.305-.074.427.04.144.236.755.275.847.04.09.25.482.63.533l-.408.08s.066.17.093.35c.025.183 0 .248.078.326.08.08.197.26.197.365 0 .105-.015.326.078.38.092.05.25.116.25.18 0 .026.012.08.03.147M65.756 41.297c.157.065.29.247.21.364-.07.107-.364.318-.364.474l-.456.007c0-.046-.002-.085-.005-.113-.013-.132-.21-.352-.21-.352l.015-.27.418.022s.235-.196.393-.13M65.873 42.77c.015.116.015.428.015.428l-.197.013.08 1.77c-.46.115-.596-.06-.618-.247-.005-.05-.003-.097.002-.142.027-.22.027-.532 0-.637-.027-.105-.052-.144-.052-.195 0-.052-.014-.222-.053-.325-.036-.092-.07-.163-.078-.24-.002-.012-.002-.023-.002-.034 0-.093.08-.34.132-.483.04-.11.05-.368.044-.536l.456-.006c0 .018.003.033.01.05.08.155.25.468.26.585" fill="#CADBE7"/><path d="M60.238 43.106c.012-.06.018-.104.018-.13 0-.087-.04-.93-.08-1.692h.002l3.17-.104.6-.183.027-.014c.026.048.067.08.13.067.185-.04.263-.117.37-.066.102.052.3.052.102.404l.368.018-.014.27-.34-.015-.104.418c-.04.156-.105.403-.04.534.06.12.22.37.227.59 0 .02 0 .042-.003.06-.027.235-.21.547-.184.743.027.195.09.287.21.378.117.09.21.273.21.35 0 .08-.054.3.05.405.107.104.303.39.29.64-.014.245-.053.558.026.702.078.142.144.325.117.43-.004.015-.01.034-.018.054l-.01-.003-4.11-.026-.01-.353-.068-2.822-1.103-.05c.08-.23.14-.458.168-.602" fill="#CADBE7"/><path d="M61.253 46.934l-.01-.353-.07-2.822-1.102-.05c-.093.283-.216.57-.337.7-.262.287-.498.444-.576.626-.08.182-.34.885-.63.91-.093.01-.187.018-.275.03.1.25.278.47.572.59.045.02.09.036.14.053.188.07.397.136.606.208l-.013.037v.625l.294-.018.1 4.647.53.605v.023l.58-.012.304-.006-.11-5.793zM59.74 39.09c-.043-.1-.082-.188-.112-.254-.13-.286-.104-.495-.104-.495s-.015-1.178-.034-1.843c.06-.074.256-.308.322-.395.078-.105.523-.13.523-.13s.786.025.918.025c.13 0 .55-.103.68-.26.13-.156.707-.13.707-.13l1.178.104h.052v.106l.655.078v.833s.027.468-.21.495c-.234.025-.352.13-.352.273 0 .143-.027 3.268-.027 3.268s-.004.134.04.22l-.027.014-.603.183-3.17.104c-.034-.61-.067-1.168-.078-1.25-.02-.14-.21-.607-.36-.945M49.103 39.133c-.002.67-.002 1.273-.002 1.578h-.024l-2.855.027v-.26l-2.775.05h-.01l-.02-1.015 2.253-.012c.2 0 .893-.155 1.114-.198.223-.046.96-.157 1.45-.157.092 0 .41-.004.87-.012" fill="#CADBE7"/><path d="M49.827 35.712c-.075.016-.674.152-.7.494-.015.206-.02 1.68-.024 2.927-.46.008-.78.012-.872.012-.49 0-1.225.11-1.448.157-.22.043-.913.198-1.114.198l-2.253.012-.074-3.7c1.758-.026 3.85-.057 5.763-.09.245-.002.487-.006.724-.01M49.74 43.316l.005.625h-.04l-1.39.39-1.465-.025v.547l-1.545-.027v.547h-2.2l-.026.6s-.63.208-.996.312c-.367.103-2.462.782-2.462.782h-.007l-.123-5.418-.01-.814 1.606-.618-.025.495 1.282.027.027.208 1.073.052-.01-.47h.01l2.776-.05v.26l2.856-.026h.025v.21s-.024.65.106.833c.13.18.366.47.524.494l.01 1.07z" fill="#CADBE7"/><path d="M60.176 41.284c-.033-.61-.066-1.168-.077-1.25-.02-.14-.21-.607-.36-.945-.043-.1-.082-.188-.112-.254-.13-.286-.104-.495-.104-.495s-.015-1.178-.034-1.843c-.007-.208-.013-.366-.02-.422-.01-.094-.108-.32-.232-.572l-1.65.04-2.804.063c-.058.02-2.245.063-4.957.106-.075.016-.674.152-.7.494-.015.206-.02 1.68-.024 2.927-.002.67-.002 1.273-.002 1.578v.21s-.024.65.106.833c.13.18.367.47.524.494l.01 1.07 8.594-.173 1.904-.038c.012-.06.018-.104.018-.13 0-.087-.04-.93-.08-1.692M68.645 54.406l-.008.003-2.853.024-.03-1.796-1.148.023-.002-.047.393-1.93 1.492-.077.03-.01c.03.102.075.234.114.337.064.17.327.65.55.86.22.207.432.39.393.56-.04.167-.093.26.025.533.117.273.55.703.55.703l-.13.155s.444.26.55.482c.023.048.048.11.073.18M68.667 65.987l-2.728.036.026 1.797-1.915-1.826-.023-.022L64 64.17l-1.88.022-.02-.903-.535-.016-.206-.007.02.967-.146-.02-.01.822-.012 1.11h-.253v.86l-.424.02v.483h-.253v1.87h-.21v.483l-.74.062.022.588h-.085v.02s.016.734.047 1.365l2.767-.047 5.632-.094.318-.004-.085-1.028-.128-.085.083-.395v-.006l.63.02-.5-.482.146-1.008.212.02-.02-.923.253.042c.022-.17-.106-1.324-.106-1.324l.147-.59v-.01zM44.994 70.206c.018.008.032.01.043.013.114.01 3.354-.047 6.613-.104l.017 3.128s-.148.356.698 1.764c.188.312.36.604.52.873l-.015.01-2.066.063v-.008l-11.496.208-.11-4.927 3.832.023.02-2.375s1.594 1.202 1.944 1.33M59.95 52.117l-.1-4.648-.293.017v-.625l.013-.037c-.21-.072-.418-.138-.606-.208-.05-.017-.095-.034-.14-.053-.294-.12-.472-.34-.572-.59-.183.02-.34.048-.43.1-.13.08-.97.445-1.153.367-.184-.078-.734-.182-.89-.053-.16.132-1.1.913-1.258.913l.026.03s-.058.197-.097.295c-.038.097-.137.33-.117.43.01.053.05.328.11.612.05.235.113.475.184.6.157.272.845 1.072.924 1.19.08.116.197.488.197.702 0 .2-.017 1.507-.02 1.68l4.28-.085.473-.01v-.023l-.53-.605z" fill="#CADBE7"/><path d="M58.333 43.144l-8.594.172.005.625.048 5.32.006.673 1.33-.55c.454-.177 1.77-.216 2.32-.255.194-.014.572-.208.993-.46-.06-.285-.1-.56-.11-.613-.02-.1.08-.333.118-.43.04-.098.098-.294.098-.294l-.026-.03c.157 0 1.1-.78 1.257-.913.156-.13.706-.025.89.054.183.08 1.02-.287 1.15-.365.09-.053.25-.08.432-.102.088-.01.182-.02.276-.028.29-.026.55-.73.63-.91.077-.183.313-.34.575-.626.12-.133.244-.42.338-.702.08-.23.14-.458.168-.602l-1.905.038zM43.436 40.528l-.02-1.015-.075-3.702c-2.107.032-3.73.054-3.974.057.01.683.033 1.925.05 2.89l.337-.026v.758h-.288l.008.61.008.736 1.608-.618-.025.495 1.282.027.027.208 1.073.052-.01-.47z" fill="#CADBE7"/><path d="M49.793 49.26l-.048-5.32h-.04l-1.39.39-1.465-.025v.547l-1.545-.027v.547h-2.2l-.026.6s-.63.208-.996.312c-.367.103-2.462.782-2.462.782h-.007l.138 6.04-.017.002.01.383.012.62c1.668-.694 3.345-1.39 4.876-2.03 2.13-.886 3.986-1.658 5.165-2.147l-.007-.672zM43.34 35.81c-2.107.032-3.73.054-3.974.057l-.006-.495c0-.234-.104-1.588-.104-1.588l-.058-4.79c.142.015 1.012.103 1.42.103.117 0 1.078-.013 2.434-.03l3.955-.058v.97l-.943.028.027 2.786.838.026.052.938.996-.027v.418l1.1.547.025.964.003.063c-1.912.032-4.005.063-5.762.088M48.353 16.43l-6.66.14-1.65-1.484.024-.47-2.006.025c-.018-.68-.035-1.342-.035-1.402 0-.054.004-.243.015-.47h.038l2.907-.026v.547l.235-.027.025.417h.707v-.964h.865s.157.287.314.312c.158.027.735.34.92.417.18.078.706.26.888.13.183-.13.367-.65.76-.625.393.027.786.21.786.21l.023-.007c.07.317.12.53.134.578.08.262.42.758.55.94.13.182 1.126 1.38 1.152 1.64.003.027.007.07.01.12" fill="#CADBE7"/><path d="M52.462 12.56l.075 3.782-4.184.088-.01-.12c-.027-.26-1.022-1.458-1.152-1.64-.13-.182-.47-.678-.55-.94-.013-.047-.062-.26-.133-.577-.127-.578-.327-1.503-.52-2.41l.025-.005 3.457-.054-.028-1.953 2.945-.05.075 3.88zM57.82 32.403s.29.495.264.834l-.11.004c-.058-.02-.114-.03-.153-.03-.156 0-.495-.155-.627-.26-.13-.103-.524-.26-.707-.313-.182-.05-.497-.39-.524-.57-.025-.184-.078-.184-.262-.367-.182-.18-.078-.625-.078-.78 0-.092.05-.508.095-.91.093.006.528.05.69.26l.184.233 1.23 1.9z" fill="#CADBE7"/><path d="M55.717 30.01c-.044.402-.095.818-.095.91 0 .155-.104.6.078.78.184.183.237.183.263.366.026.18.34.52.523.57.184.055.576.21.707.314.132.105.47.26.628.26.04 0 .095.01.154.03.176.06.397.212.397.466 0 .338.185.6.342.833.094.14.34.582.526.963l-1.65.04c-.452-.524-1.217-1.085-1.61-1.407-.556-.45-.883-1.703-.933-2.205-.05-.5-.278-1.377-.38-1.552-.095-.166-.484-.647-.888-1.484l.745-.37.008-.01c.026.023.06.036.097.036.184 0 .366-.105.47 0 .107.103.682.39.682.728 0 .11-.017.303-.04.52l-.023.21" fill="#CADBE7"/><path d="M49.827 35.712c-.237.004-.48.008-.724.01l-.002-.063-.024-.965-1.1-.547v-.417l-.996.028-.052-.938-.837-.026-.026-2.786.943-.027v-.97l6.73-.096.04-.02c.404.837.793 1.318.89 1.484.1.175.328 1.052.378 1.553.05.503.377 1.756.932 2.206.394.322 1.16.883 1.612 1.406l-2.806.064c-.058.02-2.245.063-4.957.106M46.507 13.153l-.023.006s-.393-.183-.786-.21c-.393-.025-.577.495-.76.625-.182.13-.707-.052-.89-.13-.183-.078-.76-.39-.917-.417-.156-.025-.313-.312-.313-.312h-.865v.964h-.707l-.025-.418-.235.027v-.548l-2.907.027-.038-.003c.014-.344.043-.775.09-.962.03-.122-.038-.34-.15-.59l.02-.01.078-.468 1.885.052.025-1.043c.656-.286.918-.91.918-.91l.393.025.993-1.85v-.02l3.023-.03c.014.33.043.832.093 1.066.037.175.3 1.427.577 2.714.193.908.393 1.833.52 2.41" fill="#CADBE7"/><path d="M52.35 6.805l.036 1.875-2.944.05.027 1.954-3.458.053-.025.005c-.276-1.287-.54-2.54-.578-2.714-.05-.234-.08-.736-.094-1.066h.17l.237-5.73c.55-.016 2.91-.04 4.714-.057v.005l.053 1.042 1.466 4.556.393-.005v.032zM59.238 35.503c-.185-.38-.432-.823-.526-.964-.157-.235-.34-.496-.34-.834 0-.254-.222-.406-.398-.465l.11-.003c.026-.34-.263-.834-.263-.834l-1.23-1.9-.183-.234c-.162-.21-.597-.254-.69-.26l.024-.212.014.002s.26.025.496 0c.23-.027 5.75-.2 6.014-.21l.004.09c-.038.056-.066.106-.073.145-.027.156.09 1.355.157 1.55.065.195.26.364.458.442.196.078.392.222.446.313.052.092 1.073 2.162 1.073 2.162l.43.025.276-.625 1.532-.012.012.703-1.335.026.014.26 2.067-.026v.39h-2.12v.455h-.34v-.392h-1.01v.196h.734l-.025.248-.695.078v.09h-.052l-1.178-.104s-.577-.025-.707.13c-.13.158-.55.26-.68.26-.132 0-.918-.024-.918-.024s-.445.025-.523.13c-.066.087-.263.32-.322.395-.006-.208-.013-.366-.02-.422-.008-.094-.107-.32-.232-.572" fill="#CADBE7"/><path d="M56.29 6.727l-3.94.046-.394.005-1.466-4.556-.053-1.042v-.005l2.174-.022-.733-.937 2.346-.08c.005.01.008.02.01.028.08.195.257.527.257.683 0 .156-.06.35-.02.47.04.116.157.194.178.33.018.137.078.43.136.567.06.138.08.606.296.82.215.216.47.45.49.568.02.117.078.234.177.39.098.156.432.508.354.547-.078.038-.274.038-.274.096 0 .06 0 .92.097 1.153 0 0 .197.572.263.702.03.063.07.15.103.235" fill="#CADBE7"/><path d="M52.387 8.68l-.038-1.875v-.032l3.94-.046c.037.093.065.18.065.22 0 .08.027.834.027.94 0 .102.04.766.04.883 0 .117.05.366.182.522.132.156.498.61.537.664.04.052.12.142.092.208-.025.066-.196.677-.196.78 0 .106.053.458.132.575.078.116.34.336.393.44.048.095.135.146.19.23l-.007.005-.865.313-4.4.05h-.016l-.075-3.878zM70.81 98.055s-.806-1.21-1.648-2.478c-.748-1.13-1.523-2.3-1.782-2.705-.503-.786-.61-1.505-.666-2.5l-.016-.286c-.01-.25.07-.653.206-1.133l-2.21.027c-.034.22-1.01 6.432-1.07 7.018h-.015l-.55 2.057-.004.01.004.002c.535.144 1.15.144 1.23.144.078 0 1.924.067 2.042.13.118.066.59.262.695.262.103 0 .353.012.353.012.248.027.654-.156.916-.234.263-.078.498.026.813.234.313.21.848 1.03 1.032 1.147l.062.04h1.084c-.096-1.24-.478-1.745-.478-1.745" fill="#CADBE7"/><path d="M69.65 99.69c-.007-.01-.015-.023-.025-.035-.1-.153-.25-.386-.4-.61-.25-.378-.64-.417-.863-.417-.223 0-.682.234-1.1.26-.42.026-.996-.235-1.27-.313-.276-.078-1.4-.103-1.69-.103-.063 0-.157 0-.27-.005h-.05l-.208-.012-.008.042V99.8h5.93l.01-.023c-.01-.016-.023-.033-.035-.054-.005-.01-.013-.02-.02-.032M62.264 29.59c-.265.01-5.785.183-6.014.21-.236.025-.496 0-.496 0 .01-.22.025-.413.025-.522 0-.337-.576-.625-.682-.728-.105-.105-.287 0-.47 0-.04 0-.072-.012-.098-.036-.107-.086-.143-.314-.165-.46-.026-.182-.524-.78-.654-1.04s-.497-.21-.654-.21c-.157 0-.366-.234-.498-.416-.13-.182-.21-.494-.236-.626-.025-.13-.785-.493-.916-.546-.13-.052-.287-.547-.287-.755 0-.1-.125-.238-.267-.36l1.837-.03 7.488-.104.016.032c-.04.027-.068.057-.068.085v.065s0 .535.04.6c.04.064.13.35.156.494.027.144.013.222.066.34.052.116.183.337.21.44.026.106.34 1.24.353 1.395.014.156.13.26.146.156.012-.104-.027-.468-.093-.65-.065-.184-.236-.717-.248-.887-.013-.17-.13-.884-.13-1.028 0-.144-.067-.833.024-.872.092-.04.3-.066.34.04.04.102.013.168.013.258 0 .093-.013.43.014.6.025.17.21.482.22.586.016.103.04.196-.01.235-.053.04-.092.18-.053.286.04.105.248.677.248.755 0 .078.08.39.08.47 0 .077.077.26.104.377.025.117.025.247.065.3.04.052.276.364.407.533.13.17.3.352.458.417.157.066.3.09.38.013.078-.078.17-.208.184-.103.01.103-.067.298-.146.325-.078.026-.21.026-.287.065-.06.03-.28.227-.4.39l-.003-.09z" fill="#CADBE7"/><path d="M60.872 23.34c.052.105.184.34.157.39-.027.054-.052.197-.158.197-.105 0-.366.014-.483.014-.068 0-.143.026-.196.058l-.016-.032-7.488.104-.153-7.728 1.567-.033s.418 1.537.76 1.953l4.084-.104.03-.007c.138.61.392 1.225.454 1.386.066.168.053.13.066.168.012.04.903 1.433.955 1.537.053.103.093.182.053.196-.04.013-.117.04-.157-.038-.04-.08-.145-.196-.185-.144-.04.05-.09.234-.144.144-.05-.093-.196-.352-.196-.457 0-.104-.012-.3-.09-.35-.08-.053-.433-.145-.5-.223-.063-.078-.142-.18-.18-.235-.04-.05-.185-.078-.133.027.055.105.276.364.25.43-.026.065-.065.195-.013.286.053.092.132.326.21.39.08.066.13.093.13.17 0 .08.052.416.158.52.105.106.21.287.34.196.13-.09.197-.403.276-.403.08 0 .026-.014.092.13.066.144.144.586.21.715.065.132.25.64.3.743" fill="#CADBE7"/><path d="M60.885 15.855c.04.103.078.195-.025.273-.105.078-.55.274-.604.352-.05.078-.366.493-.562.493-.196 0-.562-.064-.602-.142-.02-.04-.06-.116-.07-.172-.007-.052.01-.086.083-.06.157.05.484.194.655.077.17-.117.366-.3.327-.43-.04-.13-.027-.195-.236-.21-.208-.012-.836.054-.93.106-.09.052-.18.052-.18.196 0 .045.007.17.024.337.036.37.107.957.196 1.394l.02.086-.032.006-4.085.102c-.34-.415-.76-1.953-.76-1.953l-1.566.032-.075-3.783h.017l4.398-.052.865-.313.008-.004c.008.01.015.02.02.032.05.103.183.494.183.69 0 .194.013.897.366 1.21.353.312 1.688 1.07 1.924 1.08.236.014.34-.025.405-.038.065-.012.144-.13.144-.027 0 .105 0 .366.027.483.026.117.026.13.065.235M53.777 28.894l.745-.37.008-.01c-.107-.086-.143-.314-.165-.46-.025-.182-.524-.78-.654-1.042-.13-.26-.497-.207-.654-.207-.157 0-.366-.235-.498-.418-.13-.18-.21-.493-.236-.625-.025-.13-.786-.493-.916-.546-.13-.052-.287-.547-.287-.755 0-.1-.125-.238-.267-.36-.15-.128-.322-.238-.39-.264-.13-.052-.235-.156-.444-.39-.07-.08-.152-.152-.237-.22l.025.844-1.618.03c1.86 1.442 4.11 3.195 4.11 3.195-.007-.004-2.254-1.755-4.11-3.195l-6.97.127-.023.01.782 1.916h.235v1.433h.498l.052.78.287.678v.022l3.955-.057 6.73-.096.04-.02z" fill="#CADBE7"/><path d="M49.783 23.225c-.17-.144-.358-.266-.498-.353-.21-.13-.236-.286-.236-.47 0-.18-.393-.44-.577-.624-.132-.13-.29-.914-.38-1.486-.034-.22-.057-.41-.065-.52-.027-.39.157-.806.236-.91.078-.104.184-.546.184-.807 0-.232-.063-1.225-.095-1.625l4.184-.088.153 7.728-1.834.027-.003.003c-.15-.128-.322-.238-.39-.264-.13-.052-.235-.156-.444-.39-.07-.08-.152-.152-.237-.22" fill="#CADBE7"/><path d="M49.783 23.225c-.17-.144-.358-.266-.498-.353-.21-.13-.236-.286-.236-.47 0-.18-.393-.44-.577-.624-.132-.13-.29-.914-.38-1.486l-.013.002-4.37.075-1.68.028.028 1.902-1.638.033.777 1.903.023-.01 6.97-.126 1.618-.03-.025-.845z" fill="#CADBE7"/><path d="M43.052 29.044v.022c-1.356.018-2.317.03-2.435.03-.407 0-1.277-.087-1.42-.1l-.08-6.638 1.304-.025.777 1.903.782 1.917h.235v1.433h.498l.052.78.287.678z" fill="#CADBE7"/><path d="M39.753 38.73l-.338.026-.05-2.89-.005-.494c0-.234-.104-1.588-.104-1.588l-.058-4.79-.02-.002s-3.928-.625-4.242-.65c-.315-.026-3.143 0-3.535 0-.392 0-1.047.025-1.31-.104-.038-.02-.143-.07-.295-.14-.883-.41-3.344-1.528-3.344-1.528h-.008l.088 3.777 5.97-.105.228 10.09.033 1.473 6.732-.157-.01-.814-.01-.737-.007-.61h.288v-.756z" fill="#CADBE7"/><path d="M39.118 22.358l.08 6.637-.02-.003s-3.928-.625-4.242-.65c-.315-.026-3.143 0-3.535 0-.392 0-1.047.025-1.31-.104-.038-.02-.143-.07-.295-.14l.008-.017c-.21-.182-.236-.65-.236-.65l-.052-4.87v-.01l2.828-.056 6.775-.136zM39.073 18.523l.045 3.835-6.775.136v-.013l-.105-3.852-1.937.052-.078-1.875h.025l-.052-2.24 3.902-.053-.026.288 1.31.078.157-.21.417-.004L38.1 16.21c.198.145.396.287.59.426l-.01.012-.42-.026.813 1.9zM37.503 7.034l-.578.005-1.886-1.173.105-1.848-1.048-.028-.13 1.2-.315-.158-.68-1.823-.734-.05v-.913l-.393-.025-.078.884-1.913-.025 1.232 1.954-1.58 1.028.01.013.574.366.918-.21.418-.78.367 1.484 1.623.078.052.625-.418.313.104.444.34.103-.05.573.6.183.367-.34.394.157.446-.364.314.728.968 2.657.078 1.407h.5l.05 1.153.9-.01c-.018-.68-.035-1.342-.035-1.403 0-.053.004-.242.015-.47.014-.344.043-.775.09-.962.03-.122-.038-.34-.15-.59l.02-.01.078-.468 1.885.052.025-1.043c.656-.286.918-.91.918-.91l.393.025.993-1.85v-.02l-4.79.042z" fill="#CADBE7"/><path d="M48.448 18.055c0-.232-.063-1.225-.095-1.625l-6.66.14-1.65-1.484.024-.47-2.006.025-.9.01-1.206.014L38.1 16.21c.198.145.396.287.59.426l-.01.012-.42-.026.813 1.9.045 3.836 1.302-.025 1.638-.033-.027-1.902 1.68-.03 4.37-.074.012-.002c-.033-.22-.056-.41-.064-.52-.027-.39.157-.806.236-.91.078-.104.184-.546.184-.807" fill="#CADBE7"/><path fill="#CADBE7" d="M37.11 13.497h-.5l-.078-1.406-.968-2.656-.314-.728-.446.364-.393-.156-.365.34-.602-.184.052-.573-.34-.103-.105-.444.418-.312-.052-.625-1.623-.08h-.576l-.027.367.996.598-.027 2.864-1.913.027v.063l-.052 3.686v.026l3.902-.054-.026.288 1.31.078.157-.21.417-.004 1.205-.014M32.343 22.48v.014l-2.828.056-3.17.063v.99H24.41v-.94l-3.404.056v-.028l-.038-1.89h-.504l-.04-3.82.03-.02.655-.028s.365 1.407.287 1.928l4.504-.156 2.908-1.9h1.414l.08 1.874 1.936-.052.105 3.853z"/><path d="M29.803 28.08l-.008.018c-.883-.41-3.344-1.528-3.344-1.528h-.008l-.07-2.968h-.026v-.99l3.17-.062v.01l.05 4.87s.028.468.237.65M26.503 5.897v.022l-.027 1.56h-.707v-.414l-2.41.078.053-3.882h.392l-.103-.937-.263-.18-.027-.81 2.96-.026-.054 4.584" fill="#CADBE7"/><path fill="#CADBE7" d="M31.19 7.3l.027-.366h.576l-.367-1.484-.418.78-.918.21-.575-.365-.008-.013-.02.013-1.23-.078-.052.34-.497-.028-.078-.39-1.127-.023v.022l-.027 1.56h-.707v-.414l-2.41.078-.345 3.23-.23 2.16h-1.18l.08-.625h.34l.027-.444h-1.205l.052-.65.367-.235.837.026-.027.39.498.027.115-.7.042-.264-2.152-.396v3.078h.503l.052.652h1.256v-.313l1.573-.025v.964h.392v-.965l1.913-.078v1.562h3.927l.05-3.687.002-.064 1.912-.028.026-2.864"/><path d="M20.968 20.802h-.504l-.04-3.82.03-.02-.027-1.825-1.885-.078v-1.354l.943.052v.39h.84v-.91l-.762-.027v-.468h1.017V9.664l-4.08-.75-.002.002c.113.106.198.214.185.284-.026.156-.183.652-.183.78 0 .022 0 .06.003.114.572.264 1.14.44 1.62.44v.002c-.355.01-.948.023-1.6.04.005.315-.006.662-.075.787-.13.234-.786 1.25-.864 1.43-.04.09-.104.187-.134.284-.03.098-.025.196.08.287 0 .002 0 .002.002.003.21.183.314.34.55.34.235 0 .837-.157.837.155 0 .313-.08 1.354-.158 1.51-.08.156-.262 1.015-.314 1.147-.052.128-.472.832-.393 1.066.047.142.163.294.28.42l.034-.03 1.885.052-.027 1.016-1.19-.025c0 .025-.006.05-.014.077-.105.312-.235.728-.21.833.027.104.682 2.422.785 2.526.06.058.193.19.317.338l.05-.025 3.04-.05v-.028l-.04-1.89z" fill="#CADBE7"/><path d="M15.45 13.077l-.04-.013-1.4.01-2.205.015.003-.177 1.336-.6-.36-1.432-.85-3.405-.907-.05-.025-.627-2.267-.525v-.4l-.78.05-.733-.553.102-.225.78.477 1.613.025-.025-.502c-.123-.084-.332-.198-.586-.325-.868-.407-1.867-.83-2.542-1.103l-.098 1.178-.906.025v-.928h-.302v.928l-1.538.05-.604-.65-.857.65-.782-.05v-.8h-.352v1.827H.042v.776h.655s-.352.652-.404 1.23h-.2l.1 7.64 1.512.05-.026 1.254 1.108.15V18.2l.83.25v-1.202l1.412.325.025 1.18s1.31.4 1.84.475c.53.075 2.47.05 2.47.05v-1.955c.553-.025 2.368.3 2.368.3l.067-4.21 2.16-.027 1.57-.022c-.105-.09-.11-.19-.08-.287M71.49 86.935v1.028s.014.17-.05.222c-.067.052-.132.09-.132.143 0 .052-.053.182-.053.182l-1.06-.117-.733.013s-.197-.052-.158-.182c.04-.13.118-.34.13-.52.014-.183.054-.587.106-.704.052-.117.092-.39.223-.39.13 0 .916.234 1.008.273.092.04.236.17.328.182.092.013.393-.13.393-.13M72.905 86.505s.445-.078.498.078c.052.156.144.73.144.73s-.014.22-.105.273c-.092.052-.288.078-.327.117-.04.04-.118.09-.092.182.026.09.105.222.105.222l-.013.247-.97.04s-.143.103-.104.18c.04.08.12.158.12.21 0 .052-.342.104-.342.104v-.612s.288-.04.328-.117c.04-.08.144-.457.117-.587-.026-.13-.17-.378-.052-.404.12-.027.276-.014.276.09s.013.47.013.47l.143.012v-.39l.458-.014.015-.3s-.34.027-.29-.05c.054-.08.067-.118.067-.196 0-.08.013-.287.013-.287M84.78 92.117c0 .04.118.13.184.156.065.027-.013.34-.027.443-.013.104-.117.09-.183.09-.065 0-.144.327-.183.405-.038.08.014.3-.038.378-.053.08-.13-.052-.184-.143-.052-.09-.144.052-.17.13-.026.08-.157.105-.25.118-.09.013-.064.09.014.17.08.077.105.116.053.207 0 0-.157.013-.21.013-.052 0 0 0-.105.026-.104.025-.143.416-.196.56-.052.142-.38.35-.51.39-.132.04-.485.17-.577.17-.09 0-.13-.157-.13-.157l-.053-.534s-.013-.08-.04-.222c-.025-.144-.143.09-.17.195-.025.104.04.78.04.78l-.262.053v1.29s.34.104.498.182c.157.078.04.273-.014.377-.052.105-.26.157-.34.21-.078.05-.118.324-.118.324l-.118.012s-.523-.885-.694-1.16c-.17-.272-1.06-.52-1.06-.52l-.04.925h-.3s.013-.052.013-.117.13-.17.13-.248c0-.078-.066-.143-.13-.195-.067-.052-.028-.182-.04-.273-.014-.092-.263-.144-.34-.274-.08-.13-.053-.455-.04-.508.013-.052.013-.572.04-.65.025-.08.09-.248.09-.365 0-.117.118-.378.158-.43.04-.052.222-.39.275-.56.052-.17.09-.495.09-.586 0-.09.33-.415.394-.468.066-.052.08-.143.092-.234.012-.09.248-.208.248-.208l.89.026.275.325h.353l-.013-.44.13-.014.027.377s.34-.04.406-.09c.066-.053.04-.248.026-.34-.013-.09-.013-.416-.013-.533v-.938c0-.09.065-.403.104-.52.04-.118.707-.665.838-.808.13-.143.42-.73.497-.95.078-.222.104.078.09.17 0 0-.182.56-.3.702-.118.143-.498.56-.537.6-.04.038-.065.077 0 .13.066.05.105.05.118.18.014.13-.038.3.053.38.092.077.21.155.21.272 0 .118-.053.26.065.326.118.065.275.104.275.17 0 .064-.013.494.08.546.09.052.352.052.392.065.04.013.13.065.157.195.026.13.078.417.078.417" fill="#CADBE7"/><path d="M55.727 52.84l4.28-.085.022 1.276.156-.038s-.02.84-.08 1.035c-.06.195-.06.703-.06.8 0 .093.072 4.246.078 4.64l-3.808.08-4.926.105c-.003-1.488.002-2.95.002-2.95l-.93.01v-.048l-.104-4.714 5.37-.11zM44.763 58.08l.085 4.45-4.902.095-.056-2.59.586.02.02-.357 1.373-.02.042-.4 2.154-1.092s.485-.316.675-.777h.01l.013.67z" fill="#FD4141"/><path d="M44.65 52.117l.1 5.292h-.01c-.19.46-.674.776-.674.776l-2.154 1.092-.043.4-1.374.02-.02.357-.587-.02-.133-5.926c1.67-.694 3.345-1.39 4.877-2.03l.016.037zM51.625 64.906l.025 5.21c-3.26.057-6.5.114-6.613.103-.01-.003-.025-.006-.043-.014l-.146-7.676 6.428-.127h.122c.008.717.02 1.253.036 1.348.065.338.19.883.19 1.156" fill="#FD4141"/><path d="M50.463 57.664v.047c-1.596.012-4.713.035-4.963.035-.338 0-.716.336-.716.336h-.02l-.013-.67-.1-5.293-.016-.037c2.13-.886 3.986-1.658 5.165-2.147l.008 1.09s0 .99.29 1.302l.287.312-.027.313.105 4.714z" fill="#FD4141"/><path d="M55.747 51.16c0 .2-.017 1.507-.02 1.68l-5.37.11.028-.313-.288-.312c-.29-.313-.29-1.302-.29-1.302l-.008-1.09 1.33-.55c.454-.177 1.77-.216 2.32-.255.193-.014.572-.208.993-.46.05.234.113.474.184.598.157.273.845 1.073.924 1.19.08.117.197.49.197.703M56.454 69.987l.002.036-4.806.093c-.01-2.3-.025-5.052-.025-5.21 0-.273-.126-.82-.19-1.154-.018-.096-.03-.632-.037-1.35-.004-.52-.008-1.138-.008-1.75l4.926-.105v.026l.138 9.414z" fill="#FD4141"/><path d="M61.565 63.273l-.053-2.835h-.03l-.595.012-.763.016-3.808.08v.027l.138 9.415.002.035c1.162-.02 1.926-.035 1.926-.035l.022.546.866-.02h.085l-.022-.59.74-.06v-.484h.21v-1.87h.253v-.483l.423-.02v-.862h.252l.012-1.11.01-.822.147.02-.02-.966.205.006zM44.848 62.53l.146 7.676c-.35-.13-1.943-1.33-1.943-1.33l-.02 2.373-3.832-.023-.105-4.703h.03l.908-.043-.084-3.855 4.902-.095z" fill="#FD4141"/><path fill="#FD4141" d="M39.946 62.625l.085 3.856-.907.043h-.03l-.02-.917-11.6.34-.077-3.076M51.39 60.652c0 .612.004 1.23.008 1.75h-.122l-6.428.128-.085-4.45h.02s.38-.335.717-.335c.25 0 3.367-.023 4.963-.034l.93-.007s-.006 1.46-.003 2.95M39.89 60.034l-.133-5.925-.012-.62-.01-.382-1.24.076v1.383l-1.066.51-.557.27.078 3.567-8.456.208-.025.01-1.155.485.08 3.253 12.55-.245"/></g></svg>