<svg viewBox="0 0 84 100" xmlns="http://www.w3.org/2000/svg"><g fill="none" fill-rule="evenodd"><path d="M16.177 17.977l1.863.05-.027 1.017-1.175-.025c.023-.306-.337-.69-.48-.81-.06-.05-.138-.123-.214-.204l.033-.03zM29.84 14.54h-3.88v-1.564l-1.89.08v.962h-.39v-.963l-1.55.026v.313h-1.243l-.052-.65h-1.5v.468l.75.027v.91h-.83v-.39l-.93-.05v1.353l1.863.078.026 1.823.647-.025s.363 1.406.285 1.927l4.45-.156 2.874-1.9h1.422l-.052-2.267zM47.593 87.456h.983v-1.9h-.983M63.024 98.454c.223.015.417.017.522.017.285 0 1.398.027 1.67.105.27.078.84.34 1.255.313.415-.026.868-.26 1.087-.26.22 0 .61.038.854.416.196.3.4.615.475.733l-.01.022h-5.86v-1.303l.01-.043zM72.474 97.703s-.517-.612-.673-.794c-.154-.183-.297-.366-.348-.508-.025-.07-.025-.25-.017-.435l-1.447.02c-.126 0-.606-.167-.794-.25-.187-.085-.833-.17-.833-.17l-.012.01c.832 1.267 1.63 2.478 1.63 2.478s.376.506.47 1.745h3.182c-.004-.194-.04-.402-.082-.522-.077-.22-1.074-1.575-1.074-1.575M80.922 97.453c-.05.095-.076.277-.076.277l-.117.012s-.518-.886-.687-1.16c-.168-.273-1.048-.52-1.048-.52l-.04.926h-.295s.012-.054.012-.118c0-.065.13-.17.13-.248 0-.078-.065-.142-.13-.195-.065-.052-.026-.182-.04-.274-.01-.09-.258-.142-.336-.273-.077-.13-.05-.455-.04-.508.016-.052.016-.572.04-.65.027-.078.092-.25.092-.366 0-.117.116-.376.155-.43.04-.05.22-.39.272-.56.05-.168.09-.494.09-.585 0-.09.323-.416.388-.467.065-.052.078-.144.09-.235.014-.09.247-.208.247-.208l.88.025.156.19.257-.75-.028-4.063h-.992L79.86 89.1h-1.88v.46l-.938.023h-.008l.03 2.393s-.168.924-.252 1.155c-.082.232-.042.63-.042.63l.334 2.227-1.523-1.26-.793-1.596-.014-.014c-.122.106-.24.2-.267.212-.036.014-.14.072-.237.133l.017.03-.042 2.435-2.442.038c-.036.12-.058.296.088.49.21.274 1.826 2.45 1.903 2.578.078.13.13.287.13.418 0 .12-.02.338.035.352h.017c.078-.027.156-.13.284-.183.13-.05.232-.117.297-.183.066-.064.182-.18.284-.142.106.04.26.208.118.26-.14.053-.323.065-.4.117-.04.027-.136.078-.22.13h6.612v-2.344l-.028-.003zM58.045 85.36l-.036-1.952 1.836-.02-.027-2.002c1.318-.09 1.65-.902 1.73-1.41.007.646.185 1.83 1.39 1.83 1.118 0 1.86-.037 2.222-.06l-1.227 7.227v.007l-5.822.072-.068-3.69z" fill="#CADBE7"/><path d="M61.568 79.566s-.022.167-.02.41c-.078.508-.41 1.32-1.73 1.41l-.048-3.816-.033-2.433c.132.196 1 1.47 1.194 1.74.21.293.543.63.543.63l.037-.002.058 2.06" fill="#CADBE7"/><path d="M65.543 79.502l-.38 2.243c-.364.024-1.105.06-2.224.06-1.205 0-1.383-1.183-1.39-1.83.036-.238.018-.41.018-.41l-.058-2.06.777-.02s.46.02.71.188c.218.147 1.98 1.42 2.437 1.75l.11.08M74.27 93.46l.017.03-.042 2.435-2.442.038c.012-.05.03-.093.037-.122.027-.103.362-.48.388-.532.027-.053.156-.117.323-.157.17-.038.17-.09.17-.09.078-.04.064-.196.078-.287.013-.09.388-.403.427-.43.04-.026.31-.168.413-.22.104-.053.402-.443.454-.522.023-.034.097-.088.177-.14M71.348 95.333s.13.053.116.17c-.006.06-.023.264-.03.464l-1.446.02c-.126 0-.606-.167-.794-.25-.187-.085-.833-.17-.833-.17l-.012.01c-.74-1.13-1.504-2.3-1.76-2.705-.497-.786-.605-1.505-.66-2.5l.39-.02c.007.12.04.37.06.464.028.103.222.703.312.742.092.04.388.117.492.18.104.067.376.118.454.17.077.053.645.34.71.365.066.027.195.105.195.105v.403l-1.047-.44-.13.297 1.204.535v.47l-.66-.067v.17l.685.286v.145l2.756 1.158zM77.25 84.5l-.27.525.054 4.558.03 2.394s-.168.923-.252 1.154c-.082.232-.042.63-.042.63l.334 2.227-1.523-1.26-.793-1.596-.014-.014.34-.296c.078-.065.376-.273.48-.35.102-.08.13-.34.14-.418.015-.08.287-.208.39-.3.104-.09-.168-.22-.272-.31-.102-.094-.077-.262-.077-.262v-3.855c-.003-.025-.006-.077-.012-.18-.012-.21-.18-.704-.26-.926-.076-.223.21-.614.287-.692.078-.078.22-.17.8-.547.248-.158.355-.347.397-.53l.037.008.23.042zM77.292 79.166h.034c-.01.18-.025.32-.025.32s-.025.066 0 .158c.026.09.052.156.052.234 0 .078-.038.247-.038.286 0 .014 0 .106.004.223-.342-.312-.64-.59-.716-.665-.07-.072-.253-.286-.45-.524l.724-.02.416-.012z" fill="#CADBE7"/><path d="M70.598 88.184c.065-.05.05-.22.05-.22v-1.03s-.295.144-.387.132c-.09-.014-.232-.144-.322-.183-.09-.04-.866-.274-.997-.274-.127 0-.166.273-.218.39-.052.117-.09.52-.104.703-.012.183-.09.39-.128.52-.04.132.155.183.155.183l.723-.012 1.048.117s.053-.13.053-.182c0-.05.063-.09.128-.144m1.98-.598c.09-.052.104-.273.104-.273s-.092-.574-.143-.73c-.052-.156-.493-.078-.493-.078s-.013.21-.013.287c0 .078-.012.117-.065.195-.052.08.285.052.285.052l-.014.3-.45.012v.39l-.144-.012s-.012-.366-.012-.47c0-.104-.156-.116-.272-.09-.116.025.025.272.05.403.028.13-.076.508-.115.586-.04.078-.323.117-.323.117v.61s.335-.05.335-.103c0-.053-.08-.13-.117-.21-.04-.077.104-.18.104-.18l.958-.04.012-.248s-.077-.13-.104-.22c-.025-.092.053-.144.092-.183.04-.04.233-.066.323-.117m-6.46 1.367c.364-1.316 1.126-3.2 1.466-4.014h.003l1.315-1.28.022-.483h.312s.084-2.08.084-2.394c0-.316-.146-1.303-.146-1.303s-.018-.04-.053-.11c-.026-.058-.065-.14-.112-.237l.02-.01 4.006-.042-.02.21 3.138-.092c.197.238.38.452.45.524.076.076.374.353.716.666.006.21.017.504.034.57.027.105.027.65.027.756 0 .103 0 .638-.105.833-.105.195-.415.508-.466.586-.052.078-.105.35-.105.547 0 .195.17.742-.05.964-.222.22-.65.48-.766.533-.117.053-.272.22-.323.312-.052.09-.376.546-.284.794l.09.247s.104.457.116.73l.01.274-.023 4.35s.012.207-.156.363-.97.77-1.034.847c-.066.078-.738.598-.79.65-.052.053-.18.26-.27.275-.093.01-.248 0-.3.05-.05.052-.36.52-.477.613 0 0-.132.09-.273.156-.143.063-.543.063-.92.024-.375-.04-1.137-.416-1.37-.572-.233-.156-.35-.3-.402-.404-.05-.104-.22-1.64-.22-1.64l.894-.392v-.286l-.96.222v-.365l1.308-.508v-.26l-1.28.442v-.352l1.28-.442v-.274l-1.424.47v-.262l1.45-.56v-.326l-1.437.483v-.262l1.423-.534v-.364l-1.138-.118-2.057-.012-.143.442 1.075.52v.64l-.376-.105h-1.19v.156l.61.34-.067.116-.672-.34-.077-.247s-.167.143-.167.235v.044l-.387.02c-.007-.09-.012-.188-.016-.286-.01-.25.07-.653.203-1.133" fill="#CADBE7"/><path d="M80.875 84.264l.02 3.008h-.992L79.86 89.1h-1.88v.46l-.938.023h-.008l-.054-4.558.27-.525-.23-.042-.036-.008c.058-.248-.008-.49-.008-.64 0-.26.014-.455.078-.6.065-.143.35-.43.505-.807.154-.376.076-.976.076-1.08 0-.062-.032-.412-.06-.698.397.36.793.717.94.84.238.2 1.66 1.866 2.36 2.8" fill="#CADBE7"/><path d="M81.08 83.056v.416l-.208.26.003.532c-.7-.933-2.12-2.598-2.358-2.798-.148-.124-.544-.48-.94-.84-.017-.192-.03-.353-.03-.384 0-.078.012-.34.012-.403 0-.067-.052-.328-.065-.445-.014-.117.05-.48.05-.48H78v-.34l-.337-.247c.026-.156.284-.35.284-.35l2.045-1.2.893.234s.077.21.09.39c.014.184.026 1.903.026 1.98 0 .08-.064.248-.09.313-.025.066-.103.208-.103.26 0 .053-.027.378.04.456.064.08.166.17.142.223-.028.05-.118.104-.195.117-.078.012-.3.117-.35.144-.053.025-.143.117-.143.22 0 .105.066.573.143.664.078.092.18.25.13.3-.052.052-.3.3-.246.378.05.078.18.13.232.196.05.064.35.43.478.415.01 0 .023-.005.04-.01M58.113 89.052l5.82-.072c-.033.22-.997 6.432-1.058 7.018h-.194l-.03-.01c.073-.283.017-.64.017-.64s0-.054-.078-.236-.687-.195-.855-.13c-.17.065-1.048.924-1.268 1.107-.22.18-.517.312-.687.324-.167.013-2.547-.04-2.547-.04l-.06.007-.006-.044-.026-1.406 1.088-.027-.052-1.875h-4.002c0-.03 0-.06.004-.09 0-.004 0-.008.002-.013.002-.025.005-.055.006-.088 0-.01 0-.018.002-.026.003-.037.006-.066.01-.09.015-.112.018-.436.015-.846v-.01c.004-.37.004-.684.004-.684h-.012c-.013-.75-.033-1.557-.033-1.917 0-.054.002-.108.006-.166l.033.003 3.903-.048zM59.846 83.387l-.027-2-.05-3.817h-.03l-1.9-.022v-.314l-.854.42.25-.924-3.59.022v.482l-.626-.02-.004.002c.108.2.175.337.194.396.062.188 2.21 5.86 2.21 5.86l-.557 1.953.907-.02 2.275-.044-.036-1.952 1.836-.02z" fill="#CADBE7"/><path d="M58.62 71.898c.018.418.044.79.077.883l.02 1.03 1.003.02.017 1.307.033 2.433h-.03l-1.9-.022v-.314l-.854.42.25-.924-3.59.022v.482l-.626-.02-.004.002c-.165-.307-.424-.766-.754-1.335-.156-.268-.327-.56-.513-.872-.837-1.408-.69-1.764-.69-1.764s-.01-1.442-.018-3.128l4.75-.093 1.903-.036.022.547.856-.02v.02s.015.733.046 1.364" fill="#CADBE7"/><path d="M66.9 74.608c-.418-1.008-.252-1.49-.252-1.49l.272-1.345v-.017l-5.567.095-2.734.048c.018.418.044.79.077.883l.022 1.03 1 .02.017 1.308c.132.195 1 1.468 1.194 1.74.21.292.543.628.543.628h.037l.777-.02s.46.02.71.187c.218.147 1.98 1.42 2.437 1.75l.005-.006.792-3.8 1.11-.023c-.194-.417-.352-.77-.442-.986M76.848 79.158l-3.834.133.02-.21-4.006.043-.02.01c-.34-.714-1.137-2.38-1.668-3.54l5.09-.102.643-.023c1.745 1.697 2.795 2.734 2.795 2.734s.62.577.98.958M69.174 79.48s-.018-.04-.053-.11l-.01.005-3.568.127-.38 2.243-1.226 7.228-.002.007 2.183-.027c.365-1.316 1.127-3.2 1.467-4.014h.003l1.315-1.28.022-.483h.312s.084-2.08.084-2.394c0-.316-.146-1.303-.146-1.303" fill="#CADBE7"/><path d="M80.004 74.578l.182 1.745s-.04.104-.22.22c-.18.118-2.238 1.226-2.37 1.446-.127.22-.256.468-.256.78 0 .128-.006.272-.014.397h-.034l-.416.01v-.01L69.25 71.74l.028-.03 6.157-.083 1.043-.863.314.338.417-.274.016.006-.003.007c-.038.144-.026.69.117.73.14.04.35 0 .427.013.077.014 1.798.99 1.875 1.015.078.027.195.196.195.313l.167 1.538h-1.927v.13h1.927zM69.12 79.37l-.01.005-3.568.127s-.038-.03-.108-.08l.004-.005.794-3.8 1.108-.023c.532 1.16 1.326 2.825 1.668 3.54l.113.236M55.07 52.84l4.232-.085.02 1.276.156-.038s-.02.84-.078 1.035c-.06.195-.06.703-.06.8 0 .093.07 4.246.077 4.64l-3.764.08-4.867.105c-.003-1.488 0-2.95 0-2.95l-.916.01v-.048l-.104-4.714 5.305-.11zM54.21 89.1l3.903-.05-.068-3.69-2.275.046-.907.02-6.287.124V87.455h-.984l-.02.028.023.63v.02h.075l.026 1.198 1.89.026.05 1.433-.128.44 4.697-.05c-.013-.75-.033-1.556-.033-1.917 0-.054.002-.108.006-.166l.033.003z" fill="#CADBE7"/><path d="M67.726 70.252c1.76 1.71 3.725 3.637 5.328 5.195l-.624.044-5.09.104c-.192-.417-.35-.77-.44-.986-.418-1.008-.252-1.49-.252-1.49l.272-1.345v-.017l.313-.004-.084-1.028-.126-.085.082-.395M48.576 85.55v.005h-.98v-2.161h.85l-.025-1.667h1.942l-.155-5.774 2.04-.064.015-.01c.33.57.59 1.03.754 1.336.108.2.175.337.194.396.062.188 2.21 5.86 2.21 5.86l-.557 1.953-6.287.125zM47.595 88.112v.02h-.624l-.024 1.25-1.14.027v.91l-1.19.027-.025-.886-5.51.08-.028-1.902 3.804-.13-.13-5.703 1.916-.027v1.902l1.94-.027.027-.26h.985v2.162h-.003v1.9l-.02.028M44.237 58.08l.084 4.45-4.844.095-.056-2.59.58.02.02-.357 1.357-.02.042-.4 2.127-1.092s.48-.316.668-.777h.01l.012.67z" fill="#CADBE7"/><path d="M44.125 52.117l.1 5.292h-.01c-.188.46-.668.776-.668.776l-2.13 1.092-.04.4-1.357.02-.02.357-.58-.02-.13-5.926c1.65-.694 3.305-1.39 4.82-2.03l.015.037zM51.017 64.906l.025 5.21c-3.22.057-6.422.114-6.535.103-.01-.003-.025-.006-.042-.014l-.145-7.676 6.353-.127h.12c.008.717.02 1.253.036 1.348.063.338.187.883.187 1.156M64.982 41.297c.155.065.286.247.208.364-.07.107-.36.318-.36.474l-.45.007c0-.046-.002-.085-.005-.113-.014-.132-.208-.352-.208-.352l.014-.27.414.022s.233-.196.388-.13" fill="#CADBE7"/><path d="M65.098 42.77c.015.116.015.428.015.428l-.195.013.078 1.77c-.453.115-.588-.06-.61-.247-.005-.05-.003-.097 0-.142.028-.22.028-.532 0-.637-.025-.105-.05-.144-.05-.195 0-.052-.014-.222-.053-.325-.034-.092-.068-.163-.076-.24v-.034c0-.093.076-.34.13-.483.04-.11.047-.368.042-.536l.45-.006c0 .018.003.033.01.05.078.155.246.468.258.585" fill="#CADBE7"/><path d="M59.53 43.106c.01-.06.018-.104.018-.13 0-.087-.04-.93-.08-1.692h.002l3.132-.104.594-.183.027-.014c.025.048.065.08.13.067.18-.04.258-.117.362-.066.102.052.296.052.102.404l.364.018-.013.27-.335-.015-.105.418c-.038.156-.104.403-.038.534.058.12.216.37.222.59 0 .02 0 .042-.003.06-.027.235-.21.547-.183.743.027.195.09.287.207.378.116.09.208.273.208.35 0 .08-.053.3.05.405.105.104.3.39.285.64-.012.245-.05.558.027.702.077.142.143.325.116.43-.003.015-.01.034-.017.054l-.01-.003-4.06-.026-.01-.353-.07-2.822-1.09-.05c.08-.23.138-.458.166-.602" fill="#CADBE7"/><path d="M59.038 39.09c-.043-.1-.082-.188-.112-.254-.128-.286-.102-.495-.102-.495s-.015-1.178-.034-1.843c.06-.074.253-.308.318-.395.078-.105.517-.13.517-.13s.776.025.907.025c.13 0 .543-.103.672-.26.13-.156.7-.13.7-.13l1.163.104h.052v.106l.646.078v.833s.027.468-.206.495c-.233.025-.35.13-.35.273 0 .143-.026 3.268-.026 3.268s-.005.134.04.22l-.028.014-.594.183-3.132.104h-.002c-.032-.61-.065-1.168-.076-1.25-.018-.14-.208-.607-.354-.945M49.87 57.664v.047c-1.578.012-4.658.035-4.905.035-.334 0-.708.336-.708.336h-.02l-.013-.67-.1-5.293-.015-.037c2.105-.886 3.938-1.658 5.103-2.147l.01 1.09s0 .99.285 1.302l.284.312-.026.313.104 4.714z" fill="#CADBE7"/><path d="M55.09 51.16c0 .2-.016 1.507-.02 1.68l-5.304.11.026-.313-.284-.312c-.286-.313-.286-1.302-.286-1.302l-.01-1.09 1.318-.55c.447-.177 1.746-.216 2.29-.255.192-.014.567-.208.983-.46.048.234.112.474.18.598.157.273.837 1.073.914 1.19.078.117.194.49.194.703M48.525 39.133c-.002.67-.002 1.273-.002 1.578H48.5l-2.823.027v-.26l-2.743.05h-.01l-.02-1.015 2.227-.012c.2 0 .883-.155 1.102-.198.22-.046.947-.157 1.43-.157.093 0 .408-.004.863-.012" fill="#CADBE7"/><path d="M49.24 35.712c-.074.016-.665.152-.69.494-.016.206-.022 1.68-.025 2.927-.455.008-.77.012-.862.012-.484 0-1.21.11-1.43.157-.22.043-.903.198-1.102.198l-2.226.012-.072-3.7c1.735-.026 3.804-.057 5.693-.09.242-.002.48-.006.716-.01M49.154 43.316l.006.625h-.04l-1.373.39-1.45-.025v.547l-1.525-.027v.547H42.6l-.028.6s-.62.208-.983.312c-.364.103-2.434.782-2.434.782h-.007l-.123-5.418-.01-.814 1.588-.618-.025.495 1.267.027.026.208 1.06.052-.008-.47h.01l2.742-.05v.26l2.822-.026h.023v.21s-.024.65.104.833c.13.18.362.47.518.494l.01 1.07z" fill="#CADBE7"/><path d="M59.468 41.284c-.032-.61-.065-1.168-.076-1.25-.018-.14-.208-.607-.354-.945l-.11-.254c-.13-.286-.104-.495-.104-.495s-.015-1.178-.034-1.843c-.006-.208-.013-.366-.02-.422-.008-.094-.106-.32-.23-.572l-1.63.04-2.77.063c-.058.02-2.22.063-4.9.106-.074.016-.665.152-.69.494-.016.206-.022 1.68-.025 2.927v1.788s-.026.65.103.833c.128.18.36.47.517.494l.01 1.07 8.492-.173 1.882-.038c.01-.06.018-.104.018-.13 0-.087-.04-.93-.08-1.692M55.79 69.987l.002.036-4.75.093c-.01-2.3-.025-5.052-.025-5.21 0-.273-.124-.82-.188-1.154-.018-.096-.03-.632-.036-1.35-.005-.52-.008-1.138-.008-1.75l4.867-.105v.026l.137 9.414z" fill="#CADBE7"/><path d="M60.84 63.273l-.052-2.835h-.03l-.588.012-.753.016-3.764.08v.027l.137 9.415.002.035c1.15-.02 1.903-.035 1.903-.035l.022.546.856-.02h.083l-.02-.59.73-.06v-.484h.208v-1.87h.25v-.483l.418-.02v-.862h.25l.012-1.11.01-.822.145.02-.022-.966.203.006zM44.32 62.53l.145 7.676c-.346-.13-1.92-1.33-1.92-1.33l-.02 2.373-3.788-.023-.104-4.703h.03l.897-.043-.084-3.855 4.845-.095z" fill="#CADBE7"/><path d="M44.465 70.206c.017.008.03.01.042.013.113.01 3.315-.047 6.535-.104l.017 3.128s-.147.356.69 1.764c.185.312.356.604.512.873l-.014.01-2.04.063v-.008l-11.362.208-.11-4.927 3.788.023.02-2.375s1.575 1.202 1.92 1.33M39.476 62.625l.084 3.856-.897.043h-.03l-.02-.917-11.464.34-.077-3.076M57.647 43.144l-8.493.172.006.625.047 5.32.006.673 1.317-.55c.447-.177 1.746-.216 2.29-.255.192-.014.567-.208.983-.46-.06-.285-.098-.56-.11-.613-.02-.1.08-.333.118-.43.04-.098.097-.294.097-.294l-.027-.03c.155 0 1.087-.78 1.242-.913.156-.13.7-.025.88.054.183.08 1.01-.287 1.14-.365.088-.053.244-.08.424-.102.087-.01.18-.02.274-.028.285-.026.543-.73.62-.91.078-.183.31-.34.57-.626.12-.133.24-.42.334-.702.078-.23.137-.458.165-.602l-1.883.038zM50.786 60.652c0 .612.003 1.23.008 1.75h-.122l-6.352.128-.083-4.45h.02s.374-.335.708-.335c.247 0 3.327-.023 4.905-.034l.917-.007s-.004 1.46 0 2.95M42.925 40.528l-.02-1.015-.074-3.702c-2.082.032-3.686.054-3.927.057.01.683.033 1.925.048 2.89l.335-.026v.758H39l.01.61.007.736 1.588-.618-.025.495 1.267.027.026.208 1.06.052-.008-.47z" fill="#CADBE7"/><path d="M49.207 49.26l-.047-5.32h-.04l-1.373.39-1.448-.025v.547l-1.528-.027v.547H42.6l-.028.6s-.62.208-.983.312c-.364.103-2.434.782-2.434.782h-.007l.135 6.04-.017.002.01.383.012.62c1.65-.694 3.305-1.39 4.82-2.03 2.105-.886 3.938-1.658 5.103-2.147l-.006-.672z" fill="#CADBE7"/><path fill="#CADBE7" d="M39.42 60.034l-.13-5.925-.013-.62-.01-.382-1.224.076v1.383l-1.054.51-.55.27.077 3.567-8.358.208-.026.01-1.14.485.08 3.253 12.402-.245M42.832 35.81c-2.084.032-3.688.054-3.93.057l-.005-.495c0-.234-.102-1.588-.102-1.588l-.058-4.79c.14.015 1 .103 1.402.103.115 0 1.066-.013 2.406-.03l3.908-.058v.97l-.932.028.027 2.786.826.026.05.938.986-.027v.418l1.087.547.023.964.002.063c-1.89.032-3.958.063-5.693.088M47.784 16.43l-6.583.14-1.63-1.484.026-.47-1.983.025c-.02-.68-.036-1.342-.036-1.402 0-.054.005-.243.016-.47h.037l2.873-.026v.547l.232-.027.025.417h.7v-.964h.853s.155.287.31.312c.156.027.725.34.907.417.18.078.7.26.88.13.18-.13.362-.65.75-.625.39.027.777.21.777.21l.023-.007c.07.317.118.53.132.578.078.262.413.758.544.94.128.182 1.11 1.38 1.138 1.64l.01.12"/><path d="M51.845 12.56l.074 3.782-4.135.088-.01-.12c-.028-.26-1.01-1.458-1.14-1.64-.13-.182-.465-.678-.543-.94-.014-.047-.062-.26-.132-.577-.126-.578-.323-1.503-.514-2.41l.025-.005 3.417-.054-.027-1.953 2.91-.05.075 3.88zM57.14 32.403s.287.495.26.834l-.108.004c-.058-.02-.112-.03-.15-.03-.156 0-.492-.155-.622-.26-.13-.103-.517-.26-.7-.313-.18-.05-.49-.39-.516-.57-.025-.184-.078-.184-.26-.367-.18-.18-.077-.625-.077-.78 0-.092.05-.508.095-.91.09.006.522.05.68.26l.183.233 1.216 1.9z" fill="#CADBE7"/><path d="M55.062 30.01c-.044.402-.095.818-.095.91 0 .155-.102.6.078.78.182.183.234.183.26.366.026.18.336.52.516.57.183.055.57.21.7.314.13.105.466.26.62.26.04 0 .094.01.152.03.173.06.392.212.392.466 0 .338.182.6.337.833.094.14.338.582.52.963l-1.63.04c-.446-.524-1.202-1.085-1.592-1.407-.548-.45-.87-1.703-.92-2.205-.05-.5-.275-1.377-.375-1.552-.095-.166-.48-.647-.88-1.484l.737-.37.008-.01c.026.023.06.036.096.036.182 0 .362-.105.466 0 .104.103.672.39.672.728 0 .11-.015.303-.037.52l-.023.21" fill="#CADBE7"/><path d="M49.24 35.712c-.234.004-.473.008-.715.01v-.063l-.026-.965-1.088-.547v-.417l-.985.028-.05-.938-.828-.026-.028-2.786.932-.027v-.97l6.65-.096.04-.02c.4.837.784 1.318.88 1.484.1.175.324 1.052.373 1.553.05.503.373 1.756.92 2.206.39.322 1.147.883 1.594 1.406l-2.77.064c-.058.02-2.22.063-4.9.106M45.96 13.153l-.023.006s-.388-.183-.776-.21c-.388-.025-.57.495-.75.625-.18.13-.7-.052-.88-.13-.182-.078-.75-.39-.907-.417-.155-.025-.31-.312-.31-.312h-.854v.964h-.7l-.025-.418-.232.027v-.548l-2.873.027-.037-.003c.014-.344.042-.775.088-.962.03-.122-.036-.34-.146-.59l.018-.01.078-.468 1.863.052.025-1.043c.647-.286.907-.91.907-.91l.388.025.983-1.85v-.02l2.987-.03c.014.33.042.832.092 1.066.037.175.298 1.427.57 2.714.192.908.39 1.833.515 2.41" fill="#CADBE7"/><path d="M51.733 6.805l.037 1.875-2.91.05.027 1.954-3.416.053-.024.005c-.273-1.287-.534-2.54-.57-2.714-.05-.234-.08-.736-.093-1.066h.17l.232-5.73c.542-.016 2.874-.04 4.658-.057v.005l.053 1.042 1.45 4.556.387-.005v.032zM58.54 35.503c-.182-.38-.425-.823-.52-.964-.154-.235-.336-.496-.336-.834 0-.254-.22-.406-.392-.465l.108-.003c.027-.34-.26-.834-.26-.834l-1.215-1.9-.182-.234c-.16-.21-.59-.254-.68-.26l.022-.212.013.002s.257.025.49 0c.227-.027 5.682-.2 5.944-.21l.003.09c-.037.056-.065.106-.07.145-.028.156.09 1.355.154 1.55.062.195.256.364.45.442.195.078.39.222.442.313.05.092 1.06 2.162 1.06 2.162l.427.025.27-.625 1.515-.012.012.703-1.32.026.014.26 2.045-.026v.39h-2.097v.455h-.335v-.392h-.997v.196h.725l-.025.248-.686.078v.09h-.053l-1.164-.104s-.57-.025-.7.13c-.128.158-.542.26-.67.26-.132 0-.908-.024-.908-.024s-.44.025-.517.13c-.065.087-.26.32-.318.395-.006-.208-.012-.366-.02-.422-.008-.094-.106-.32-.23-.572" fill="#CADBE7"/><path d="M55.627 6.727l-3.894.046-.388.005-1.45-4.556-.052-1.042v-.005l2.15-.022-.726-.937 2.318-.08c.005.01.008.02.01.028.08.195.254.527.254.683 0 .156-.06.35-.02.47.038.116.154.194.175.33.018.137.077.43.135.567.06.138.077.606.292.82.212.216.465.45.484.568.02.117.078.234.176.39.096.156.427.508.35.547-.08.038-.273.038-.273.096 0 .06 0 .92.095 1.153 0 0 .194.572.26.702.03.063.07.15.102.235" fill="#CADBE7"/><path d="M51.77 8.68l-.037-1.875v-.032l3.894-.046c.037.093.065.18.065.22 0 .08.027.834.027.94 0 .102.038.766.038.883 0 .117.05.366.18.522.13.156.492.61.53.664.04.052.117.142.09.208-.024.066-.193.677-.193.78 0 .106.053.458.13.575.078.116.335.336.388.44.047.095.134.146.188.23l-.007.005-.854.313-4.348.05h-.017L51.77 8.68zM69.977 98.055l-1.63-2.478c-.738-1.13-1.503-2.3-1.76-2.705-.496-.786-.604-1.505-.658-2.5-.007-.09-.012-.188-.016-.286-.01-.25.07-.653.203-1.133l-2.183.027c-.034.22-1 6.432-1.06 7.018h-.013l-.542 2.057-.004.01.004.002c.53.144 1.138.144 1.215.144.078 0 1.902.067 2.02.13.115.066.58.262.685.262.103 0 .35.012.35.012.245.027.645-.156.905-.234.26-.078.492.026.802.234.31.21.84 1.03 1.022 1.147l.06.04h1.072c-.096-1.24-.473-1.745-.473-1.745" fill="#CADBE7"/><path d="M68.83 99.69c-.007-.01-.014-.023-.024-.035-.098-.153-.248-.386-.394-.61-.247-.378-.635-.417-.854-.417-.22 0-.674.234-1.087.26-.414.026-.983-.235-1.255-.313-.272-.078-1.384-.103-1.67-.103-.06 0-.155 0-.266-.005h-.05l-.206-.012-.008.042V99.8h5.86l.01-.023-.035-.054c-.005-.01-.013-.02-.02-.032M61.532 29.59c-.262.01-5.717.183-5.944.21-.233.025-.49 0-.49 0 .01-.22.024-.413.024-.522 0-.337-.568-.625-.672-.728-.104-.105-.284 0-.466 0-.037 0-.07-.012-.096-.036-.106-.086-.14-.314-.163-.46-.025-.182-.517-.78-.646-1.04-.13-.26-.493-.21-.648-.21-.156 0-.362-.234-.493-.416-.13-.182-.207-.494-.233-.626-.025-.13-.777-.493-.906-.546-.128-.052-.283-.547-.283-.755 0-.1-.122-.238-.262-.36l1.815-.03 7.4-.104.015.032c-.038.027-.066.057-.066.085v.065s0 .535.038.6c.038.064.128.35.155.494.026.144.012.222.065.34.05.116.18.337.207.44.026.106.336 1.24.35 1.395.01.156.128.26.142.156.012-.104-.027-.468-.092-.65-.064-.184-.233-.717-.245-.887-.013-.17-.13-.884-.13-1.028 0-.144-.064-.833.026-.872.09-.04.298-.066.337.04.04.102.012.168.012.258 0 .093-.012.43.014.6.024.17.206.482.218.586.014.103.04.196-.012.235-.052.04-.09.18-.052.286.04.105.246.677.246.755 0 .078.077.39.077.47 0 .077.078.26.104.377.026.117.026.247.065.3.04.052.272.364.402.533.13.17.297.352.452.417.154.066.297.09.375.013.077-.078.167-.208.18-.103.014.103-.064.298-.14.325-.08.026-.208.026-.286.065-.06.03-.277.227-.395.39l-.003-.09z" fill="#CADBE7"/><path d="M60.156 23.34c.05.105.182.34.155.39-.025.054-.05.197-.154.197s-.36.014-.478.014c-.065 0-.14.026-.192.058l-.016-.032-7.4.104-.15-7.728 1.547-.033s.413 1.537.75 1.953l4.037-.104.03-.007c.136.61.388 1.225.448 1.386.066.168.053.13.066.168.012.04.892 1.433.944 1.537.053.103.09.182.053.196-.04.013-.117.04-.156-.038-.04-.08-.144-.196-.183-.144-.038.05-.09.234-.142.144-.052-.093-.194-.352-.194-.457 0-.104-.012-.3-.09-.35-.077-.053-.426-.145-.492-.223-.063-.078-.14-.18-.18-.235-.038-.05-.18-.078-.13.027.053.105.27.364.247.43-.027.065-.066.195-.014.286.054.092.13.326.21.39.077.066.128.093.128.17 0 .08.05.416.155.52.104.106.206.287.337.196.13-.09.194-.403.272-.403.077 0 .024-.014.09.13.065.144.143.586.206.715.065.132.247.64.298.743" fill="#CADBE7"/><path d="M60.17 15.855c.037.103.076.195-.026.273-.104.078-.544.274-.596.352-.052.078-.362.493-.556.493-.194 0-.556-.064-.595-.142-.02-.04-.06-.116-.068-.172-.01-.052.006-.086.08-.06.155.05.478.194.647.077.168-.117.362-.3.323-.43-.04-.13-.027-.195-.233-.21-.206-.012-.827.054-.92.106-.09.052-.18.052-.18.196 0 .045.01.17.026.337.035.37.105.957.194 1.394l.018.086-.03.006-4.038.102c-.337-.415-.75-1.953-.75-1.953l-1.548.032-.075-3.783h.017l4.347-.052.853-.313.008-.004c.01.01.015.02.02.032.05.103.18.494.18.69 0 .194.014.897.363 1.21.35.312 1.67 1.07 1.902 1.08.233.014.337-.025.4-.038.066-.012.144-.13.144-.027 0 .105 0 .366.025.483.025.117.025.13.064.235M53.144 28.894l.736-.37.008-.01c-.106-.086-.14-.314-.163-.46-.025-.182-.517-.78-.646-1.042-.13-.26-.493-.207-.648-.207-.156 0-.362-.235-.493-.418-.13-.18-.207-.493-.234-.625-.024-.13-.776-.493-.905-.546-.127-.052-.283-.547-.283-.755 0-.1-.122-.238-.262-.36-.15-.128-.318-.238-.385-.264-.13-.052-.233-.156-.44-.39-.068-.08-.15-.152-.232-.22l.024.844-1.6.03c1.838 1.442 4.06 3.195 4.06 3.195-.004-.004-2.225-1.755-4.06-3.195l-6.887.127-.023.01.773 1.916h.233v1.433h.492l.052.78.284.678v.022l3.908-.057 6.65-.096.04-.02z" fill="#CADBE7"/><path d="M49.198 23.225c-.17-.144-.354-.266-.493-.353-.206-.13-.233-.286-.233-.47 0-.18-.388-.44-.57-.624-.13-.13-.287-.914-.375-1.486-.033-.22-.056-.41-.064-.52-.026-.39.155-.806.233-.91.078-.104.182-.546.182-.807 0-.232-.062-1.225-.094-1.625l4.135-.088.15 7.728-1.812.027-.003.003c-.15-.128-.318-.238-.385-.264-.13-.052-.233-.156-.44-.39-.068-.08-.15-.152-.232-.22" fill="#CADBE7"/><path d="M49.198 23.225c-.17-.144-.354-.266-.493-.353-.206-.13-.233-.286-.233-.47 0-.18-.388-.44-.57-.624-.13-.13-.287-.914-.375-1.486l-.013.002-4.318.075-1.66.028.027 1.902-1.618.033.767 1.903.023-.01 6.888-.126 1.6-.03-.025-.845z" fill="#CADBE7"/><path d="M42.546 29.044v.022c-1.34.018-2.29.03-2.407.03-.403 0-1.263-.087-1.403-.1l-.08-6.638 1.288-.025.767 1.903.773 1.917h.233v1.433h.492l.052.78.284.678z" fill="#CADBE7"/><path d="M39.285 38.73l-.334.026c-.014-.964-.036-2.206-.047-2.89l-.006-.494c0-.234-.102-1.588-.102-1.588l-.058-4.79-.02-.002s-3.882-.625-4.192-.65c-.31-.026-3.106 0-3.494 0-.387 0-1.035.025-1.294-.104-.037-.02-.14-.07-.292-.14-.872-.41-3.304-1.528-3.304-1.528h-.01l.088 3.777 5.9-.105.225 10.09.033 1.473 6.65-.157-.01-.814-.007-.737-.01-.61h.285v-.756z" fill="#CADBE7"/><path d="M38.658 22.358l.08 6.637-.02-.003s-3.883-.625-4.193-.65c-.31-.026-3.106 0-3.494 0-.387 0-1.035.025-1.294-.104-.037-.02-.14-.07-.292-.14l.008-.017c-.206-.182-.233-.65-.233-.65l-.052-4.87v-.01l2.795-.056 6.695-.136zM38.613 18.523l.045 3.835-6.695.136v-.013l-.104-3.852-1.916.052-.077-1.875h.024l-.05-2.24 3.855-.053-.024.288 1.294.078.155-.21.41-.004 2.122 1.547c.195.145.39.287.582.426l-.01.012-.414-.026.803 1.9zM37.062 7.034l-.572.005-1.863-1.173.104-1.848-1.035-.028-.128 1.2-.31-.158-.673-1.823-.725-.05v-.913l-.39-.025-.077.884-1.89-.025 1.218 1.954-1.56 1.028.008.013.568.366.907-.21.413-.78.363 1.484 1.603.078.05.625-.412.313.104.444.337.103-.05.573.594.183.362-.34.388.157.44-.364.312.728.956 2.657.078 1.407h.492l.05 1.153.89-.01c-.018-.68-.035-1.342-.035-1.403 0-.053.005-.242.016-.47.014-.344.042-.775.088-.962.03-.122-.036-.34-.146-.59l.018-.01.078-.468 1.863.052.025-1.043c.647-.286.907-.91.907-.91l.388.025.983-1.85v-.02l-4.734.042z" fill="#CADBE7"/><path d="M47.878 18.055c0-.232-.062-1.225-.094-1.625l-6.583.14-1.63-1.484.026-.47-1.983.025-.89.01-1.192.014 2.122 1.547c.195.145.39.287.582.426l-.01.012-.414-.026.803 1.9.045 3.836 1.287-.025 1.618-.033-.027-1.902 1.66-.03 4.318-.074.013-.002c-.033-.22-.056-.41-.064-.52-.026-.39.155-.806.233-.91.078-.104.182-.546.182-.807" fill="#CADBE7"/><path fill="#CADBE7" d="M36.672 13.497h-.492l-.078-1.406-.956-2.656-.31-.728-.442.364-.388-.156-.362.34-.594-.184.05-.573-.336-.103-.103-.444.414-.312-.05-.625-1.605-.08h-.57l-.027.367.984.598-.026 2.864-1.89.027v.063l-.05 3.686v.026l3.855-.054-.024.288 1.294.078.155-.21.41-.004 1.192-.014M31.963 22.48v.014l-2.795.056-3.132.063v.99h-1.914v-.94l-3.363.056v-.028l-.04-1.89h-.497l-.04-3.82.03-.02.648-.028s.363 1.407.285 1.928l4.452-.156 2.872-1.9h1.397l.077 1.874 1.915-.052.103 3.853z"/><path d="M29.452 28.08l-.008.018c-.872-.41-3.304-1.528-3.304-1.528h-.01l-.067-2.968h-.027v-.99l3.132-.062v.01l.05 4.87s.028.468.234.65M26.19 5.897v.022l-.025 1.56h-.7v-.414l-2.38.078.052-3.882h.388l-.102-.937-.26-.18-.026-.81 2.926-.026-.053 4.584" fill="#CADBE7"/><path fill="#CADBE7" d="M30.823 7.3l.026-.366h.57l-.364-1.484-.413.78-.907.21-.568-.365-.008-.013-.02.013-1.214-.078-.053.34-.49-.028-.078-.39-1.114-.023v.022l-.025 1.56h-.7v-.414l-2.38.078-.34 3.23-.23 2.16h-1.163l.077-.625h.336l.027-.444h-1.19l.05-.65.363-.235.828.026-.026.39.492.027.113-.7.042-.264-2.127-.396v3.078h.497l.05.652h1.243v-.313l1.553-.025v.964h.39v-.965l1.888-.078v1.562h3.882l.05-3.687v-.064l1.89-.028.027-2.864"/><path d="M20.72 20.802h-.497l-.04-3.82.03-.02-.026-1.825-1.863-.078v-1.354l.932.052v.39h.83v-.91l-.753-.027v-.468h1.005V9.664l-4.033-.75v.002c.11.106.195.214.182.284-.026.156-.182.652-.182.78l.004.114c.564.264 1.124.44 1.6.44v.002c-.352.01-.937.023-1.583.04.006.315-.004.662-.073.787-.13.234-.776 1.25-.854 1.43-.04.09-.102.187-.132.284-.03.098-.025.196.078.287 0 .002 0 .002.003.003.206.183.31.34.542.34.233 0 .828-.157.828.155 0 .313-.078 1.354-.155 1.51-.078.156-.26 1.015-.31 1.147-.052.128-.467.832-.39 1.066.048.142.163.294.28.42l.032-.03 1.863.052-.027 1.016-1.175-.025c-.002.025-.006.05-.014.077-.104.312-.233.728-.208.833.026.104.674 2.422.776 2.526.06.058.19.19.314.338l.05-.025 3.003-.05v-.028l-.04-1.89z" fill="#CADBE7"/><path d="M15.268 13.077l-.04-.013-1.382.01-2.18.015.003-.177 1.32-.6-.355-1.432-.842-3.405-.896-.05-.024-.627-2.24-.525v-.4l-.773.05-.723-.553.1-.225.772.477 1.593.025-.025-.502c-.12-.084-.328-.198-.58-.325-.857-.407-1.844-.83-2.512-1.103L6.39 4.895l-.896.025v-.928h-.298v.928l-1.52.05-.596-.65-.848.65-.772-.05v-.8h-.348v1.827H.042v.776h.647s-.35.652-.4 1.23h-.2l.1 7.64 1.495.05-.026 1.254 1.095.15V18.2l.822.25v-1.202l1.394.325.026 1.18s1.295.4 1.818.475c.523.075 2.44.05 2.44.05v-1.955c.547-.025 2.34.3 2.34.3l.067-4.21 2.135-.027 1.55-.022c-.102-.09-.106-.19-.077-.287M70.65 86.935v1.028s.013.17-.052.222c-.065.052-.13.09-.13.143 0 .052-.05.182-.05.182l-1.05-.117-.724.013s-.194-.052-.155-.182c.038-.13.116-.34.128-.52.013-.183.052-.587.104-.704.052-.117.09-.39.22-.39s.906.234.996.273c.09.04.233.17.324.182.09.013.388-.13.388-.13M72.047 86.505s.44-.078.492.078c.05.156.14.73.14.73s-.012.22-.102.273c-.09.052-.285.078-.324.117-.038.04-.116.09-.09.182.026.09.103.222.103.222l-.013.247-.957.04s-.143.103-.104.18c.04.08.117.158.117.21 0 .052-.337.104-.337.104v-.612s.285-.04.324-.117c.04-.08.142-.457.116-.587-.026-.13-.168-.378-.05-.404.115-.027.27-.014.27.09s.013.47.013.47l.143.012v-.39l.45-.014.014-.3s-.336.027-.284-.05c.05-.08.064-.118.064-.196 0-.08.013-.287.013-.287M83.783 92.117c0 .04.116.13.18.156.066.027-.012.34-.025.443-.013.104-.116.09-.18.09-.066 0-.143.327-.182.405-.04.08.013.3-.04.378-.05.08-.128-.052-.18-.143-.052-.09-.142.052-.168.13-.026.08-.156.105-.246.118-.09.013-.065.09.013.17.077.077.103.116.052.207 0 0-.156.013-.207.013-.052 0 0 0-.104.026-.104.025-.142.416-.194.56-.052.142-.375.35-.505.39-.13.04-.478.17-.57.17-.09 0-.128-.157-.128-.157l-.053-.534s-.013-.08-.04-.222c-.025-.144-.14.09-.167.195-.026.104.04.78.04.78l-.26.053v1.29s.336.104.492.182c.155.078.038.273-.013.377-.053.105-.26.157-.338.21-.077.05-.116.324-.116.324l-.117.012s-.518-.885-.686-1.16c-.17-.272-1.05-.52-1.05-.52l-.037.925h-.298s.012-.052.012-.117.13-.17.13-.248c0-.078-.065-.143-.13-.195-.065-.052-.026-.182-.04-.273-.012-.092-.258-.144-.335-.274-.078-.13-.052-.455-.04-.508.014-.052.014-.572.04-.65.026-.08.09-.248.09-.365 0-.117.117-.378.156-.43.04-.052.22-.39.27-.56.053-.17.092-.495.092-.586 0-.09.323-.415.388-.468.065-.052.078-.143.09-.234.014-.09.247-.208.247-.208l.88.026.27.325h.35l-.012-.44.13-.014.025.377s.336-.04.4-.09c.065-.053.04-.248.027-.34-.013-.09-.013-.416-.013-.533v-.938c0-.09.064-.403.103-.52.04-.118.7-.665.83-.808.128-.143.412-.73.49-.95.078-.222.104.078.09.17 0 0-.18.56-.297.702-.116.143-.492.56-.53.6-.04.038-.065.077 0 .13.064.05.103.05.116.18.012.13-.04.3.05.38.09.077.208.155.208.272 0 .118-.052.26.064.326.117.065.272.104.272.17 0 .064-.013.494.078.546.09.052.35.052.388.065.04.013.13.065.155.195.026.13.078.417.078.417" fill="#CADBE7"/><path d="M67.73 70.26l-.497-.482.146-1.008.207.02-.02-.923.25.042c.022-.17-.104-1.324-.104-1.324l.146-.59v-.01l5.016-.067.012-.01c.058.08.112.153.156.204.128.156.31.234.322.313.014.078.066.34.156.443.09.103.363.338.44.325.078-.012.195-.117.207-.012.012.103.05.533 0 .586-.052.05-.246.116-.195.22.05.104.323.43.466.585.144.156.454.43.544.444.09.01.143-.028.207.077.066.103.234.39.66.533.428.143.803.234.946.092.142-.144.142-.3.156-.34.012-.038.024-.038.102-.038.078 0 .13-.013.233.143.104.157.247.482.337.533.09.053.323.183.194.288-.127.1-.543.383-.592.526l-.017-.006-.418.274-.314-.338-1.043.863-6.157.082-.03.03-1.52-1.48zM65.01 54.434l.06 3.914-4.32.096-.108-5.717 3.203-.066 1.137-.022" fill="#FD4141"/><path d="M63.246 64.17l-.023-1.558 1.914-.032 4.192-.072.023-.003c.023.242.08.792.08.875v.104s.052.325.156.352c.103.026.27.066.322-.027.053-.09.026-.338.116-.338.092 0 .233-.014.26-.078.026-.066.065-.078-.027-.117-.09-.04-.218-.093-.218-.21 0-.117-.026-.376.025-.442.053-.066.092-.195.247-.208.082-.006.183-.033.27-.047.075-.01.138-.01.17.02.065.066.002.157.002.157.002.272.067.583.49.86.594.39.866.402.866.402s.323.104.09.143c-.233.04-.543.13-.582.208-.04.08-.09.17-.156.184 0 0-.194.065-.245.168-.052.105-.09.327-.066.43.026.105.143.313.09.313-.05 0-.258.04-.284-.052-.025-.09-.05-.156-.103-.273-.052-.118-.13-.247-.09-.364.038-.118.052-.3-.026-.274-.077.025-.348.117-.336.26.012.143-.026.22.04.3.064.078.166.156.128.207-.04.052-.05.09 0 .143.052.052.376.195.48.195.102 0 .426.013.517-.026.09-.04.22-.025.18-.17-.04-.143-.04-.207-.13-.285-.09-.078-.233-.287-.13-.34.105-.05.156-.143.285 0 .13.145.725.834.815.94.06.07.185.24.298.394l-.012.01-5.017.067-2.696.036.026 1.797-1.893-1.826-.023-.022-.028-1.802zM70.106 57.964c.026.078-.012.208-.025.26v.015l-.025-.003-4.985.11-.06-3.913 2.82-.025.007-.004c.086.24.177.555.238.667.078.143.206.404.272.494.065.092.116.195.22.26.103.067.246.157.246.235 0 .08.09.47.128.52.04.054.04.21.222.418s.633.755.686.808c.05.05.233.078.258.156" fill="#FD4141"/><path fill="#FD4141" d="M65.07 58.348l.067 4.232-1.914.032.023 1.558-1.857.022-.02-.903-.53-.016-.052-2.837-.04-1.993"/><path d="M71.103 60.06c.026.326-.323.234-.323.234s-.247-.052-.31.273c-.066.327-.117.522-.04.664.067.126.27.542.323.862 0 0 .05.052.117.103 0 0-.186.057-.298.074l-.052.003c-.09 0-.388.04-.465-.026-.078-.064-.246-.156-.22-.26.026-.104.064-.234.026-.273-.038-.04-.193-.066-.284-.066-.09 0-.285.027-.247.118.038.09.142.182.194.195.052.013.104.092.104.145v.05s-.027.08-.104.092c-.078.014-.18.092-.18.144 0 .012.003.054.01.115l-.025.003-4.193.072-.067-4.232 4.985-.11h.024c-.007.082.026.342.026.546v.22c0 .08 0 .17.116.418.117.247.272.417.35.417.077 0 .504-.106.53.22M60.75 58.444l-.108-5.717-.3.006-.574.012-.466.01.02 1.276.156-.038s-.02.84-.078 1.035c-.06.195-.06.703-.06.8 0 .093.07 4.246.077 4.64l.753-.017.59-.012h.028l-.04-1.994zM65.738 50.597l-.03.01-1.476.077-.388 1.928.002.05-3.204.065-.11-5.793 4.062.027.01.004c-.038.117-.106.305-.074.427.04.144.233.755.272.847.04.09.245.482.62.533l-.4.08s.064.17.09.35c.025.183 0 .248.078.326.078.08.194.26.194.365 0 .105-.014.326.078.38.09.05.245.116.245.18 0 .026.012.08.03.147" fill="#FD4141"/><path d="M60.532 46.934l-.01-.353-.068-2.822-1.09-.05c-.093.283-.214.57-.334.7-.26.287-.492.444-.57.626-.077.182-.335.885-.62.91-.093.01-.187.018-.274.03.1.25.275.47.566.59.045.02.09.036.138.053.186.07.393.136.6.208l-.013.037v.625l.29-.018.098 4.647.523.605v.023l.573-.012.302-.006-.11-5.793zM67.837 54.406l-.007.003-2.82.024-.028-1.796-1.137.023v-.047l.387-1.93 1.475-.077.03-.01c.03.102.074.234.113.337.063.17.323.65.543.86.22.207.427.39.39.56-.04.167-.093.26.023.533.117.273.544.703.544.703l-.13.155s.44.26.544.482c.024.048.05.11.073.18M67.86 65.987l-2.696.036.026 1.797-1.893-1.826-.023-.022-.028-1.802-1.857.022-.02-.903-.53-.016-.202-.007.02.967-.145-.02-.01.822-.01 1.11h-.25v.86l-.42.02v.483h-.25v1.87h-.207v.483l-.73.062.02.588h-.083v.02s.015.734.046 1.365l2.734-.047 5.566-.094.313-.004-.083-1.028-.126-.085.082-.395.002-.006.62.02-.495-.482.146-1.008.207.02-.02-.923.25.042c.022-.17-.104-1.324-.104-1.324l.146-.59v-.01z" fill="#FD4141"/><path d="M59.245 52.117l-.098-4.648-.29.017v-.625l.012-.037c-.207-.072-.414-.138-.6-.208-.048-.017-.093-.034-.138-.053-.29-.12-.466-.34-.566-.59-.18.02-.336.048-.425.1-.128.08-.955.445-1.137.367-.182-.078-.725-.182-.88-.053-.156.132-1.087.913-1.243.913l.027.03s-.058.197-.096.295c-.038.097-.136.33-.116.43.01.053.05.328.11.612.047.235.11.475.18.6.156.272.836 1.072.913 1.19.078.116.194.488.194.702 0 .2-.016 1.507-.02 1.68l4.232-.085.466-.01v-.023l-.523-.605z" fill="#FD4141"/></g></svg>