<?xml version="1.0" encoding="UTF-8" standalone="no"?>
<svg width="85px" height="100px" viewBox="0 0 85 100" version="1.1" xmlns="http://www.w3.org/2000/svg" xmlns:xlink="http://www.w3.org/1999/xlink">
    <!-- Generator: Sketch 41.2 (35397) - http://www.bohemiancoding.com/sketch -->
    <title>Far North Side</title>
    <desc>Created with Sketch.</desc>
    <defs></defs>
    <g id="Styles-and-Assets" stroke="none" stroke-width="1" fill="none" fill-rule="evenodd">
        <g id="Far-North-Side">
            <path d="M16.3691774,17.9765469 L18.2545749,18.0281094 L18.2278651,19.0437344 L17.0384935,19.0187344 C17.062061,18.7140469 16.6975508,18.3296719 16.5530037,18.2109219 C16.4917283,18.1593594 16.4131701,18.0874844 16.336183,18.0062344 L16.3691774,17.9765469 Z" id="Fill-3" fill="#CADBE7"></path>
            <path d="M30.1955823,14.5389062 L26.267671,14.5389062 L26.267671,12.9764062 L24.3561922,13.0545312 L24.3561922,14.018125 L23.9634011,14.018125 L23.9634011,13.0545312 L22.3922366,13.080625 L22.3922366,13.393125 L21.135305,13.393125 L21.0828281,12.7420312 L19.5641405,12.7420312 L19.5641405,13.2107812 L20.3234843,13.236875 L20.3234843,14.1482812 L19.4855823,14.1482812 L19.4855823,13.7576562 L18.5428835,13.705625 L18.5428835,15.0596875 L20.428281,15.1378125 L20.4543623,16.9607812 L21.1090665,16.9346875 C21.1090665,16.9346875 21.4756192,18.3409375 21.397061,18.861875 L25.9011183,18.705625 L28.8077726,16.8045312 L30.2480591,16.8045312 L30.1955823,14.5389062 Z" id="Fill-12" fill="#CADBE7"></path>
            <polygon id="Fill-14" fill="#CADBE7" points="48.1593346 87.455625 49.154353 87.455625 49.154353 85.5546875 48.1593346 85.5546875"></polygon>
            <path d="M63.7745416,98.454 C64.0003179,98.4694687 64.1963993,98.4711875 64.3027671,98.4711875 C64.5909187,98.4711875 65.7168152,98.497125 65.9917689,98.57525 C66.2667227,98.653375 66.8430259,98.9136875 67.2618983,98.88775 C67.6807708,98.8618125 68.1392366,98.6274375 68.3617135,98.6274375 C68.5841904,98.6274375 68.9771386,98.6663437 69.225854,99.044 C69.4230351,99.343375 69.6287006,99.6593125 69.7052163,99.777125 L69.6964177,99.7993125 L63.7662144,99.7993125 L63.7662144,98.4972812 L63.7745416,98.454 Z" id="Fill-16" fill="#CADBE7"></path>
            <path d="M73.3363974,97.7031094 C73.3363974,97.7031094 72.8133567,97.0906094 72.6562403,96.9093594 C72.4991238,96.7265469 72.3544196,96.5437344 72.3027283,96.4015469 C72.2775896,96.3327969 72.2775896,96.1515469 72.2852884,95.9671719 C71.5107043,95.9781094 70.8698262,95.9874844 70.820963,95.9874844 C70.6938558,95.9874844 70.208366,95.8202969 70.018098,95.7359219 C69.8281442,95.6515469 69.1745397,95.5671719 69.1745397,95.5671719 L69.1619704,95.5765469 C70.0039575,96.8437344 70.810122,98.0546719 70.810122,98.0546719 C70.810122,98.0546719 71.191915,98.5609219 71.2875989,99.7999844 L74.506915,99.7999844 C74.5023586,99.6062344 74.4660647,99.3984219 74.4238004,99.2781094 C74.3452421,99.0577969 73.3363974,97.7031094 73.3363974,97.7031094" id="Fill-17" fill="#CADBE7"></path>
            <path d="M81.8851349,97.4531719 C81.8350148,97.5483281 81.808305,97.7297344 81.808305,97.7297344 L81.6904677,97.7422344 C81.6904677,97.7422344 81.1672699,96.8562969 80.9958558,96.5828594 C80.8263272,96.3094219 79.9353198,96.0625469 79.9353198,96.0625469 L79.8960407,96.9875469 L79.5961054,96.9875469 C79.5961054,96.9875469 79.6086747,96.9344219 79.6086747,96.8703594 C79.6086747,96.8047344 79.7389242,96.7000469 79.7389242,96.6219219 C79.7389242,96.5437969 79.6746636,96.4797344 79.6086747,96.4266094 C79.5425287,96.3750469 79.5818078,96.2453594 79.5693956,96.1531719 C79.5568262,96.0625469 79.306854,96.0109844 79.2282957,95.8797344 C79.1497375,95.7500469 79.1766044,95.4250469 79.1890166,95.3719219 C79.2033142,95.3203594 79.2033142,94.8000469 79.2282957,94.7219219 C79.2551627,94.6437969 79.3211516,94.4734844 79.3211516,94.3562969 C79.3211516,94.2391094 79.4389889,93.9797344 79.478268,93.9266094 C79.5175471,93.8750469 79.6996451,93.5359844 79.7532218,93.3672344 C79.8050702,93.1984844 79.8443494,92.8719219 79.8443494,92.7812969 C79.8443494,92.6906719 80.1709945,92.3641094 80.2371405,92.3125469 C80.3031294,92.2609844 80.3156987,92.1687969 80.3281109,92.0781719 C80.3424085,91.9875469 80.5780832,91.8703594 80.5780832,91.8703594 L81.4672052,91.8953594 L81.6258928,92.0844219 L81.8868632,91.3359844 L81.8584251,87.2719219 L81.8238595,87.2719219 L80.853037,87.2719219 L80.8104584,89.1000469 L78.9093494,89.1000469 L78.9093494,89.5608281 L77.9589519,89.5828594 L77.950939,89.5828594 L77.9807911,91.9764531 C77.9807911,91.9764531 77.8111054,92.8998906 77.7262625,93.1312969 C77.6429908,93.3623906 77.6839982,93.7608281 77.6839982,93.7608281 L78.0216414,95.9873906 L76.480329,94.7281719 L75.677464,93.1312969 L75.6633235,93.1155156 C75.5392015,93.2219219 75.4213641,93.3156719 75.3932403,93.3281719 C75.3569464,93.3420781 75.2502643,93.4000469 75.152695,93.4608281 L75.1717061,93.4891094 L75.1291275,95.9250469 C75.1291275,95.9250469 73.8297745,95.9437969 72.6576858,95.9625469 C72.621549,96.0842656 72.5995527,96.2592656 72.7472421,96.4531719 C72.9579353,96.7266094 74.5933604,98.9016094 74.6719187,99.0312969 C74.7504769,99.1609844 74.8040536,99.3172344 74.8040536,99.4484844 C74.8040536,99.5670781 74.7819002,99.7859844 74.8384621,99.8000469 L74.855902,99.8000469 C74.9344603,99.7734844 75.0130185,99.6687969 75.143268,99.6172344 C75.275403,99.5656719 75.3789427,99.5000469 75.4450887,99.4344219 C75.5110776,99.3703594 75.628915,99.2531719 75.7324547,99.2922344 C75.8378799,99.3312969 75.9949963,99.5000469 75.8502921,99.5516094 C75.7074732,99.6047344 75.523647,99.6172344 75.4450887,99.6687969 C75.4040813,99.6967656 75.3083974,99.7483281 75.2218262,99.8000469 L81.913573,99.8000469 L81.913573,97.4562969 L81.8851349,97.4531719 Z" id="Fill-18" fill="#CADBE7"></path>
            <path d="M58.7356128,85.3608906 L58.699476,83.4077656 L60.5581636,83.3874531 L60.5314538,81.3860469 C61.8653725,81.2968281 62.2017588,80.4843281 62.2817311,79.9749531 C62.2895869,80.6218281 62.4702708,81.8046406 63.6879233,81.8046406 C64.8207329,81.8046406 65.5701784,81.7687031 65.9378309,81.7452656 L64.6966109,88.9733906 C64.6966109,88.9733906 64.6966109,88.9749531 64.6950397,88.9796406 L58.804744,89.0515156 L58.7356128,85.3608906 Z" id="Fill-19" fill="#CADBE7"></path>
            <path d="M62.3006479,79.5655937 C62.3006479,79.5655937 62.2784945,79.7327812 62.2817939,79.9749687 C62.2016645,80.4843437 61.8652782,81.2968437 60.5313595,81.3859062 L60.4812394,77.5702812 L60.4482449,75.1374687 C60.5817939,75.3327812 61.4599177,76.606375 61.6563133,76.8765312 C61.8668494,77.1702812 62.2048068,77.5062187 62.2048068,77.5062187 L62.2425148,77.5048125 C62.2770804,78.7405937 62.3006479,79.5655937 62.3006479,79.5655937" id="Fill-20" fill="#CADBE7"></path>
            <path d="M66.3227819,79.5015156 L65.9378466,81.7452656 C65.5701941,81.7687031 64.8207486,81.8046406 63.687939,81.8046406 C62.4702865,81.8046406 62.2896026,80.6218281 62.2817468,79.9749531 C62.3196118,79.7374531 62.3006007,79.5655781 62.3006007,79.5655781 C62.3006007,79.5655781 62.2770333,78.7405781 62.2424677,77.5047969 L63.0280499,77.4860469 C63.0280499,77.4860469 63.4931146,77.5062031 63.7460721,77.6733906 C63.9676063,77.8202656 65.750878,79.0921406 66.2128004,79.4233906 C66.2835028,79.4733906 66.3227819,79.5015156 66.3227819,79.5015156" id="Fill-21" fill="#CADBE7"></path>
            <path d="M75.1527421,93.4608594 L75.1715961,93.4891406 L75.1291747,95.9250781 C75.1291747,95.9250781 73.8298216,95.9438281 72.6577329,95.9625781 C72.6703022,95.9125781 72.687585,95.8702344 72.6954409,95.8407031 C72.7221506,95.7374219 73.0615222,95.3592969 73.088232,95.3077344 C73.1149418,95.2547656 73.2453484,95.1905469 73.4150342,95.1514844 C73.5862911,95.1124219 73.5862911,95.0594531 73.5862911,95.0594531 C73.6648494,95.0203906 73.6507089,94.8641406 73.6648494,94.7733594 C73.6774187,94.6827344 74.0576405,94.3702344 74.0969196,94.3436719 C74.1361987,94.3171094 74.4111525,94.1749219 74.5148494,94.1217969 C74.6201174,94.0702344 74.921781,93.6796094 74.9736294,93.6014844 C74.9971969,93.5655469 75.0726128,93.5124219 75.1527421,93.4608594" id="Fill-22" fill="#CADBE7"></path>
            <path d="M72.1973031,95.3328125 C72.1973031,95.3328125 72.3294381,95.3859375 72.3151405,95.503125 C72.3088558,95.5639063 72.2917301,95.7671875 72.2852884,95.9671875 C71.5107043,95.978125 70.8698262,95.9873438 70.820963,95.9873438 C70.6938558,95.9873438 70.208366,95.8203125 70.018098,95.7359375 C69.8281442,95.6515625 69.1745397,95.5671875 69.1745397,95.5671875 L69.1619704,95.5765625 C68.413939,94.4484375 67.6393549,93.2765625 67.3802699,92.871875 C66.8774972,92.0859375 66.7689298,91.3671875 66.7140961,90.3734375 L67.1068872,90.3515625 C67.114586,90.4734375 67.1475804,90.7234375 67.1695767,90.815625 C67.1962865,90.91875 67.3926821,91.51875 67.4838096,91.5578125 C67.5766654,91.596875 67.8766007,91.675 67.9818688,91.7390625 C68.0872939,91.8046875 68.3622477,91.85625 68.4408059,91.909375 C68.5193641,91.9609375 69.0942532,92.246875 69.1603993,92.2734375 C69.2263882,92.3 69.3567948,92.378125 69.3567948,92.378125 L69.3567948,92.78125 L68.2961017,92.3390625 L68.1658521,92.6375 L69.3835046,93.171875 L69.3835046,93.640625 L68.7157597,93.575 L68.7157597,93.7453125 L69.4084861,94.03125 L69.4084861,94.175 L72.1973031,95.3328125 Z" id="Fill-23" fill="#CADBE7"></path>
            <path d="M78.1709492,84.4999844 L77.8959954,85.0249844 L77.9509861,89.5827969 L77.9808383,91.9765469 C77.9808383,91.9765469 77.8111525,92.8999844 77.7263096,93.1312344 C77.6430379,93.3624844 77.6838882,93.7609219 77.6838882,93.7609219 L78.0216885,95.9874844 L76.4803762,94.7281094 L75.6775111,93.1312344 L75.6633706,93.1156094 C75.8079177,92.9921719 75.9650342,92.8562344 76.0072985,92.8202969 C76.0858567,92.7546719 76.3876774,92.5468594 76.4929455,92.4687344 C76.5964852,92.3906094 76.6233521,92.1296719 76.6357643,92.0515469 C76.6500619,91.9734219 76.9250157,91.8437344 77.0285555,91.7531094 C77.1339806,91.6609219 76.8590268,91.5312344 76.7536017,91.4406094 C76.6500619,91.3484219 76.6750434,91.1796719 76.6750434,91.1796719 L76.6750434,87.3515469 L76.6736294,87.3249844 C76.6720582,87.2999844 76.6689159,87.2484219 76.6626312,87.1437344 C76.6500619,86.9343594 76.4786479,86.4406094 76.4000896,86.2187344 C76.3215314,85.9968594 76.6107828,85.6062344 76.689341,85.5281094 C76.7678993,85.4499844 76.9107181,85.3593594 77.4999048,84.9812344 C77.7498771,84.8218594 77.8582874,84.6327969 77.9007089,84.4499844 L77.9382597,84.4577969 L78.1709492,84.4999844 Z" id="Fill-24" fill="#CADBE7"></path>
            <path d="M78.211768,79.1656719 L78.2463336,79.1672344 C78.2353355,79.3467656 78.2213521,79.4873906 78.2213521,79.4873906 C78.2213521,79.4873906 78.1946423,79.5516094 78.2213521,79.6436406 C78.2463336,79.7344219 78.2732006,79.7998906 78.2732006,79.8780156 C78.2732006,79.9561406 78.2339214,80.1250469 78.2339214,80.1641094 C78.2339214,80.1780156 78.2353355,80.2702031 78.2384778,80.3873906 C77.8928216,80.0748906 77.591158,79.7984844 77.5143281,79.7217656 C77.4434686,79.6500469 77.2580712,79.4358281 77.0585333,79.1984844 L77.7906959,79.1781719 L78.211768,79.1656719 Z" id="Fill-25" fill="#CADBE7"></path>
            <path d="M71.4385721,88.184375 C71.504561,88.1328125 71.4902634,87.9640625 71.4902634,87.9640625 L71.4902634,86.934375 C71.4902634,86.934375 71.1903281,87.078125 71.0974723,87.065625 C71.0065018,87.0515625 70.8617976,86.921875 70.7708272,86.8828125 C70.6796996,86.84375 69.8941174,86.609375 69.7619824,86.609375 C69.6317329,86.609375 69.5924538,86.8828125 69.5406054,87 C69.4870287,87.1171875 69.4477495,87.5203125 69.4353373,87.703125 C69.422768,87.8859375 69.3442098,88.09375 69.3049307,88.2234375 C69.2656516,88.3546875 69.4620471,88.40625 69.4620471,88.40625 L70.1940527,88.39375 L71.2545887,88.5109375 C71.2545887,88.5109375 71.3081654,88.3796875 71.3081654,88.328125 C71.3081654,88.2765625 71.3724261,88.2375 71.4385721,88.184375 M73.4418068,87.5859375 C73.5327773,87.534375 73.5470749,87.3125 73.5470749,87.3125 C73.5470749,87.3125 73.454219,86.7390625 73.4025277,86.5828125 C73.3506793,86.4265625 72.9043115,86.5046875 72.9043115,86.5046875 C72.9043115,86.5046875 72.8918993,86.7140625 72.8918993,86.7921875 C72.8918993,86.8703125 72.8793299,86.909375 72.8257532,86.9875 C72.7740619,87.065625 73.1150046,87.0390625 73.1150046,87.0390625 L73.100707,87.3390625 L72.6436553,87.3515625 L72.6436553,87.7421875 L72.4991081,87.7296875 C72.4991081,87.7296875 72.4865388,87.3640625 72.4865388,87.2609375 C72.4865388,87.15625 72.3294224,87.14375 72.211585,87.16875 C72.0937477,87.1953125 72.2365665,87.4421875 72.2634335,87.5734375 C72.2901433,87.703125 72.1848752,88.08125 72.1455961,88.159375 C72.106317,88.2375 71.8187939,88.2765625 71.8187939,88.2765625 L71.8187939,88.8875 C71.8187939,88.8875 72.1580083,88.8359375 72.1580083,88.784375 C72.1580083,88.73125 72.0794501,88.653125 72.040171,88.575 C72.0008919,88.496875 72.1455961,88.39375 72.1455961,88.39375 L73.1150046,88.3546875 L73.1275739,88.10625 C73.1275739,88.10625 73.0490157,87.9765625 73.0221488,87.8859375 C72.9971673,87.79375 73.0757255,87.7421875 73.1150046,87.703125 C73.1542837,87.6640625 73.3506793,87.6375 73.4418068,87.5859375 M66.9041913,88.953125 C67.2732579,87.6375 68.0446996,85.753125 68.3889418,84.9390625 L68.391927,84.940625 L69.7227033,83.659375 L69.7448567,83.1765625 L70.0605037,83.1765625 C70.0605037,83.1765625 70.1455037,81.096875 70.1455037,80.7828125 C70.1455037,80.4671875 69.9976571,79.4796875 69.9976571,79.4796875 C69.9976571,79.4796875 69.9788031,79.440625 69.9442375,79.3703125 C69.9161137,79.3125 69.8768346,79.23125 69.8296996,79.1328125 L69.8501248,79.1234375 L73.9037292,79.08125 L73.8833041,79.290625 L77.0584704,79.1984375 C77.2580083,79.4359375 77.4435628,79.65 77.5142652,79.721875 C77.5910952,79.7984375 77.8927588,80.075 78.238415,80.3875 C78.2446996,80.5984375 78.2558549,80.8921875 78.2731377,80.9578125 C78.2998475,81.0625 78.2998475,81.609375 78.2998475,81.7140625 C78.2998475,81.8171875 78.2998475,82.3515625 78.1945795,82.546875 C78.0891543,82.7421875 77.7749214,83.0546875 77.7232301,83.1328125 C77.6713817,83.2109375 77.617805,83.484375 77.617805,83.6796875 C77.617805,83.875 77.789219,84.421875 77.5661137,84.64375 C77.3428512,84.8640625 76.910781,85.125 76.7929436,85.1765625 C76.6751063,85.2296875 76.5179898,85.3984375 76.4662985,85.4890625 C76.4144501,85.58125 76.0859196,86.0359375 76.1787754,86.284375 L76.269903,86.53125 C76.269903,86.53125 76.375171,86.9875 76.3877403,87.2609375 L76.4001525,87.534375 L76.375171,91.8828125 C76.375171,91.8828125 76.3877403,92.090625 76.2180545,92.246875 C76.0466405,92.403125 75.2360767,93.015625 75.1700878,93.09375 C75.1039418,93.171875 74.4237847,93.6921875 74.3719362,93.7453125 C74.3183595,93.796875 74.18811,94.0046875 74.0969824,94.01875 C74.0041266,94.03125 73.8470102,94.01875 73.7953189,94.0703125 C73.7434704,94.121875 73.4292375,94.590625 73.3114002,94.6828125 C73.3114002,94.6828125 73.1792652,94.7734375 73.0364464,94.8390625 C72.8918993,94.903125 72.4865388,94.903125 72.106317,94.8640625 C71.7259381,94.825 70.9546534,94.4484375 70.7189787,94.2921875 C70.4833041,94.1359375 70.3654667,93.9921875 70.31189,93.8875 C70.2601987,93.784375 70.0905129,92.246875 70.0905129,92.246875 L70.9939325,91.85625 L70.9939325,91.5703125 L70.024524,91.7921875 L70.024524,91.4265625 L71.3474445,90.91875 L71.3474445,90.659375 L70.0512338,91.1015625 L70.0512338,90.75 L71.3474445,90.3078125 L71.3474445,90.034375 L69.9066867,90.503125 L69.9066867,90.2421875 L71.3724261,89.6828125 L71.3724261,89.35625 L69.9190989,89.8390625 L69.9190989,89.578125 L71.3600139,89.04375 L71.3600139,88.6796875 L70.2083503,88.5625 L68.1265573,88.55 L67.981853,88.9921875 L69.069256,89.5125 L69.069256,90.1515625 L68.6888771,90.046875 L67.4837939,90.046875 L67.4837939,90.203125 L68.0996904,90.5421875 L68.0337015,90.659375 L67.3533872,90.3203125 L67.274829,90.0734375 C67.274829,90.0734375 67.1053004,90.215625 67.1053004,90.3078125 C67.1053004,90.31875 67.1053004,90.334375 67.1068715,90.3515625 L66.7140804,90.3734375 C66.7077957,90.28125 66.7029251,90.184375 66.6982116,90.0859375 C66.6873706,89.8359375 66.768914,89.4328125 66.9041913,88.953125" id="Fill-26" fill="#CADBE7"></path>
            <path d="M81.8380314,84.2640937 L81.8584566,87.2719063 L81.8238909,87.2719063 L80.8529113,87.2719063 L80.8104898,89.1000313 L78.9093808,89.1000313 L78.9093808,89.5608125 L77.9588262,89.5828437 L77.9509704,89.5828437 L77.8959797,85.0250312 L78.1709335,84.5000312 L77.9384011,84.4578437 L77.9006932,84.449875 C77.9588262,84.2015937 77.8928373,83.9594063 77.8928373,83.8094062 C77.8928373,83.5500312 77.9069778,83.3547187 77.9713956,83.2109687 C78.0373845,83.0672187 78.3249076,82.7812812 78.482024,82.4031562 C78.6391405,82.0265937 78.5605823,81.4265937 78.5605823,81.3234687 C78.5605823,81.2608125 78.5275878,80.9109687 78.500878,80.6250312 C78.901525,80.9859687 79.3021719,81.3422187 79.4514325,81.4656562 C79.6918207,81.6656562 81.1294362,83.331125 81.8380314,84.2640937" id="Fill-27" fill="#CADBE7"></path>
            <path d="M82.0439325,83.0562031 L82.0439325,83.4718281 L81.8349677,83.7312031 L81.83811,84.2640156 C81.1295148,83.3312031 79.6917421,81.6657344 79.4515111,81.4655781 C79.3022505,81.3421406 78.9016035,80.9858906 78.5007994,80.6249531 C78.4836738,80.4344844 78.4695333,80.2733906 78.4695333,80.2421406 C78.4695333,80.1640156 78.4819455,79.9030781 78.4819455,79.8390156 C78.4819455,79.7733906 78.4302542,79.5124531 78.4176848,79.3952656 C78.4033872,79.2780781 78.4695333,78.9140156 78.4695333,78.9140156 L78.9283133,78.9140156 L78.9283133,78.5749531 L78.5873706,78.3280781 C78.6140804,78.1718281 78.8747366,77.9765156 78.8747366,77.9765156 L80.9441174,76.7780781 L81.847537,77.0124531 C81.847537,77.0124531 81.9260952,77.2218281 81.9385074,77.4030781 C81.952805,77.5858906 81.9653743,79.3046406 81.9653743,79.3827656 C81.9653743,79.4608906 81.8992283,79.6296406 81.8742468,79.6952656 C81.847537,79.7608906 81.7689787,79.9030781 81.7689787,79.9562031 C81.7689787,80.0077656 81.7421118,80.3327656 81.8082579,80.4108906 C81.8742468,80.4890156 81.9777865,80.5812031 81.952805,80.6327656 C81.9260952,80.6843281 81.8349677,80.7374531 81.7564094,80.7499531 C81.6778512,80.7624531 81.4547458,80.8671406 81.4028974,80.8937031 C81.3493207,80.9187031 81.2583503,81.0108906 81.2583503,81.1140156 C81.2583503,81.2187031 81.3243392,81.6874531 81.4028974,81.7780781 C81.4814556,81.8702656 81.5849954,82.0265156 81.5333041,82.0780781 C81.4814556,82.1296406 81.2314834,82.3780781 81.2850601,82.4562031 C81.3369085,82.5343281 81.467158,82.5858906 81.5207348,82.6515156 C81.5725832,82.7155781 81.8742468,83.0812031 82.0046534,83.0671406 C82.0154945,83.0657344 82.0280638,83.0624531 82.0439325,83.0562031" id="Fill-28" fill="#CADBE7"></path>
            <path d="M58.8048068,89.0515312 L64.6949455,88.9796562 C64.660537,89.1999687 63.6848438,95.4124687 63.6235684,95.9984062 L63.6094279,95.9968437 L63.4254445,95.9968437 L63.3971636,95.9890312 C63.4694372,95.7046562 63.4130323,95.3468437 63.4130323,95.3468437 C63.4130323,95.3468437 63.4130323,95.2937187 63.3344741,95.1124687 C63.2559159,94.9296562 62.6398623,94.9171562 62.4703336,94.9812187 C62.2989196,95.0468437 61.4097976,95.9062187 61.1865351,96.0890312 C60.9634298,96.2702812 60.6634945,96.4015312 60.4920804,96.4140312 C60.3223946,96.4265312 57.9139566,96.3749687 57.9139566,96.3749687 L57.852524,96.3812187 L57.8478105,96.3359062 L57.8211007,94.9296562 L58.9209159,94.9030937 L58.8690675,93.0280937 L54.8187625,93.0280937 C54.8187625,92.9968437 54.8203336,92.9673125 54.8233189,92.9390312 C54.8233189,92.9345 54.8233189,92.9296562 54.8250471,92.9249687 C54.8266183,92.8999687 54.8296035,92.8702812 54.8313318,92.8374687 C54.8313318,92.8280937 54.8313318,92.8187187 54.832903,92.8110625 C54.8358882,92.7734062 54.8391876,92.7437187 54.8421728,92.7202812 C54.8580416,92.6077812 54.8610268,92.2843437 54.8580416,91.8735625 L54.8580416,91.8640312 C54.862598,91.4937187 54.862598,91.1796562 54.862598,91.1796562 L54.8501858,91.1796562 C54.8376165,90.4312187 54.8171913,89.6234062 54.8171913,89.262625 C54.8171913,89.2093437 54.8187625,89.1546562 54.8233189,89.0968437 L54.8564704,89.100125 L58.8048068,89.0515312 Z" id="Fill-29" fill="#CADBE7"></path>
            <path d="M60.5581007,83.3874687 L60.5313909,81.3859062 L60.4812708,77.5704375 L60.4512616,77.5704375 L58.5298845,77.5484062 L58.5298845,77.2343437 L57.6640157,77.6530937 L57.9169732,76.7296562 L54.286012,76.7515312 L54.286012,77.2343437 L53.6512616,77.212625 L53.6467052,77.2155937 C53.7566867,77.4171562 53.8242468,77.5530937 53.8431007,77.6124687 C53.9057902,77.7999687 56.0802819,83.4718437 56.0802819,83.4718437 L55.5162338,85.4249687 L56.4337939,85.4062187 L58.7355499,85.3609062 L58.6995702,83.4077812 L60.5581007,83.3874687 Z" id="Fill-30" fill="#CADBE7"></path>
            <path d="M59.316975,71.8983594 C59.335829,72.3155469 59.3625388,72.6891406 59.3955333,72.7811719 L59.4175296,73.8108594 L60.4309307,73.8311719 L60.4482135,75.1374219 L60.4812079,77.5703906 L60.4513558,77.5703906 L58.5298216,77.5483594 L58.5298216,77.2342969 L57.6639529,77.6530469 L57.9170675,76.7296094 L54.2859492,76.7516406 L54.2859492,77.2342969 L53.6511987,77.2125781 L53.6466423,77.2155469 C53.4800989,76.9092969 53.2177144,76.4500781 52.8846275,75.8811719 C52.7259399,75.6124219 52.5531118,75.3202344 52.3645721,75.0077344 C51.5192856,73.6000781 51.666975,73.2436719 51.666975,73.2436719 C51.666975,73.2436719 51.6591192,71.8016406 51.6496922,70.1157031 C53.4092394,70.0811719 55.1738142,70.0483594 56.4558845,70.0233594 C57.6183891,70.0014844 58.3821322,69.9874219 58.3821322,69.9874219 L58.4039713,70.5342969 L59.2698401,70.5141406 L59.2698401,70.5342969 C59.2698401,70.5342969 59.2855518,71.2671094 59.316975,71.8983594" id="Fill-31" fill="#CADBE7"></path>
            <path d="M67.6960111,74.607875 C67.2733678,73.6000625 67.4414824,73.11725 67.4414824,73.11725 L67.7164362,71.7733437 L67.7164362,71.7563125 L62.0838115,71.8514687 L59.3169908,71.8983437 C59.3358447,72.3155312 59.3625545,72.689125 59.395549,72.7811562 L59.4175453,73.8108437 L60.4309464,73.8311562 L60.4482292,75.1375625 C60.5817782,75.332875 61.4600591,76.6063125 61.6564547,76.876625 C61.8668336,77.1702187 62.2047911,77.5063125 62.2047911,77.5063125 L62.2424991,77.50475 L63.0280813,77.486 C63.0280813,77.486 63.493146,77.5063125 63.7459464,77.6733437 C63.9676377,77.8202187 65.7509094,79.0920937 66.2128318,79.4233437 L66.2175453,79.4170937 L67.0204104,75.6155312 L68.1422218,75.5936562 C67.9473974,75.176625 67.7871386,74.8250625 67.6960111,74.607875" id="Fill-32" fill="#CADBE7"></path>
            <path d="M77.7628235,79.1581875 L73.8833041,79.2906875 L73.9037292,79.0813125 L69.8501248,79.1233438 L69.8296996,79.132875 C69.4840434,78.4188125 68.6794501,76.7530312 68.1421118,75.5938125 L73.2925462,75.4905313 L73.9430083,75.4667812 C75.7089972,77.1636563 76.7711044,78.2011562 76.7711044,78.2011562 C76.7711044,78.2011562 77.3994131,78.77725 77.7628235,79.1581875" id="Fill-33" fill="#CADBE7"></path>
            <path d="M69.9976728,79.4796875 C69.9976728,79.4796875 69.9788189,79.440625 69.9442532,79.3703125 L69.9334122,79.375 L66.322719,79.5015625 L65.9377837,81.7453125 L64.6967209,88.9734375 C64.6967209,88.9734375 64.6967209,88.975 64.6949926,88.9796875 L66.9040499,88.953125 C67.2732736,87.6375 68.0447153,85.753125 68.3889575,84.9389062 L68.3919427,84.940625 L69.722719,83.659375 L69.7448725,83.1765625 L70.0605194,83.1765625 C70.0605194,83.1765625 70.1453623,81.096875 70.1453623,80.7828125 C70.1453623,80.4671875 69.9976728,79.4796875 69.9976728,79.4796875" id="Fill-34" fill="#CADBE7"></path>
            <path d="M80.9565453,74.5781094 L81.1405287,76.3234219 C81.1405287,76.3234219 81.1012495,76.4265469 80.9172662,76.5437344 C80.7351682,76.6609219 78.6533752,77.7687344 78.5212403,77.9890469 C78.3909908,78.2109219 78.2605841,78.4577969 78.2605841,78.7702969 C78.2605841,78.8984219 78.2542994,79.0421719 78.2462865,79.1671719 L78.2117209,79.1656094 L77.7908059,79.1782656 L77.7908059,79.1656094 L70.0730887,71.7406094 L70.103098,71.7093594 L76.3326081,71.6265469 L77.3884307,70.7640469 L77.7058059,71.1015469 L78.1284492,70.8281094 L78.145732,70.8343594 C78.1443179,70.8359219 78.1427468,70.8390469 78.1427468,70.8406094 C78.1034677,70.9843594 78.116037,71.5312344 78.2605841,71.5702969 C78.403403,71.6093594 78.6140961,71.5702969 78.6926543,71.5827969 C78.7712126,71.5968594 80.5120628,72.5734219 80.5906211,72.5984219 C80.6691793,72.6249844 80.7870166,72.7937344 80.7870166,72.9109219 L80.9565453,74.4484219 L79.0068872,74.4484219 L79.0068872,74.5781094 L80.9565453,74.5781094 Z" id="Fill-35" fill="#CADBE7"></path>
            <path d="M69.9442847,79.3702812 L69.9334436,79.3749687 L66.3227505,79.5015312 C66.3227505,79.5015312 66.2834713,79.4734062 66.2127689,79.4234062 L66.2174824,79.4171562 L67.0205046,75.6155937 L68.142159,75.5937187 C68.6794972,76.7530937 69.4839335,78.4187187 69.8297468,79.1327812 C69.8767246,79.2312187 69.9160037,79.3124687 69.9442847,79.3702812" id="Fill-36" fill="#CADBE7"></path>
            <path d="M68.5349815,70.2594219 L68.03378,69.7781719 L68.1814695,68.7703594 L68.3920055,68.7906719 L68.3715804,67.8670781 L68.6245379,67.9094219 C68.6465342,67.7406719 68.5192699,66.5858281 68.5192699,66.5858281 L68.6669593,65.9969219 L68.6669593,65.9873906 L73.7433919,65.9187969 L73.7559612,65.9109844 C73.8140943,65.9891094 73.869085,66.0625469 73.9130776,66.1141094 C74.0434843,66.2703594 74.2273105,66.3484844 74.2398799,66.4266094 C74.2540203,66.5047344 74.3058688,66.7656719 74.3969963,66.8702031 C74.489695,66.9734844 74.7646488,67.2078594 74.843207,67.1953594 C74.9217652,67.1827031 75.0396026,67.0781719 75.0521719,67.1827031 C75.0647412,67.2859844 75.1040203,67.7156719 75.0521719,67.7686406 C75.0003235,67.8203594 74.8039279,67.8858281 74.8557763,67.9891094 C74.9076248,68.0937969 75.1825786,68.4187969 75.3271257,68.5750469 C75.4716728,68.7312969 75.7859057,69.0047344 75.8770333,69.0186406 C75.9681608,69.0312969 76.0215804,68.9922344 76.0859982,69.0967656 C76.1519871,69.2000469 76.3216728,69.4873906 76.7537431,69.6297344 C77.1858133,69.7734844 77.5660351,69.8641094 77.7105823,69.7217656 C77.8535582,69.5781719 77.8535582,69.4219219 77.8676987,69.3828594 C77.880268,69.3437969 77.8928373,69.3437969 77.9713956,69.3437969 C78.0499538,69.3437969 78.1033734,69.3311406 78.2070702,69.4873906 C78.3123383,69.6436406 78.4568854,69.9687969 78.5480129,70.0203594 C78.6391405,70.0733281 78.8748152,70.2031719 78.7444085,70.3077031 C78.615573,70.4094219 78.1945009,70.6906719 78.1457948,70.8344219 L78.128512,70.8281719 L77.7058688,71.1016094 L77.3884935,70.7639531 L76.332671,71.6266094 L70.1030037,71.7092656 L70.0731516,71.7405156 L68.5349815,70.2594219 Z" id="Fill-37" fill="#CADBE7"></path>
            <path d="M55.7267699,52.8405937 L60.0081932,52.7546562 L60.0287754,54.0312187 L60.1858919,53.9921562 C60.1858919,53.9921562 60.1653096,54.8312187 60.1073336,55.0265312 C60.0474723,55.2218437 60.0474723,55.7296562 60.0474723,55.8280937 C60.0474723,55.9202812 60.1181747,60.0734062 60.1244593,60.4655937 L56.3159566,60.5468437 L51.3903558,60.6515312 C51.3873706,59.1640312 51.391927,57.7030937 51.391927,57.7030937 C51.391927,57.7030937 51.019561,57.7062187 50.4633688,57.7109062 L50.4633688,57.6640312 L50.3581007,52.9499687 L55.7267699,52.8405937 Z" id="Fill-38" fill="#CADBE7"></path>
            <polygon id="Fill-39" fill="#CADBE7" points="65.7839196 54.434375 65.845195 58.3484375 61.4726442 58.44375 61.3642338 52.7265625 64.6055462 52.6609375 65.7554815 52.6375"></polygon>
            <path d="M54.8565018,89.1000625 L58.8048383,89.0514688 L58.7355499,85.3608438 L56.4337939,85.4061563 L55.5162338,85.4249063 L49.1547458,85.5499063 L49.1547458,85.5545938 L49.1547458,87.4561563 L48.1584704,87.4561563 L48.1397736,87.4827188 L48.1617699,88.1125625 L48.1617699,88.1327188 L48.2370287,88.1327188 L48.2637384,89.3311563 L50.1760028,89.3563125 L50.2276941,90.7889688 L50.0974445,91.2313125 L54.8502172,91.1795938 C54.8376479,90.4313125 54.8172227,89.6235 54.8172227,89.2625625 C54.8172227,89.2092813 54.8187939,89.15475 54.8233503,89.0967813 L54.8565018,89.1000625 Z" id="Fill-40" fill="#CADBE7"></path>
            <path d="M63.9990139,64.17025 L63.9754464,62.6124375 L65.9126922,62.579625 L70.1548364,62.50775 L70.1784039,62.5047812 C70.2019713,62.7469687 70.2602616,63.2968125 70.2602616,63.379625 L70.2602616,63.4843125 C70.2602616,63.4843125 70.3119529,63.8093125 70.417378,63.835875 C70.5224889,63.8624375 70.6923318,63.9015 70.7440231,63.8093125 C70.7974427,63.7186875 70.77089,63.4718125 70.8618604,63.4718125 C70.9545591,63.4718125 71.0975351,63.45775 71.124402,63.3936875 C71.1509547,63.3280625 71.1902338,63.3155625 71.0975351,63.2765 C71.0065647,63.2374375 70.8760009,63.1843125 70.8760009,63.067125 C70.8760009,62.9499375 70.8494482,62.6905625 70.9011396,62.6249375 C70.9545591,62.5593125 70.9938383,62.429625 71.1509547,62.417125 C71.2342264,62.410875 71.3363521,62.3843125 71.4243373,62.37025 C71.4997532,62.360875 71.564171,62.3593125 71.5957514,62.3905625 C71.6615832,62.4561875 71.5987366,62.5468125 71.5987366,62.5468125 C71.6003078,62.8188437 71.6662967,63.1297812 72.0936534,63.4061875 C72.6955665,63.7968125 72.9705203,63.8093125 72.9705203,63.8093125 C72.9705203,63.8093125 73.2971654,63.914 73.0614908,63.9530625 C72.8258161,63.992125 72.5115832,64.08275 72.4723041,64.160875 C72.433025,64.239 72.3813336,64.3311875 72.3151876,64.3436875 C72.3151876,64.3436875 72.1187921,64.4093125 72.0671007,64.5124375 C72.0150952,64.617125 71.9758161,64.839 72.0009547,64.942125 C72.0278216,65.0468125 72.145659,65.254625 72.0936534,65.254625 C72.0402338,65.254625 71.8314261,65.2936875 71.8045591,65.2030625 C71.7794205,65.1124375 71.7528678,65.0468125 71.7008623,64.929625 C71.6474427,64.8124375 71.5688845,64.68275 71.6081636,64.5655625 C71.6474427,64.448375 71.6615832,64.2655625 71.583025,64.292125 C71.5044667,64.317125 71.2295129,64.4093125 71.2422394,64.5515 C71.2546516,64.69525 71.2153725,64.773375 71.2815185,64.8515 C71.3473503,64.929625 71.4510471,65.00775 71.411768,65.0593125 C71.3724889,65.1124375 71.3600767,65.1515 71.411768,65.2030625 C71.4651876,65.254625 71.792147,65.398375 71.8972579,65.398375 C72.0009547,65.398375 72.3293281,65.410875 72.4206128,65.3718125 C72.5115832,65.33275 72.643561,65.3468125 72.6042819,65.2030625 C72.5650028,65.0593125 72.5650028,64.99525 72.4723041,64.917125 C72.3813336,64.839 72.2366294,64.629625 72.3420545,64.5780625 C72.4471654,64.5265 72.499171,64.4343125 72.6294205,64.5780625 C72.7613983,64.7218125 73.3633115,65.410875 73.4542819,65.5155625 C73.5155573,65.5860312 73.6412505,65.75775 73.7561026,65.9110312 L73.7435333,65.9186875 L68.6669436,65.9874375 L65.939402,66.023375 L65.9661118,67.82025 L64.0508623,65.9936875 L64.0272948,65.9718125 L63.9990139,64.17025 Z" id="Fill-41" fill="#CADBE7"></path>
            <path d="M68.532232,70.2519375 C70.3139325,71.962875 72.3017699,73.8894375 73.9233688,75.44725 L73.2925462,75.4905312 L68.1421118,75.5938125 C67.9472874,75.176625 67.7871858,74.8250625 67.6960582,74.607875 C67.2732579,73.6000625 67.4415296,73.11725 67.4415296,73.11725 L67.7164834,71.7733437 L67.7164834,71.7563125 L68.0337015,71.751625 L67.9488586,70.7235 L67.8215943,70.639125 L67.9050231,70.2452187" id="Fill-42" fill="#CADBE7"></path>
            <path d="M70.9403715,57.9640312 C70.9672384,58.0421562 70.9279593,58.1718437 70.91539,58.2234062 C70.91539,58.2265312 70.9136617,58.2327812 70.9136617,58.2390312 L70.8886802,58.2374687 L65.845085,58.3484062 L65.7839667,54.4343437 L68.6372015,54.4093437 L68.6450573,54.4062187 C68.7313142,54.6452812 68.8240129,54.9609062 68.8852884,55.0734062 C68.9640037,55.2155937 69.0942532,55.4765312 69.1603993,55.5671562 C69.2263882,55.6593437 69.2782366,55.7624687 69.3835046,55.8280937 C69.4870444,55.8937187 69.6317486,55.9843437 69.6317486,56.0624687 C69.6317486,56.1405937 69.722719,56.5312187 69.7619982,56.5827812 C69.8012773,56.6359062 69.8012773,56.7921562 69.9852606,56.9999687 C70.1690869,57.2077812 70.6261386,57.7546562 70.6797153,57.8077812 C70.7315638,57.8593437 70.91539,57.8859062 70.9403715,57.9640312" id="Fill-43" fill="#CADBE7"></path>
            <path d="M49.1547301,85.5499531 L49.1547301,85.5546406 L48.1617542,85.5546406 L48.1617542,83.4297969 L48.1617542,83.3937031 L49.0225952,83.3937031 L48.9976137,81.7265156 L50.9615693,81.7265156 L50.8044529,75.9530781 L52.8703771,75.8890156 L52.8845176,75.8812031 C53.2176044,76.4501094 53.4799889,76.9093281 53.6466895,77.2155781 C53.756671,77.4171406 53.8242311,77.5530781 53.843085,77.6124531 C53.9057745,77.7999531 56.0802662,83.4718281 56.0802662,83.4718281 L55.5162181,85.4249531 L49.1547301,85.5499531 Z" id="Fill-44" fill="#CADBE7"></path>
            <polygon id="Fill-45" fill="#CADBE7" points="65.8451322 58.3484062 65.9126922 62.5796562 63.9754464 62.6124687 63.9990139 64.1702812 62.1199011 64.1921562 62.099476 63.2890312 61.56528 63.2735625 61.5118604 60.4374687 61.4725813 58.4437187"></polygon>
            <path d="M71.9492006,60.059375 C71.9759104,60.3859375 71.6223983,60.29375 71.6223983,60.29375 C71.6223983,60.29375 71.3724261,60.2421875 71.3081654,60.5671875 C71.2421765,60.89375 71.1903281,61.0890625 71.2688863,61.23125 C71.3364464,61.35625 71.5421118,61.771875 71.5956885,62.0921875 C71.5956885,62.0921875 71.6473799,62.14375 71.7135259,62.1953125 C71.7135259,62.1953125 71.5249861,62.2515625 71.4117052,62.26875 C71.39128,62.271875 71.3741543,62.2734375 71.3600139,62.2734375 C71.2688863,62.2734375 70.9672227,62.3125 70.8886645,62.246875 C70.8101063,62.1828125 70.6404205,62.090625 70.665402,61.9875 C70.6922689,61.8828125 70.7315481,61.753125 70.6922689,61.7140625 C70.6529898,61.675 70.4958734,61.6484375 70.4047458,61.6484375 C70.31189,61.6484375 70.1154945,61.675 70.1547736,61.765625 C70.1940527,61.85625 70.2994778,61.9484375 70.3511691,61.9609375 C70.4047458,61.9734375 70.4565943,62.0515625 70.4565943,62.1046875 L70.4565943,62.15625 C70.4565943,62.15625 70.4297274,62.234375 70.3511691,62.246875 C70.2726109,62.2609375 70.1690712,62.3390625 70.1690712,62.390625 C70.1690712,62.4015625 70.1722135,62.44375 70.178341,62.5046875 L70.1547736,62.5078125 L65.9126294,62.5796875 L65.8450693,58.3484375 L70.8886645,58.2375 L70.913646,58.2390625 C70.9073614,58.3203125 70.9403558,58.5796875 70.9403558,58.784375 L70.9403558,59.0046875 C70.9403558,59.0828125 70.9403558,59.175 71.0581932,59.421875 C71.1760305,59.66875 71.333147,59.8390625 71.4117052,59.8390625 C71.4902634,59.8390625 71.9223336,59.734375 71.9492006,60.059375" id="Fill-46" fill="#CADBE7"></path>
            <path d="M61.4725656,58.4437813 L61.3643124,52.7265938 L61.0593494,52.7328438 L60.4795896,52.7451875 L60.0082403,52.7547188 L60.0288226,54.0312813 L60.185939,53.9922188 C60.185939,53.9922188 60.1653567,54.8312813 60.1073808,55.0265938 C60.0475194,55.2219063 60.0475194,55.7297188 60.0475194,55.8281563 C60.0475194,55.9203438 60.1182218,60.0734688 60.1245065,60.4655 L60.8866784,60.4500313 L61.4821497,60.4375313 L61.5118447,60.4375313 L61.4725656,58.4437813 Z" id="Fill-47" fill="#CADBE7"></path>
            <polygon id="Fill-48" fill="#CADBE7" points="48.161707 88.1125 48.161707 88.1328125 47.5299418 88.1328125 47.5049603 89.3828125 46.3515684 89.409375 46.3515684 90.3203125 45.1482135 90.346875 45.1213466 89.4609375 39.5438697 89.5390625 39.5171599 87.6375 43.3663558 87.5078125 43.2359492 81.8046875 45.173195 81.778125 45.173195 83.6796875 47.1371506 83.653125 47.1638604 83.39375 48.161707 83.39375 48.161707 83.4296875 48.161707 85.5546875 48.1584076 85.5546875 48.1584076 87.45625 48.1397107 87.4828125"></polygon>
            <path d="M44.7632939,58.0812187 L44.8481368,62.5296562 L39.9461035,62.6249687 L39.8895416,60.0343437 L40.475586,60.0546562 L40.4960111,59.6984062 L41.8692089,59.6765312 L41.9116303,59.2780937 L44.0656969,58.1859062 C44.0656969,58.1859062 44.5510296,57.8702812 44.7411405,57.4093437 L44.7507246,57.4093437 L44.7632939,58.0812187 Z" id="Fill-49" fill="#CADBE7"></path>
            <path d="M44.6500601,52.1171719 L44.7507717,57.4093594 L44.7411876,57.4093594 C44.5510767,57.8702969 44.0655869,58.1859219 44.0655869,58.1859219 L41.9115203,59.2781094 L41.869256,59.6765469 L40.4960582,59.6984219 L40.4756331,60.0546719 L39.8894316,60.0343594 L39.7574538,54.1093594 C41.4260305,53.4156094 43.102463,52.7187344 44.6343484,52.0796719 L44.6500601,52.1171719 Z" id="Fill-50" fill="#CADBE7"></path>
            <path d="M51.6245536,64.9061719 C51.6245536,65.0641406 51.6386941,67.8155469 51.6496922,70.1157031 C48.391097,70.1733594 45.1513558,70.2296094 45.0366608,70.2186719 C45.0256627,70.2171094 45.0115222,70.2141406 44.9942394,70.2061719 L44.8481211,62.5296094 L51.2757551,62.4032031 L51.3983059,62.4032031 C51.4060046,63.1202344 51.4171599,63.6561719 51.4344427,63.7514844 C51.4988604,64.0875781 51.6245536,64.6327344 51.6245536,64.9061719" id="Fill-51" fill="#CADBE7"></path>
            <path d="M66.5207015,50.5967969 L66.4892782,50.6063281 L64.9966719,50.6844531 L64.6038808,52.6124219 L64.6056091,52.6610156 L61.3642967,52.7266406 L61.252744,46.9344531 L65.3627532,46.9608594 L65.3721802,46.9639844 C65.3344723,47.0811719 65.265341,47.2686719 65.2984926,47.3905469 C65.3377717,47.5342969 65.5341673,48.1453906 65.5734464,48.2374219 C65.6127255,48.3280469 65.8215333,48.7186719 66.2019122,48.7703906 L65.7948235,48.8485156 C65.7948235,48.8485156 65.8608124,49.0186719 65.8876793,49.2000781 C65.9126608,49.3827344 65.8876793,49.4483594 65.9662375,49.5264844 C66.0447957,49.6046094 66.1626331,49.7860156 66.1626331,49.8905469 C66.1626331,49.9952344 66.1483355,50.2157031 66.2411913,50.2686719 C66.3321617,50.3202344 66.4892782,50.3858594 66.4892782,50.4500781 C66.4892782,50.4764844 66.5018475,50.5296094 66.5207015,50.5967969" id="Fill-52" fill="#CADBE7"></path>
            <path d="M65.7555287,41.2968594 C65.9126451,41.3624844 66.04478,41.5437344 65.9662218,41.6609219 C65.8955194,41.7671719 65.6017116,41.9781094 65.6017116,42.1343594 L65.1459168,42.1406094 C65.1459168,42.0937344 65.1443457,42.0546719 65.1413604,42.0265469 C65.1270628,41.8952969 64.9306673,41.6749844 64.9306673,41.6749844 L64.9449649,41.4062344 L65.3627375,41.4265469 C65.3627375,41.4265469 65.5984122,41.2312344 65.7555287,41.2968594" id="Fill-53" fill="#CADBE7"></path>
            <path d="M65.873366,42.7687187 C65.8876636,42.8859062 65.8876636,43.1984062 65.8876636,43.1984062 L65.691268,43.2109062 L65.7698262,44.9812187 C65.3108891,45.0952812 65.1743549,44.9202812 65.1522015,44.7327812 C65.147488,44.6843437 65.1492163,44.6359062 65.1537726,44.5905937 C65.1806396,44.3702812 65.1806396,44.0577812 65.1537726,43.9530937 C65.1270628,43.8484062 65.1020813,43.8093437 65.1020813,43.7577812 C65.1020813,43.7062187 65.0877837,43.5359062 65.0485046,43.4327812 C65.013939,43.3405937 64.9793734,43.2702812 64.9716747,43.1921562 C64.9699464,43.1812187 64.9699464,43.1702812 64.9699464,43.1593437 C64.9699464,43.0671562 65.0485046,42.8202812 65.1020813,42.6765312 C65.1429316,42.5655937 65.1506303,42.3093437 65.1459168,42.1405937 L65.6017116,42.1343437 C65.6017116,42.1515312 65.6046969,42.1671562 65.6127098,42.1827812 C65.691268,42.3390312 65.8607967,42.6515312 65.873366,42.7687187" id="Fill-54" fill="#CADBE7"></path>
            <path d="M60.2377403,43.10625 C60.2501525,43.046875 60.2564372,43.0015625 60.2564372,42.9765625 C60.2564372,42.8890625 60.2155869,42.046875 60.1763078,41.284375 L60.1778789,41.284375 L63.3469177,41.1796875 L63.9486738,40.996875 L63.9753835,40.9828125 C64.0005222,41.03125 64.0415296,41.0640625 64.1057902,41.05 C64.2896165,41.0109375 64.3681747,40.9328125 64.4735998,40.984375 C64.5771396,41.0359375 64.7735351,41.0359375 64.5771396,41.3875 L64.9449492,41.40625 L64.9306516,41.675 L64.5914372,41.6609375 C64.5914372,41.6609375 64.5252911,41.921875 64.486012,42.078125 C64.4467329,42.234375 64.380744,42.48125 64.4467329,42.6125 C64.5065943,42.73125 64.6666959,42.98125 64.6729806,43.203125 C64.6729806,43.2234375 64.6715665,43.24375 64.6699954,43.2625 C64.6431285,43.496875 64.4593022,43.809375 64.486012,44.0046875 C64.5128789,44.2 64.5771396,44.2921875 64.6949769,44.3828125 C64.8128142,44.4734375 64.9056701,44.65625 64.9056701,44.734375 C64.9056701,44.8125 64.8520933,45.034375 64.9573614,45.1375 C65.0627865,45.2421875 65.2591821,45.528125 65.2448845,45.7765625 C65.2323152,46.0234375 65.193036,46.3359375 65.2715943,46.4796875 C65.3501525,46.621875 65.4162985,46.8046875 65.3894316,46.909375 C65.3862893,46.925 65.3800046,46.94375 65.3723059,46.9640625 L65.3627218,46.9609375 L61.2527126,46.934375 L61.2431285,46.58125 L61.1741543,43.7578125 L60.0710397,43.7078125 C60.149598,43.478125 60.2093022,43.25 60.2377403,43.10625" id="Fill-55" fill="#CADBE7"></path>
            <path d="M61.2526969,46.934375 L61.2432699,46.58125 L61.1741386,43.7578125 L60.0711811,43.7078125 C59.9769113,43.990625 59.8543604,44.2765625 59.7332237,44.409375 C59.4708392,44.6953125 59.2351645,44.8515625 59.1566063,45.034375 C59.0780481,45.215625 58.8173919,45.91875 58.5281405,45.9453125 C58.4340277,45.953125 58.3397579,45.9625 58.2516155,45.9734375 C58.3523272,46.2234375 58.5298688,46.4453125 58.8236765,46.5640625 C58.8690832,46.5828125 58.914647,46.6 58.9635102,46.6171875 C59.1520499,46.6875 59.3610148,46.753125 59.5699797,46.825 L59.5574104,46.8625 L59.5574104,47.4875 L59.851061,47.46875 L59.9502015,52.1171875 L60.4795268,52.721875 L60.4795268,52.7451563 L61.0594436,52.7328125 L61.3642495,52.7265625 L61.2526969,46.934375 Z" id="Fill-56" fill="#CADBE7"></path>
            <path d="M59.7412209,39.0890625 C59.6972283,38.9890625 59.6579492,38.9015625 59.6279399,38.8359375 C59.4975333,38.55 59.5244002,38.340625 59.5244002,38.340625 C59.5244002,38.340625 59.5086885,37.1625 59.4896774,36.496875 C59.5493817,36.4234375 59.7457773,36.1890625 59.8117662,36.1015625 C59.8903244,35.996875 60.334964,35.971875 60.334964,35.971875 C60.334964,35.971875 61.1205462,35.996875 61.2526811,35.996875 C61.3829307,35.996875 61.8025887,35.89375 61.9328383,35.7375 C62.0632449,35.58125 62.6398623,35.60625 62.6398623,35.60625 L63.8182357,35.7109375 L63.8700841,35.7109375 L63.8700841,35.815625 L64.5252597,35.89375 L64.5252597,36.7265625 C64.5252597,36.7265625 64.5521266,37.1953125 64.3164519,37.221875 C64.0807773,37.246875 63.9629399,37.3515625 63.9629399,37.4953125 C63.9629399,37.6375 63.936073,40.7625 63.936073,40.7625 C63.936073,40.7625 63.9315166,40.896875 63.9753521,40.9828125 L63.9486423,40.996875 L63.3468863,41.1796875 L60.1778475,41.284375 L60.1764335,41.284375 C60.143439,40.675 60.1104445,40.115625 60.0992893,40.034375 C60.0805924,39.89375 59.8887532,39.4265625 59.7412209,39.0890625" id="Fill-57" fill="#CADBE7"></path>
            <path d="M50.4633688,57.6640469 L50.4633688,57.7109219 C48.8672227,57.7218594 45.7498752,57.7452969 45.5000601,57.7452969 C45.1624168,57.7452969 44.7837662,58.0812344 44.7837662,58.0812344 L44.763341,58.0812344 L44.7507717,57.4093594 L44.6500601,52.1171719 L44.6343484,52.0796719 C46.7650046,51.1937344 48.6203928,50.4218594 49.7987662,49.9327969 L49.8081932,51.0234219 C49.8081932,51.0234219 49.8081932,52.0124844 50.0974445,52.3249844 L50.3848105,52.6374844 L50.3581007,52.9499844 L50.4633688,57.6640469 Z" id="Fill-58" fill="#CADBE7"></path>
            <path d="M55.7473364,51.159375 C55.7473364,51.3609375 55.7300536,52.6671875 55.7267542,52.840625 L50.358085,52.95 L50.3847948,52.6375 L50.0974288,52.325 C49.8081774,52.0125 49.8081774,51.0234375 49.8081774,51.0234375 L49.7989076,49.9328125 C50.5844898,49.6078125 51.0684085,49.4078125 51.131098,49.3828125 C51.5837505,49.20625 52.898658,49.1671875 53.4485656,49.128125 C53.64339,49.1140625 54.0221978,48.9203125 54.4431128,48.6671875 C54.491976,48.9015625 54.5563937,49.1421875 54.626939,49.265625 C54.7840555,49.5390625 55.4723826,50.3390625 55.5509409,50.45625 C55.6294991,50.5734375 55.7473364,50.9453125 55.7473364,51.159375" id="Fill-59" fill="#CADBE7"></path>
            <path d="M49.102866,39.1327812 C49.1011377,39.8015312 49.1011377,40.4062187 49.1011377,40.7109062 L49.0761562,40.7109062 L46.2211932,40.7374687 L46.2211932,40.4765312 L43.4449455,40.5280937 L43.4356756,40.5280937 L43.4152505,39.5124687 C44.4646312,39.5062187 45.5614612,39.4999687 45.6683004,39.4999687 C45.8694094,39.4999687 46.5605647,39.3452812 46.7820989,39.3015312 C47.0053614,39.2562187 47.7406664,39.1452812 48.2307126,39.1452812 C48.3235684,39.1452812 48.6423577,39.1405937 49.102866,39.1327812" id="Fill-60" fill="#CADBE7"></path>
            <path d="M49.8270786,35.7124531 C49.7516627,35.7280781 49.153049,35.8640156 49.1279104,36.2062031 C49.1121987,36.4124531 49.105914,37.8874531 49.1029288,39.1327656 C48.6424205,39.1405781 48.3236312,39.1452656 48.2307754,39.1452656 C47.7407292,39.1452656 47.0052671,39.2562031 46.7821617,39.3015156 C46.5606275,39.3452656 45.8694723,39.4999531 45.6682061,39.4999531 C45.561524,39.4999531 44.4646941,39.5062031 43.4151562,39.5124531 L43.3414686,35.8108906 C45.0978734,35.7858906 47.1908216,35.7546406 49.1029288,35.7233906 C49.3478734,35.7202656 49.5898327,35.7155781 49.8270786,35.7124531" id="Fill-61" fill="#CADBE7"></path>
            <path d="M49.7391562,43.3155937 L49.7454409,43.9405937 L49.7045906,43.9405937 L48.315524,44.3312187 L46.8496275,44.3046562 L46.8496275,44.8515312 L45.3053299,44.8249687 L45.3053299,45.3718437 L43.1056996,45.3718437 L43.0788327,45.9718437 C43.0788327,45.9718437 42.4503669,46.1796562 42.0844427,46.2843437 C41.7166331,46.3874687 39.6224279,47.0655937 39.6224279,47.0655937 L39.6145721,47.0655937 L39.4920213,41.6484062 L39.4810231,40.8343437 L41.0881673,40.2155937 L41.0631858,40.7109062 L42.3450989,40.7374687 L42.3718087,40.9452812 L43.444914,40.9968437 L43.4356442,40.5280937 L43.444914,40.5280937 L46.2211617,40.4765312 L46.2211617,40.7374687 L49.0761248,40.7109062 L49.1011063,40.7109062 L49.1011063,40.9187187 C49.1011063,40.9187187 49.0761248,41.5702812 49.2063743,41.7530937 C49.336781,41.9343437 49.5724556,42.2218437 49.7295721,42.2468437 L49.7391562,43.3155937 Z" id="Fill-62" fill="#CADBE7"></path>
            <path d="M60.1763549,41.2843437 C60.1433604,40.6749687 60.110366,40.1155937 60.0993678,40.0343437 C60.080671,39.8937187 59.8888318,39.4265312 59.7411423,39.0890312 C59.6971497,38.9890312 59.6578706,38.9015312 59.6280185,38.8359062 C59.4976118,38.5499687 59.5244787,38.3405937 59.5244787,38.3405937 C59.5244787,38.3405937 59.50861,37.1624687 59.489756,36.4968437 C59.4834713,36.2890312 59.4771867,36.1312187 59.470902,36.0749687 C59.461475,35.9812187 59.3624917,35.7562187 59.2383697,35.5030937 L57.588647,35.5421562 L54.7841183,35.6062187 C54.7261423,35.6265312 52.5390813,35.6687187 49.8270943,35.7124687 C49.7516784,35.7280937 49.1530647,35.8640312 49.1279261,36.2062187 C49.1122144,36.4124687 49.1059298,37.8874687 49.1029445,39.1327812 C49.1012163,39.8015312 49.1012163,40.4062187 49.1012163,40.7109062 L49.1012163,40.9187187 C49.1012163,40.9187187 49.0762348,41.5702812 49.2064843,41.7530937 C49.3368909,41.9343437 49.5725656,42.2218437 49.7296821,42.2468437 L49.7391091,43.3155937 L58.333536,43.1437187 L60.2377874,43.1062187 C60.2501996,43.0468437 60.2564843,43.0015312 60.2564843,42.9765312 C60.2564843,42.8890312 60.215634,42.0468437 60.1763549,41.2843437" id="Fill-63" fill="#CADBE7"></path>
            <path d="M56.4543604,69.9875 L56.4559316,70.0234375 C55.1738614,70.0484375 53.4092865,70.08125 51.6497394,70.115625 C51.6387412,67.815625 51.6246007,65.0640625 51.6246007,64.90625 C51.6246007,64.6326562 51.4989076,64.0875 51.4344898,63.7515625 C51.4170499,63.6560937 51.4060518,63.1203125 51.3981959,62.403125 C51.3936396,61.88125 51.3904972,61.2640625 51.3904972,60.6515625 L56.3159409,60.546875 L56.3159409,60.5734375 L56.4543604,69.9875 Z" id="Fill-64" fill="#CADBE7"></path>
            <path d="M68.6449945,54.4062969 L68.6371386,54.4094219 L65.7839039,54.4344219 L65.7554658,52.6375469 L64.6055305,52.6609844 L64.6038022,52.6125469 L64.9965933,50.6844219 L66.4891996,50.6062969 L66.5206229,50.5967656 C66.549061,50.6984844 66.5946248,50.8295781 66.6339039,50.9328594 C66.6981645,51.1016094 66.960549,51.5828594 67.1838115,51.7922344 C67.4051885,52.0000469 67.6158817,52.1828594 67.5766026,52.3516094 C67.5373235,52.5203594 67.4837468,52.6125469 67.6015841,52.8859844 C67.7194214,53.1594219 68.1514917,53.5891094 68.1514917,53.5891094 L68.021085,53.7453594 C68.021085,53.7453594 68.4657246,54.0047344 68.5709926,54.2266094 C68.5947172,54.2748906 68.6198558,54.3375469 68.6449945,54.4062969" id="Fill-65" fill="#CADBE7"></path>
            <path d="M61.5652486,63.2734844 L61.511829,60.4375469 L61.482134,60.4375469 L60.8866627,60.4500469 L60.1244908,60.4655156 L56.315988,60.5469219 L56.315988,60.5734844 L56.4544076,69.9875469 L56.4558216,70.0233281 C57.6184834,70.0016094 58.3820693,69.9875469 58.3820693,69.9875469 L58.4040656,70.5344219 L59.2699344,70.5141094 L59.3547773,70.5125469 L59.3326238,69.9248906 L60.0726423,69.8625469 L60.0726423,69.3797344 L60.2831784,69.3797344 L60.2831784,67.5092656 L60.5361359,67.5092656 L60.5361359,67.0266094 L60.9589362,67.0062969 L60.9589362,66.1453594 L61.2117366,66.1453594 L61.2243059,65.0358281 L61.23389,64.2125469 L61.3814224,64.2342656 L61.3594261,63.2672344 L61.5652486,63.2734844 Z" id="Fill-66" fill="#CADBE7"></path>
            <path d="M68.6669436,65.9874219 L65.939402,66.0233594 L65.9661118,67.8202344 L64.0508623,65.9936719 L64.0272948,65.9717969 L63.9990139,64.1702344 L62.1199011,64.1922656 L62.099476,63.2889844 L61.56528,63.2735156 L61.3594575,63.2672656 L61.3814538,64.2342969 L61.2337643,64.2125781 L61.2243373,65.0358594 L61.211768,66.1453906 L60.9588105,66.1453906 L60.9588105,67.0063281 L60.5361673,67.0264844 L60.5361673,67.5092969 L60.2832098,67.5092969 L60.2832098,69.3797656 L60.0726738,69.3797656 L60.0726738,69.8625781 L59.3326553,69.9249219 L59.3546516,70.5125781 L59.2698087,70.5141406 L59.2698087,70.5342969 C59.2698087,70.5342969 59.2855203,71.2671094 59.3169436,71.8983594 L62.0839214,71.8514844 L67.7163891,71.7563281 L68.0337643,71.7516406 L67.9489214,70.7235156 L67.8216571,70.6389844 L67.9049288,70.2452344 L67.9065,70.2391406 L68.5349658,70.2594531 L68.0337643,69.7782031 L68.1814538,68.7703906 L68.3919898,68.7905469 L68.3715647,67.8671094 L68.6245222,67.9094531 C68.6465185,67.7407031 68.5192542,66.5858594 68.5192542,66.5858594 L68.6669436,65.9969531 L68.6669436,65.9874219 Z" id="Fill-67" fill="#CADBE7"></path>
            <path d="M44.8481525,62.529625 L44.9942708,70.2061875 C44.6439011,70.0766562 43.0507403,68.8749375 43.0507403,68.8749375 L43.0303152,71.2485312 L39.1982449,71.2265 L39.0929769,66.5235312 L39.122829,66.5235312 L40.0309621,66.4811875 L39.9461192,62.6249375 L44.8481525,62.529625 Z" id="Fill-68" fill="#CADBE7"></path>
            <path d="M44.9942237,70.2061719 C45.0115065,70.2141406 45.025647,70.2171094 45.0368022,70.2186719 C45.1513401,70.2296094 48.3910813,70.1733594 51.6496765,70.1157031 C51.6591035,71.8016406 51.6669593,73.2436719 51.6669593,73.2436719 C51.6669593,73.2436719 51.5192699,73.6000781 52.3645564,75.0077344 C52.5530961,75.3202344 52.7259242,75.6124219 52.8846118,75.8811719 L52.8704713,75.8889844 L50.80439,75.9530469 L50.80439,75.9452344 L39.3081793,76.1532031 L39.1981978,71.2264844 L43.030268,71.2485156 L43.0506932,68.8749219 C43.0506932,68.8749219 44.6440111,70.0766406 44.9942237,70.2061719" id="Fill-69" fill="#CADBE7"></path>
            <path d="M59.9502015,52.1171719 L59.851061,47.4687344 L59.5574104,47.4874844 L59.5574104,46.8624844 L59.5699797,46.8249844 C59.3610148,46.7531094 59.1520499,46.6874844 58.9635102,46.6171719 C58.914647,46.5999844 58.8690832,46.5827969 58.8236765,46.5640469 C58.5298688,46.4452969 58.3523272,46.2234219 58.2516155,45.9734219 C58.0693604,45.9937344 57.9108299,46.0218594 57.8211165,46.0749844 C57.6907098,46.1531094 56.8534362,46.5187344 56.6694529,46.4406094 C56.4856266,46.3624844 55.935719,46.2577969 55.7786026,46.3874844 C55.6214861,46.5187344 54.6787874,47.2999844 54.521671,47.2999844 L54.5483808,47.3312344 C54.5483808,47.3312344 54.4904048,47.5265469 54.4511257,47.6249844 C54.4118466,47.7218594 54.3127061,47.9562344 54.3332884,48.0546719 C54.3441294,48.1077969 54.3834085,48.3827969 54.4431128,48.6671719 C54.491976,48.9015469 54.5563937,49.1421719 54.626939,49.2656094 C54.7840555,49.5390469 55.4723826,50.3390469 55.5509409,50.4562344 C55.6294991,50.5734219 55.7473364,50.9452969 55.7473364,51.1593594 C55.7473364,51.3609219 55.7300536,52.6671719 55.7267542,52.8406094 L60.0081774,52.7546719 L60.4795268,52.7452969 L60.4795268,52.7218594 L59.9502015,52.1171719 Z" id="Fill-70" fill="#CADBE7"></path>
            <polygon id="Fill-71" fill="#CADBE7" points="39.9460878 62.6249844 40.0309307 66.4812344 39.1227976 66.5234219 39.0929455 66.5234219 39.0725203 65.6062344 27.4726128 65.9452969 27.3956257 62.8702969"></polygon>
            <path d="M58.3334575,43.1437187 L49.7391876,43.3155937 L49.7454723,43.9405937 L49.7926072,49.2609062 L49.7988919,49.9327812 C50.5844741,49.6077812 51.0683928,49.4077812 51.1310823,49.3827812 C51.5837348,49.2062187 52.8986423,49.1671562 53.4485499,49.1280937 C53.6435314,49.1140312 54.0221821,48.9202812 54.443097,48.6671562 C54.3833928,48.3827812 54.3441137,48.1077812 54.3332726,48.0546562 C54.3126904,47.9562187 54.4118309,47.7218437 54.45111,47.6249687 C54.4903891,47.5265312 54.5483651,47.3312187 54.5483651,47.3312187 L54.5216553,47.2999687 C54.6787717,47.2999687 55.6214704,46.5187187 55.7785869,46.3874687 C55.9357033,46.2577812 56.4856109,46.3624687 56.6694372,46.4405937 C56.8534205,46.5187187 57.6906941,46.1530937 57.8211007,46.0749687 C57.9108142,46.0218437 58.0693447,45.9937187 58.2515998,45.9734062 C58.3397421,45.9624687 58.434012,45.9530937 58.5281248,45.9452812 C58.8173762,45.9187187 59.0780323,45.2155937 59.1565906,45.0343437 C59.2351488,44.8515312 59.4708235,44.6952812 59.7332079,44.4093437 C59.8543447,44.2765312 59.9768956,43.9905937 60.0711654,43.7077812 C60.1497237,43.4780937 60.2092708,43.2499687 60.2377089,43.1062187 L58.3334575,43.1437187 Z" id="Fill-72" fill="#CADBE7"></path>
            <path d="M51.3904187,60.6515625 C51.3904187,61.2640625 51.393561,61.88125 51.3982745,62.403125 L51.2757237,62.403125 L44.8480896,62.5296875 L44.7632468,58.08125 L44.7836719,58.08125 C44.7836719,58.08125 45.1623226,57.7453125 45.5001229,57.7453125 C45.7499381,57.7453125 48.8671285,57.721875 50.4634316,57.7109375 C51.0196238,57.70625 51.3919898,57.703125 51.3919898,57.703125 C51.3919898,57.703125 51.3872763,59.1639063 51.3904187,60.6515625" id="Fill-73" fill="#CADBE7"></path>
            <path d="M43.4356285,40.528125 L43.4152033,39.5125 L43.3413586,35.8109375 C41.2328558,35.8421875 39.6098429,35.8640625 39.3663124,35.8671875 C39.3773105,36.55 39.3993068,37.7921875 39.4150185,38.75625 L39.7528189,38.73125 L39.7528189,39.4875 L39.4652957,39.4875 L39.4731516,40.096875 L39.4810074,40.834375 L41.0883087,40.215625 L41.0631701,40.7109375 L42.3452403,40.7375 L42.3719501,40.9453125 L43.4450555,40.996875 L43.4356285,40.528125 Z" id="Fill-74" fill="#CADBE7"></path>
            <path d="M49.7925601,49.2608906 L49.7454251,43.9405781 L49.7045749,43.9405781 L48.3156654,44.3312031 L46.8497689,44.3046406 L46.8497689,44.8515156 L45.3053142,44.8249531 L45.3053142,45.3718281 L43.1056839,45.3718281 L43.0789741,45.9718281 C43.0789741,45.9718281 42.4505083,46.1796406 42.084427,46.2843281 C41.7167745,46.3874531 39.6224122,47.0655781 39.6224122,47.0655781 L39.6145564,47.0655781 L39.7528189,53.1062031 L39.735536,53.1077656 L39.744963,53.4905781 L39.7575323,54.1093281 C41.4261091,53.4155781 43.1025416,52.7187031 44.634427,52.0796406 C46.7650832,51.1937031 48.6204713,50.4219844 49.7988447,49.9327656 L49.7925601,49.2608906 Z" id="Fill-75" fill="#CADBE7"></path>
            <polygon id="Fill-76" fill="#CADBE7" points="39.889463 60.0343437 39.7574852 54.1093437 39.7449159 53.4905937 39.7354889 53.1077812 38.4958401 53.1843437 38.4958401 54.0171562 38.4958401 54.5655937 37.4290194 55.0780937 36.8728272 55.3468437 36.9513854 58.9140312 28.4938068 59.1218437 28.4686682 59.1327812 27.3154335 59.6171562 27.3955628 62.8702812 39.946025 62.6249687"></polygon>
            <path d="M43.3414214,35.8109531 C41.2327616,35.8422031 39.6099057,35.8640781 39.3663752,35.8672031 C39.3632329,35.5968906 39.3600906,35.4140781 39.3600906,35.3718906 C39.3600906,35.1375156 39.2563937,33.7843906 39.2563937,33.7843906 L39.1981035,28.9953281 C39.3396654,29.0093906 40.2099335,29.0968906 40.6168651,29.0968906 C40.7347024,29.0968906 41.6962551,29.0843906 43.0521701,29.0656406 C44.1834085,29.0500156 45.5897579,29.0297031 47.0067911,29.0093906 L47.0067911,29.0187656 L47.0067911,29.9812656 L46.0640924,30.0078281 L46.0909593,32.7937656 L46.9282329,32.8203281 L46.9800813,33.7578281 L47.9763567,33.7312656 L47.9763567,34.1484531 L49.0761719,34.6953281 L49.1011534,35.6593906 L49.1028817,35.7234531 C47.1907745,35.7547031 45.0979834,35.7859531 43.3414214,35.8109531" id="Fill-77" fill="#CADBE7"></path>
            <path d="M57.8211479,32.403125 C57.8211479,32.403125 58.1103993,32.8984375 58.0835323,33.2375 L57.9737079,33.240625 C57.9155749,33.2203125 57.860427,33.2109375 57.8211479,33.2109375 C57.6640314,33.2109375 57.324817,33.0546875 57.1926821,32.95 C57.0622754,32.846875 56.6694843,32.690625 56.485658,32.6375 C56.3035601,32.5859375 55.9893272,32.246875 55.9624603,32.065625 C55.9374787,31.8828125 55.883902,31.8828125 55.7000758,31.7 C55.5179778,31.51875 55.6215176,31.075 55.6215176,30.91875 C55.6215176,30.828125 55.673366,30.4125 55.7173586,30.009375 C55.8100573,30.015625 56.245427,30.059375 56.4070998,30.26875 L56.5909261,30.503125 L57.8211479,32.403125 Z" id="Fill-80" fill="#CADBE7"></path>
            <path d="M55.7174214,30.0093281 C55.6734288,30.4124531 55.6215804,30.8280781 55.6215804,30.9187031 C55.6215804,31.0749531 55.5178835,31.5187031 55.7001386,31.6999531 C55.8839649,31.8827656 55.9373845,31.8827656 55.9625231,32.0655781 C55.9892329,32.2468281 56.3034658,32.5858906 56.4857209,32.6374531 C56.6695471,32.6905781 57.0623383,32.8468281 57.1927449,32.9499531 C57.3247227,33.0546406 57.6640943,33.2108906 57.8212107,33.2108906 C57.8604898,33.2108906 57.9154806,33.2202656 57.9736137,33.2405781 C58.1495841,33.2999531 58.3711183,33.4515156 58.3711183,33.7062031 C58.3711183,34.0437031 58.5549445,34.3046406 58.712061,34.5390156 C58.8063309,34.6796406 59.0530037,35.1218281 59.2384011,35.5030781 L57.5886784,35.5421406 C57.136183,35.0187031 56.3710259,34.4577656 55.9766636,34.1358906 C55.4220425,33.6858906 55.0952403,32.4327656 55.044963,31.9312031 C54.9946858,31.4296406 54.7668669,30.5530781 54.6663124,30.3780781 C54.5704713,30.2124531 54.1808226,29.7312031 53.7770333,28.8937031 L54.5217652,28.5233906 L54.5296211,28.5140156 C54.5563309,28.5374531 54.5893253,28.5499531 54.6270333,28.5499531 C54.8108595,28.5499531 54.9931146,28.4452656 55.0983826,28.5499531 C55.2036506,28.6530781 55.7786969,28.9405781 55.7786969,29.2780781 C55.7786969,29.3874531 55.7629852,29.5812031 55.7409889,29.7983906 C55.7331331,29.8671406 55.7252773,29.9374531 55.7174214,30.0093281" id="Fill-81" fill="#CADBE7"></path>
            <path d="M49.8270786,35.7124531 C49.5898327,35.7155781 49.3478734,35.7202656 49.1029288,35.7233906 L49.1012006,35.6593281 L49.076219,34.6952656 L47.9764039,34.1483906 L47.9764039,33.7312031 L46.9801285,33.7577656 L46.92828,32.8202656 L46.0910065,32.7937031 L46.0641396,30.0077656 L47.0068383,29.9812031 L47.0068383,29.0187031 L47.0068383,29.0093281 C50.3424205,28.9624531 53.7361359,28.9140156 53.7361359,28.9140156 L53.7771433,28.8937031 C54.1807754,29.7312031 54.5704242,30.2124531 54.6662652,30.3780781 C54.7668198,30.5530781 54.9947957,31.4296406 55.0449159,31.9312031 C55.0951932,32.4327656 55.4219954,33.6858906 55.9767736,34.1358906 C56.3709787,34.4577656 57.1361359,35.0187031 57.5886312,35.5421406 L54.7841026,35.6062031 C54.7261266,35.6265156 52.5390656,35.6687031 49.8270786,35.7124531" id="Fill-82" fill="#CADBE7"></path>
            <path d="M59.2384168,35.5030937 C59.0530194,35.1218437 58.8063466,34.6796562 58.7119196,34.5390312 C58.5548031,34.3046562 58.3709769,34.0437187 58.3709769,33.7062187 C58.3709769,33.4515312 58.1495998,33.2999687 57.9736294,33.2405937 L58.0834538,33.2374687 C58.1103207,32.8984062 57.8210693,32.4030937 57.8210693,32.4030937 L56.5908475,30.5030937 L56.4070213,30.2687187 C56.2453484,30.0593437 55.8101359,30.0155937 55.7174372,30.0093437 C55.725293,29.9374687 55.7329917,29.8671562 55.7410046,29.7984062 L55.7535739,29.7999687 C55.7535739,29.7999687 56.0142301,29.8249687 56.2499048,29.7999687 C56.4792948,29.7734062 61.9989529,29.5999687 62.2644797,29.5905937 L62.267622,29.6812187 C62.229914,29.7359062 62.2016331,29.7859062 62.1953484,29.8249687 C62.1684815,29.9812187 62.2863189,31.1796562 62.3524649,31.3749687 C62.4167255,31.5702812 62.6131211,31.7390312 62.8095166,31.8171562 C63.0059122,31.8952812 63.2023078,32.0390312 63.2558845,32.1296562 C63.3075758,32.2218437 64.3288327,34.2921562 64.3288327,34.2921562 L64.760903,34.3171562 L65.0358567,33.6921562 L66.5677421,33.6796562 L66.5803115,34.3827812 L65.2448216,34.4093437 L65.2591192,34.6687187 L67.3266146,34.6437187 L67.3266146,35.0343437 L65.2055425,35.0343437 L65.2055425,35.4890312 L64.8663281,35.4890312 L64.8663281,35.0984062 L63.8574834,35.0984062 L63.8574834,35.2937187 L64.5913743,35.2937187 L64.5645074,35.5421562 L63.8700527,35.6202812 L63.8700527,35.7109062 L63.8182043,35.7109062 L62.6398309,35.6062187 C62.6398309,35.6062187 62.0632135,35.5812187 61.9328068,35.7374687 C61.8025573,35.8937187 61.3828993,35.9968437 61.2526497,35.9968437 C61.1205148,35.9968437 60.3349325,35.9718437 60.3349325,35.9718437 C60.3349325,35.9718437 59.890293,35.9968437 59.8117348,36.1015312 C59.7457458,36.1890312 59.5493503,36.4234062 59.4898031,36.4968437 C59.4835185,36.2890312 59.4772338,36.1312187 59.4707921,36.0749687 C59.4615222,35.9812187 59.3625388,35.7562187 59.2384168,35.5030937" id="Fill-85" fill="#CADBE7"></path>
            <path d="M70.8101063,98.0546719 C70.8101063,98.0546719 70.0039418,96.8437344 69.1619547,95.5765469 C68.4139233,94.4484219 67.6393392,93.2765469 67.3802542,92.8718594 C66.8774815,92.0859219 66.768914,91.3671719 66.7140804,90.3734219 C66.7077957,90.2812344 66.7029251,90.1843594 66.6982116,90.0859219 C66.6873706,89.8359219 66.768914,89.4327969 66.9041913,88.9531094 L64.6949769,88.9796719 C64.6604113,89.1999844 63.6847181,95.4124844 63.6235998,95.9984219 L63.6094593,95.9968594 L63.0595518,98.0546719 L63.0562523,98.0656094 C63.0578235,98.0671719 63.0578235,98.0671719 63.0595518,98.0671719 C63.5951617,98.2109219 64.2110582,98.2109219 64.2896165,98.2109219 C64.3681747,98.2109219 66.214293,98.2765469 66.3321303,98.3406094 C66.4499677,98.4062344 66.921317,98.6015469 67.0267421,98.6015469 C67.1302819,98.6015469 67.3802542,98.6140469 67.3802542,98.6140469 C67.628341,98.6406094 68.0337015,98.4577969 68.296086,98.3796719 C68.5586275,98.3015469 68.7943022,98.4062344 69.1085351,98.6140469 C69.422768,98.8234219 69.958378,99.6437344 70.1423614,99.7609219 C70.158073,99.7702969 70.178341,99.7843594 70.2036368,99.7999844 L71.2875832,99.7999844 C71.1918993,98.5609219 70.8101063,98.0546719 70.8101063,98.0546719" id="Fill-88" fill="#CADBE7"></path>
            <path d="M69.6489214,99.6905781 C69.6426368,99.6797969 69.634781,99.6671406 69.625354,99.6546406 C69.5263706,99.5015156 69.3739677,99.2687031 69.2262782,99.0437031 C68.976463,98.6671406 68.5836719,98.6280781 68.3621377,98.6280781 C68.1390323,98.6280781 67.6802523,98.8624531 67.2623226,98.8874531 C66.8428216,98.9140156 66.2662043,98.6530781 65.9912505,98.5749531 C65.7162967,98.4968281 64.5913429,98.4718281 64.3022486,98.4718281 C64.239402,98.4718281 64.1451322,98.4718281 64.0320083,98.4671406 C64.0162967,98.4671406 63.9990139,98.4671406 63.9833022,98.4655781 C63.9174704,98.4626094 63.8466109,98.4593281 63.7743373,98.4546406 L63.7664815,98.4968281 L63.7664815,99.7999531 L69.6960564,99.7999531 L69.7054834,99.7765156 C69.6960564,99.7608906 69.6834871,99.7437031 69.6710749,99.7233906 C69.6646331,99.7126094 69.6567773,99.7015156 69.6489214,99.6905781" id="Fill-89" fill="#CADBE7"></path>
            <path id="Fill-90" fill="#CADBE7"></path>
            <path id="Fill-91" fill="#CADBE7"></path>
            <path d="M62.2644482,29.590625 C61.9989214,29.6 56.4794205,29.7734375 56.2500305,29.8 C56.0143558,29.825 55.7535425,29.8 55.7535425,29.8 C55.7629695,29.58125 55.7786811,29.3875 55.7786811,29.278125 C55.7786811,28.940625 55.2036349,28.653125 55.0983669,28.55 C54.9930989,28.4453125 54.8108438,28.55 54.6270176,28.55 C54.5893096,28.55 54.5563152,28.5375 54.5297625,28.5140625 C54.4227662,28.428125 54.3866294,28.2 54.3646331,28.0546875 C54.3394945,27.871875 53.8414353,27.2734375 53.7110287,27.0125 C53.5790508,26.753125 53.2129695,26.8046875 53.055853,26.8046875 C52.8987366,26.8046875 52.6897717,26.5703125 52.5577939,26.3875 C52.4273872,26.20625 52.348829,25.89375 52.3221192,25.7625 C52.2969806,25.6328125 51.536537,25.26875 51.4061303,25.215625 C51.2757237,25.1640625 51.1186072,24.66875 51.1186072,24.4609375 C51.1186072,24.3609375 50.9946423,24.221875 50.8530804,24.1 L52.6897717,24.0703125 L60.1779418,23.965625 L60.1936534,23.9984375 C60.1543743,24.025 60.1260933,24.0546875 60.1260933,24.0828125 L60.1260933,24.1484375 C60.1260933,24.1484375 60.1260933,24.6828125 60.1653725,24.746875 C60.2046516,24.8125 60.2957791,25.0984375 60.3224889,25.2421875 C60.3491987,25.3859375 60.3350582,25.4640625 60.3884778,25.58125 C60.4403262,25.6984375 60.5707329,25.91875 60.5974427,26.0234375 C60.6241525,26.128125 60.9383854,27.2609375 60.9509547,27.4171875 C60.963524,27.5734375 61.0813614,27.6765625 61.0955018,27.5734375 C61.1080712,27.46875 61.0687921,27.1046875 61.0028031,26.921875 C60.9383854,26.7390625 60.7671285,26.20625 60.7545591,26.0359375 C60.7419898,25.8671875 60.6241525,25.1515625 60.6241525,25.0078125 C60.6241525,24.8640625 60.5581636,24.175 60.6492911,24.1359375 C60.7419898,24.096875 60.9509547,24.0703125 60.9902338,24.175 C61.0295129,24.278125 61.0028031,24.34375 61.0028031,24.434375 C61.0028031,24.5265625 60.9902338,24.8640625 61.0169436,25.034375 C61.0420823,25.203125 61.2259085,25.515625 61.2384778,25.6203125 C61.2526183,25.7234375 61.2777569,25.815625 61.2259085,25.8546875 C61.1740601,25.89375 61.134781,26.0359375 61.1740601,26.140625 C61.2133392,26.2453125 61.4223041,26.8171875 61.4223041,26.8953125 C61.4223041,26.9734375 61.5008623,27.2859375 61.5008623,27.3640625 C61.5008623,27.4421875 61.5794205,27.625 61.6061303,27.7421875 C61.6312689,27.859375 61.6312689,27.9890625 61.6705481,28.0421875 C61.7098272,28.09375 61.9455018,28.40625 62.0774797,28.575 C62.2078863,28.7453125 62.3775721,28.9265625 62.5346885,28.9921875 C62.691805,29.0578125 62.8363521,29.0828125 62.9149104,29.0046875 C62.9934686,28.9265625 63.0845961,28.796875 63.0987366,28.9015625 C63.1113059,29.0046875 63.0327477,29.2 62.9541895,29.2265625 C62.8756312,29.253125 62.7452246,29.253125 62.6666664,29.2921875 C62.6069621,29.321875 62.3869991,29.51875 62.2677477,29.68125 L62.2644482,29.590625 Z" id="Fill-92" fill="#CADBE7"></path>
            <path d="M60.8723336,23.340625 C60.9241821,23.4453125 61.056317,23.6796875 61.0294501,23.73125 C61.0027403,23.784375 60.9777588,23.9265625 60.8723336,23.9265625 C60.7670656,23.9265625 60.5064094,23.940625 60.3885721,23.940625 C60.3224261,23.940625 60.2470102,23.965625 60.1937477,23.9984375 L60.1778789,23.965625 L52.689866,24.0703125 L52.5373059,16.3421875 L54.103914,16.309375 C54.103914,16.309375 54.5216867,17.846875 54.8626294,18.2625 L58.9476571,18.159375 L58.9790804,18.153125 C59.1157717,18.7640625 59.3703004,19.378125 59.4315758,19.5390625 C59.4975647,19.7078125 59.4851525,19.66875 59.4975647,19.7078125 C59.510134,19.746875 60.4009843,21.140625 60.4528327,21.2453125 C60.5064094,21.3484375 60.5456885,21.4265625 60.5064094,21.440625 C60.4671303,21.453125 60.3885721,21.4796875 60.349293,21.4015625 C60.3100139,21.3234375 60.2045887,21.20625 60.1653096,21.2578125 C60.1260305,21.309375 60.0743392,21.4921875 60.0207625,21.4015625 C59.968914,21.309375 59.8243669,21.05 59.8243669,20.9453125 C59.8243669,20.840625 59.8117976,20.6453125 59.7332394,20.59375 C59.6546811,20.5421875 59.3011691,20.45 59.2351802,20.371875 C59.1709196,20.29375 59.0923614,20.190625 59.0530823,20.1375 C59.0138031,20.0859375 58.8690989,20.059375 58.9209473,20.1640625 C58.974524,20.26875 59.1959011,20.528125 59.1709196,20.59375 C59.1440527,20.659375 59.1047736,20.7890625 59.156622,20.8796875 C59.2101987,20.971875 59.2887569,21.20625 59.3673152,21.2703125 C59.4458734,21.3359375 59.4975647,21.3625 59.4975647,21.440625 C59.4975647,21.51875 59.5494131,21.85625 59.6546811,21.9609375 C59.7601063,22.065625 59.863646,22.246875 59.995781,22.15625 C60.1260305,22.065625 60.1921765,21.753125 60.2707348,21.753125 C60.349293,21.753125 60.2957163,21.7390625 60.3617052,21.8828125 C60.4278512,22.0265625 60.5064094,22.46875 60.5706701,22.5984375 C60.636659,22.7296875 60.8206423,23.2375 60.8723336,23.340625" id="Fill-93" fill="#CADBE7"></path>
            <path d="M53.7771223,28.8937213 L54.521671,28.5234219 L54.5296839,28.5140469 C54.4226876,28.4281094 54.3867079,28.1999844 54.3645545,28.0546719 C54.339573,27.8718594 53.8413567,27.2734219 53.7111072,27.0124844 C53.5789723,26.7531094 53.2128909,26.8046719 53.0557745,26.8046719 C52.898658,26.8046719 52.6898503,26.5702969 52.5577153,26.3874844 C52.4273087,26.2062344 52.3487505,25.8937344 52.3220407,25.7624844 C52.2970591,25.6327969 51.5364584,25.2687344 51.4060518,25.2156094 C51.2758022,25.1640469 51.1186858,24.6687344 51.1186858,24.4609219 C51.1186858,24.3609219 50.9945638,24.2218594 50.853159,24.0999844 C50.7023272,23.9718594 50.5310702,23.8624844 50.463353,23.8359219 C50.3331035,23.7843594 50.2276784,23.6796719 50.0188706,23.4452969 C49.9497394,23.3671719 49.8680388,23.2937344 49.7831959,23.2249844 L49.8081774,24.0702969 L48.189878,24.0999844 C50.0485656,25.5421719 52.2986303,27.2952969 52.2986303,27.2952969 C52.2986303,27.2952969 52.2986345,27.2952991 52.2986427,27.2953035 C52.2928993,27.2908261 50.0462259,25.5403511 48.1899251,24.1000156 L41.2203965,24.2265781 L41.1966719,24.2359531 L41.9791118,26.1531406 L42.2147865,26.1531406 L42.2147865,27.5859531 L42.7130028,27.5859531 L42.7646941,28.3672031 L43.0522172,29.0437656 L43.0522172,29.0656406 C44.1834556,29.0500156 45.5896479,29.0297031 47.0068383,29.0093906 C50.3424205,28.9625156 53.7361359,28.9140781 53.7361359,28.9140781 L53.7771433,28.8937656 C53.7771363,28.8937509 53.7771293,28.8937361 53.7771223,28.8937213 Z" id="Combined-Shape" fill="#CADBE7"></path>
            <path d="M49.7831959,23.2249687 C49.6117819,23.0812187 49.4249704,22.9593437 49.2849797,22.8718437 C49.0761719,22.7421562 49.049305,22.5859062 49.049305,22.4030937 C49.049305,22.2218437 48.6565139,21.9609062 48.4726876,21.7780937 C48.3407098,21.6468437 48.1821793,20.8640312 48.0924658,20.2921562 C48.0594713,20.0718437 48.036061,19.8812187 48.0280481,19.7734062 C48.0013383,19.3827812 48.1851645,18.9655937 48.2637227,18.8624687 C48.342281,18.7577812 48.4477061,18.3155937 48.4477061,18.0546562 C48.4477061,17.8234062 48.3848595,16.8296562 48.3532791,16.4296562 L52.5372902,16.3421562 L52.6898503,24.0702812 L50.8561442,24.0968437 L50.853159,24.0999687 C50.7023272,23.9718437 50.5310702,23.8624687 50.463353,23.8359062 C50.3331035,23.7843437 50.2276784,23.6796562 50.0188706,23.4452812 C49.9497394,23.3671562 49.8680388,23.2937187 49.7831959,23.2249687" id="Fill-97" fill="#CADBE7"></path>
            <path d="M49.7831959,23.2249688 C49.6117819,23.0812188 49.4249704,22.9593438 49.2849797,22.8718438 C49.0761719,22.7421563 49.049305,22.5859063 49.049305,22.4030938 C49.049305,22.2218438 48.6565139,21.9609063 48.4726876,21.7780938 C48.3407098,21.6468438 48.1821793,20.8640313 48.0924658,20.2921563 L48.0798965,20.2937188 L43.7106451,20.3687188 L42.0309131,20.3984063 L42.0576229,22.2999688 L40.4204695,22.3327813 L41.1967819,24.2359063 L41.2203494,24.2265313 L48.189878,24.0999688 L49.8081774,24.0702813 L49.7831959,23.2249688 Z" id="Fill-98" fill="#CADBE7"></path>
            <path d="M43.0522015,29.04375 L43.0522015,29.065625 C41.6962865,29.084375 40.7347338,29.096875 40.6168965,29.096875 C40.2099649,29.096875 39.3396969,29.009375 39.1981349,28.9953125 L39.1181627,22.3578125 L40.4205009,22.3328125 L41.1966562,24.2359375 L41.9790961,26.153125 L42.2147708,26.153125 L42.2147708,27.5859375 L42.7129871,27.5859375 L42.7646784,28.3671875 L43.0522015,29.04375 Z" id="Fill-99" fill="#CADBE7"></path>
            <path d="M39.7528346,38.73125 L39.4150342,38.75625 C39.3993226,37.7921875 39.3773262,36.55 39.3663281,35.8671875 C39.3631858,35.596875 39.3600434,35.4140625 39.3600434,35.371875 C39.3600434,35.1375 39.2563466,33.784375 39.2563466,33.784375 L39.1982135,28.9953125 C39.184073,28.9921875 39.1777884,28.9921875 39.1777884,28.9921875 C39.1777884,28.9921875 35.2498771,28.3671875 34.9356442,28.340625 C34.6214113,28.315625 31.7933152,28.340625 31.400524,28.340625 C31.0077329,28.340625 30.3525573,28.3671875 30.0901728,28.2375 C30.0524649,28.21875 29.9471969,28.16875 29.7947939,28.0984375 C28.9117994,27.6890625 26.4513558,26.5703125 26.4513558,26.5703125 L26.4419288,26.5703125 L26.529914,30.346875 L32.5003392,30.2421875 L32.728158,40.33125 L32.7611525,41.8046875 L39.4920213,41.6484375 L39.4810231,40.834375 L39.4731673,40.096875 L39.4653115,39.4875 L39.7528346,39.4875 L39.7528346,38.73125 Z" id="Fill-100" fill="#CADBE7"></path>
            <path d="M39.1180841,22.3578125 L39.1982135,28.9953125 C39.184073,28.9921875 39.1777884,28.9921875 39.1777884,28.9921875 C39.1777884,28.9921875 35.2498771,28.3671875 34.9356442,28.340625 C34.6214113,28.315625 31.7933152,28.340625 31.400524,28.340625 C31.0077329,28.340625 30.3525573,28.3671875 30.0901728,28.2375 C30.0524649,28.21875 29.9471969,28.16875 29.7947939,28.0984375 L29.8026497,28.08125 C29.5936848,27.8984375 29.566975,27.4296875 29.566975,27.4296875 L29.5151266,22.559375 L29.5151266,22.55 L32.3432227,22.49375 L39.1180841,22.3578125 Z" id="Fill-101" fill="#CADBE7"></path>
            <path d="M39.0725046,18.5234219 L39.1180684,22.3577969 L32.343207,22.4937344 L32.343207,22.4812344 L32.237939,18.6281094 L30.3006932,18.6796719 L30.2221349,16.8046719 L30.2472736,16.8046719 L30.1954251,14.5656094 L34.0966266,14.5124844 L34.071488,14.7999844 L35.380268,14.8781094 L35.5373845,14.6687344 L35.9537431,14.6640469 C36.6623383,15.1749844 37.3929298,15.7015469 38.0999538,16.2109219 C38.2979205,16.3546719 38.4958872,16.4968594 38.6891405,16.6359219 L38.6797135,16.6484219 L38.2602126,16.6218594 L39.0725046,18.5234219 Z" id="Fill-102" fill="#CADBE7"></path>
            <path d="M48.4477061,18.0546719 C48.4477061,17.8234219 48.3848595,16.8296719 48.3532791,16.4296719 L41.6916987,16.5702969 L40.041976,15.0859219 L40.0669575,14.6171719 L38.0607375,14.6406094 L37.158732,14.6499844 L35.9538059,14.6640469 C36.6624011,15.1749844 37.3929926,15.7015469 38.1000166,16.2109219 C38.2978262,16.3546719 38.4959501,16.4968594 38.6892033,16.6359219 L38.6797763,16.6484219 L38.2602754,16.6218594 L39.0725675,18.5234219 L39.1181312,22.3577969 L40.4204695,22.3327969 L42.0576229,22.2999844 L42.0309131,20.3984219 L43.7106451,20.3687344 L48.0798965,20.2937344 L48.0924658,20.2921719 C48.0594713,20.0718594 48.036061,19.8812344 48.0280481,19.7734219 C48.0013383,19.3827969 48.1851645,18.9656094 48.2637227,18.8624844 C48.342281,18.7577969 48.4477061,18.3156094 48.4477061,18.0546719" id="Fill-104" fill="#CADBE7"></path>
            <path d="M32.3431913,22.48125 L32.3431913,22.49375 L29.5150952,22.55 L26.3460564,22.6125 L26.3460564,23.6015625 L24.4088105,23.6015625 L24.4088105,22.6640625 L21.0056682,22.71875 L21.0056682,22.6921875 L20.9679603,20.8015625 L20.4636165,20.8015625 L20.4243373,16.98125 L20.4541895,16.9609375 L21.1093651,16.934375 C21.1093651,16.934375 21.4754464,18.340625 21.3968882,18.8625 L25.9014168,18.70625 L28.8080712,16.8046875 L30.2221192,16.8046875 L30.3006774,18.6796875 L32.2379233,18.628125 L32.3431913,22.48125 Z" id="Fill-106" fill="#CADBE7"></path>
            <path d="M29.802634,28.0812188 L29.7947782,28.0984063 C28.9117837,27.6890313 26.4513401,26.5702813 26.4513401,26.5702813 L26.4419131,26.5702813 L26.3727819,23.6015313 L26.3460721,23.6015313 L26.3460721,22.6124688 L29.5151109,22.5499688 L29.5151109,22.5593438 L29.5669593,27.4296563 C29.5669593,27.4296563 29.5936691,27.8984063 29.802634,28.0812188" id="Fill-107" fill="#CADBE7"></path>
            <path d="M71.4908919,86.9346875 L71.4908919,87.9632812 C71.4908919,87.9632812 71.5040896,88.1326562 71.4385721,88.1846875 C71.3730545,88.2367187 71.3076941,88.2759375 71.3076941,88.3279687 C71.3076941,88.38 71.2552172,88.5101562 71.2552172,88.5101562 L70.1946811,88.3929687 L69.4615758,88.4060937 C69.4615758,88.4060937 69.2651802,88.3539062 69.3044593,88.22375 C69.3437384,88.0935937 69.4222967,87.8853125 69.4353373,87.7029687 C69.448378,87.520625 69.4878142,87.1170312 69.540134,86.9998437 C69.5924538,86.8826562 69.6315758,86.6092187 69.7626109,86.6092187 C69.893646,86.6092187 70.6792283,86.8435937 70.7708272,86.8826562 C70.8624261,86.9217187 71.0063447,87.0517187 71.0981007,87.0648437 C71.1898567,87.0779687 71.4908919,86.9346875 71.4908919,86.9346875" id="Fill-112" fill="#CADBE7"></path>
            <path d="M72.9049399,86.505 C72.9049399,86.505 73.3502079,86.426875 73.4025277,86.583125 C73.4548475,86.739375 73.5466035,87.3123438 73.5466035,87.3123438 C73.5466035,87.3123438 73.5334057,87.53375 73.4418068,87.5857813 C73.3502079,87.6378125 73.1538124,87.6639063 73.1145333,87.7029688 C73.0752542,87.7420313 72.9965388,87.7942188 73.0227773,87.8853125 C73.0490157,87.9764063 73.1275739,88.1065625 73.1275739,88.1065625 L73.1145333,88.3540625 L72.1455961,88.393125 C72.1455961,88.393125 72.0015203,88.4971875 72.0407994,88.5753125 C72.0800786,88.6534375 72.1586368,88.7317188 72.1586368,88.78375 C72.1586368,88.8357813 71.8183226,88.8878125 71.8183226,88.8878125 L71.8183226,88.2759375 C71.8183226,88.2759375 72.106317,88.236875 72.1455961,88.15875 C72.1848752,88.080625 72.2896719,87.703125 72.2634335,87.5728125 C72.237195,87.4425 72.0932763,87.195 72.2111137,87.1690625 C72.328951,87.143125 72.4860675,87.15625 72.4860675,87.2603125 C72.4860675,87.364375 72.4991081,87.7290625 72.4991081,87.7290625 L72.6431839,87.7420313 L72.6431839,87.3514063 L73.1013355,87.3384375 L73.1145333,87.0389063 C73.1145333,87.0389063 72.7739048,87.065 72.8263817,86.986875 C72.8788586,86.90875 72.8918993,86.8696875 72.8918993,86.7915625 C72.8918993,86.7134375 72.9049399,86.505 72.9049399,86.505" id="Fill-113" fill="#CADBE7"></path>
            <path d="M84.7802726,92.1171719 C84.7802726,92.1562344 84.89811,92.2473281 84.9636275,92.2734219 C85.0291451,92.2995156 84.9505869,92.6118594 84.9373891,92.7160781 C84.9241913,92.8202969 84.8195518,92.8071719 84.7541913,92.8071719 C84.6888309,92.8071719 84.6101155,93.1327969 84.5708364,93.2109219 C84.5315573,93.2890469 84.5838771,93.5102969 84.5315573,93.5884219 C84.4792375,93.6665469 84.4006793,93.5363906 84.3482024,93.4452969 C84.2957255,93.3542031 84.2042837,93.4973281 84.1780453,93.5754531 C84.1518068,93.6535781 84.0209288,93.6796719 83.9293299,93.6926406 C83.8377311,93.7056094 83.8638124,93.7837344 83.9423706,93.8618594 C84.0209288,93.9399844 84.0471673,93.9790469 83.9946904,94.0702969 C83.9946904,94.0702969 83.8375739,94.0832656 83.7852542,94.0832656 C83.7329344,94.0832656 83.7852542,94.0832656 83.6804575,94.1093594 C83.5756608,94.1354531 83.5365388,94.5259219 83.4840619,94.6692031 C83.431585,94.8124844 83.1044686,95.0207656 82.9734335,95.0598281 C82.8423983,95.0988906 82.4890434,95.2290469 82.3974445,95.2290469 C82.3058457,95.2290469 82.2664094,95.0727969 82.2664094,95.0727969 L82.2140896,94.5390469 C82.2140896,94.5390469 82.201049,94.4609219 82.1748105,94.3176406 C82.1485721,94.1743594 82.0307348,94.4087344 82.0046534,94.5129531 C81.9785721,94.6171719 82.0439325,95.2942031 82.0439325,95.2942031 L81.7820194,95.3462344 L81.7820194,96.6352969 C81.7820194,96.6352969 82.1224908,96.7395156 82.2796072,96.8176406 C82.4367237,96.8957656 82.3188863,97.0910781 82.2664094,97.1952969 C82.2139325,97.2995156 82.0046534,97.3515469 81.9260952,97.4035781 C81.847537,97.4556094 81.8082579,97.7290469 81.8082579,97.7290469 L81.6904205,97.7421719 C81.6904205,97.7421719 81.1667514,96.8567031 80.9964372,96.5832656 C80.8261229,96.3098281 79.9359011,96.0624844 79.9359011,96.0624844 L79.896622,96.9870156 L79.5955869,96.9870156 C79.5955869,96.9870156 79.6086275,96.9348281 79.6086275,96.8698281 C79.6086275,96.8048281 79.7395055,96.7004531 79.7395055,96.6223281 C79.7395055,96.5442031 79.6741451,96.4792031 79.6086275,96.4270156 C79.54311,96.3748281 79.5823891,96.2448281 79.5693484,96.1535781 C79.5563078,96.0623281 79.3074353,96.0104531 79.2288771,95.8801406 C79.1503189,95.7498281 79.1765573,95.4245156 79.189598,95.3723281 C79.2026386,95.3201406 79.2027957,94.7995156 79.2288771,94.7213906 C79.2549584,94.6432656 79.3206331,94.4738906 79.3206331,94.3567031 C79.3206331,94.2395156 79.4384704,93.9792031 79.4777495,93.9270156 C79.5170287,93.8748281 79.7002264,93.5363906 79.7527033,93.3671719 C79.8051802,93.1979531 79.8443022,92.8723281 79.8443022,92.7812344 C79.8443022,92.6901406 80.1715758,92.3645156 80.2370933,92.3124844 C80.3026109,92.2604531 80.3156516,92.1692031 80.3286922,92.0781094 C80.3417329,91.9870156 80.5775647,91.8698281 80.5775647,91.8698281 L81.4677865,91.8957656 L81.7427403,92.2213906 L82.0962523,92.2213906 L82.0832116,91.7785781 L82.2140896,91.7656094 L82.2403281,92.1432656 C82.2403281,92.1432656 82.5807994,92.1042031 82.6461599,92.0520156 C82.7115203,91.9998281 82.685439,91.8046719 82.6723983,91.7135781 C82.6593577,91.6224844 82.6593577,91.2968594 82.6593577,91.1796719 L82.6593577,90.2421719 C82.6593577,90.1510781 82.7247181,89.8385781 82.7639972,89.7213906 C82.8032763,89.6042031 83.4710213,89.0573281 83.6020564,88.9140469 C83.7330915,88.7707656 84.0209288,88.1848281 84.0994871,87.9635781 C84.1780453,87.7423281 84.2042837,88.0417031 84.1912431,88.1327969 C84.1912431,88.1327969 84.0078882,88.6927969 83.8900508,88.8359219 C83.7722135,88.9790469 83.392463,89.3957656 83.3531839,89.4348281 C83.3139048,89.4738906 83.2876664,89.5127969 83.3531839,89.5649844 C83.4187015,89.6171719 83.4579806,89.6171719 83.4710213,89.7473281 C83.4840619,89.8774844 83.431585,90.0468594 83.523341,90.1249844 C83.615097,90.2031094 83.7329344,90.2812344 83.7329344,90.3984219 C83.7329344,90.5156094 83.6804575,90.6587344 83.7982948,90.7238906 C83.9161322,90.7890469 84.0732486,90.8279531 84.0732486,90.8931094 C84.0732486,90.9582656 84.0600508,91.3877969 84.1518068,91.4399844 C84.2435628,91.4921719 84.5053189,91.4921719 84.544598,91.5051406 C84.5838771,91.5181094 84.675476,91.5702969 84.7017144,91.7004531 C84.7279529,91.8306094 84.7802726,92.1171719 84.7802726,92.1171719" id="Fill-115" fill="#CADBE7"></path>
            <path d="M48.353342,16.4296875 L41.6917616,16.5703125 L40.0420388,15.0859375 L40.0670203,14.6171875 L38.0606433,14.640625 C38.0417893,13.959375 38.0245065,13.2984375 38.0245065,13.2375 C38.0245065,13.184375 38.02922,12.9953125 38.0402181,12.7671875 L38.0779261,12.76875 L40.9847375,12.7421875 L40.9847375,13.2890625 L41.2204122,13.2625 L41.2453937,13.6796875 L41.9524177,13.6796875 L41.9524177,12.715625 L42.8165582,12.715625 C42.8165582,12.715625 42.9736747,13.003125 43.1307911,13.028125 C43.2879076,13.0546875 43.864525,13.3671875 44.0485083,13.4453125 C44.2306063,13.5234375 44.7555323,13.70625 44.9376303,13.575 C45.1214566,13.4453125 45.3054399,12.925 45.6982311,12.95 C46.0910222,12.9765625 46.4838133,13.159375 46.4838133,13.159375 L46.5072237,13.153125 C46.5779261,13.4703125 46.6266322,13.6828125 46.6409298,13.73125 C46.719488,13.9921875 47.0587024,14.4875 47.1908373,14.66875 C47.3210869,14.8515625 48.315634,16.05 48.3423438,16.309375 C48.3454861,16.3375 48.3486285,16.3796875 48.353342,16.4296875" id="Fill-78" fill="#FD4141"></path>
            <path d="M52.462,12.559375 L52.5374159,16.3421875 L48.3534048,16.4296875 C48.3485342,16.3796875 48.345549,16.3375 48.3422495,16.309375 C48.3155397,16.05 47.3209926,14.8515625 47.1907431,14.66875 C47.0586081,14.4875 46.7193937,13.9921875 46.6408355,13.73125 C46.6265379,13.6828125 46.5779889,13.4703125 46.5072865,13.153125 C46.3800222,12.575 46.1804843,11.65 45.9872311,10.7421875 L46.0123697,10.7375 L49.4689316,10.684375 L49.4420647,8.73125 L52.3865841,8.6796875 L52.462,12.559375 Z" id="Fill-79" fill="#FD4141"></path>
            <path d="M46.5072237,13.1530938 L46.4838133,13.1593437 C46.4838133,13.1593437 46.0910222,12.9765313 45.6982311,12.9499688 C45.3054399,12.9249687 45.1214566,13.4452813 44.9376303,13.5749688 C44.7555323,13.7062187 44.2306063,13.5234063 44.0485083,13.4452813 C43.864525,13.3671563 43.2879076,13.0546563 43.1307911,13.0280938 C42.9736747,13.0030937 42.8165582,12.7155938 42.8165582,12.7155938 L41.9524177,12.7155938 L41.9524177,13.6796563 L41.2453937,13.6796563 L41.2204122,13.2624688 L40.9847375,13.2890313 L40.9847375,12.7421563 L38.0779261,12.7687187 L38.0402181,12.7671562 C38.0543586,12.4234063 38.0826396,11.9921563 38.1297745,11.8046563 C38.1596266,11.6827813 38.0920665,11.4640313 37.9805139,11.2140313 L37.9993678,11.2062187 L38.0779261,10.7374687 L39.9634806,10.7890313 L39.9884621,9.74684375 C40.6436377,9.46090625 40.9061793,8.83590625 40.9061793,8.83590625 L41.2989704,8.86246875 L42.2933604,7.01246875 L42.2933604,6.99059375 L45.316281,6.96246875 C45.3304214,7.29215625 45.3587024,7.79371875 45.4089797,8.02809375 C45.4466876,8.20309375 45.7106433,9.45465625 45.9871682,10.7421563 C46.1804214,11.6499687 46.3799593,12.5749687 46.5072237,13.1530938" id="Fill-83" fill="#FD4141"></path>
            <path d="M52.3487662,6.80467188 L52.3864741,8.67967188 L49.4421118,8.73123438 L49.4689787,10.6843594 L46.0124168,10.7374844 L45.9872782,10.7421719 C45.7105961,9.45467188 45.4466405,8.20310938 45.4089325,8.02810938 C45.3588124,7.79373438 45.3303743,7.29217188 45.3162338,6.96248438 L45.4874908,6.96092188 L45.7231654,1.23123438 C46.2715018,1.21560938 48.6315481,1.19060938 50.436659,1.17498438 L50.436659,1.17967188 L50.4902357,2.22185938 L51.955975,6.77810938 L52.3487662,6.77342188 L52.3487662,6.80467188 Z" id="Fill-84" fill="#FD4141"></path>
            <path d="M56.2892625,6.72654687 L52.3487819,6.77342187 L51.9559908,6.77810937 L50.4902514,2.22185937 L50.4366747,1.17967187 L50.4366747,1.17498437 C51.6480425,1.16248437 52.6113235,1.15310937 52.6113235,1.15310937 L51.8774325,0.215609375 L54.2233383,0.137484375 C54.2280518,0.146859375 54.231037,0.156234375 54.2341793,0.164046875 C54.3127375,0.359359375 54.4904362,0.690609375 54.4904362,0.846859375 C54.4904362,1.00310937 54.4305749,1.19842187 54.469854,1.31560937 C54.5091331,1.43279687 54.6269704,1.51092187 54.6475527,1.64842187 C54.6662495,1.78435937 54.7261109,2.07810937 54.7840869,2.21404687 C54.8439482,2.35154687 54.8626451,2.82029687 55.0796229,3.03435937 C55.2947153,3.24998437 55.5509723,3.48435937 55.5696691,3.60154687 C55.5902514,3.71873437 55.6482274,3.83592187 55.7473678,3.99217187 C55.8446229,4.14842187 56.1794381,4.49998437 56.1008799,4.53904687 C56.0223216,4.57810937 55.8259261,4.57810937 55.8259261,4.63592187 C55.8259261,4.69529687 55.8259261,5.55467187 55.9231811,5.78904687 C55.9231811,5.78904687 56.1195767,6.36248437 56.1857227,6.49217187 C56.2169889,6.55467187 56.256268,6.64217187 56.2892625,6.72654687" id="Fill-86" fill="#FD4141"></path>
            <path d="M52.3865213,8.67967187 L52.3488133,6.80467187 L52.3488133,6.77342187 L56.2892939,6.72654687 C56.3270018,6.82029688 56.3552828,6.90779687 56.3552828,6.94842187 C56.3552828,7.02654687 56.3821497,7.78123437 56.3821497,7.88592187 C56.3821497,7.98904688 56.4214288,8.65310938 56.4214288,8.77029688 C56.4214288,8.88748438 56.4731201,9.13592187 56.6035268,9.29217187 C56.7356617,9.44842187 57.101586,9.90310938 57.1408651,9.95623437 C57.1801442,10.0077969 57.2587024,10.0984219 57.2319926,10.1640469 C57.2070111,10.2296719 57.035597,10.8406094 57.035597,10.9452969 C57.035597,11.0499844 57.0891738,11.4015469 57.167732,11.5187344 C57.2462902,11.6359219 57.5069464,11.8562344 57.5605231,11.9609219 C57.6075009,12.0546719 57.6954861,12.1062344 57.750634,12.1906094 L57.7426211,12.1952969 L56.8784806,12.5077969 L52.47922,12.5593594 L52.4619372,12.5593594 L52.3865213,8.67967187 Z" id="Fill-87" fill="#FD4141"></path>
            <path d="M60.8849187,15.8546563 C60.9241978,15.9577813 60.9634769,16.0499688 60.8599372,16.1280938 C60.754512,16.2062188 60.3100296,16.4015313 60.2564529,16.4796563 C60.2046044,16.5577813 59.8903715,16.9734063 59.693976,16.9734063 C59.4975804,16.9734063 59.1316562,16.9093438 59.0923771,16.8312188 C59.0717948,16.7905938 59.0325157,16.7140313 59.0230887,16.6577813 C59.01539,16.6062188 59.0309445,16.5718438 59.1047893,16.5968438 C59.2619057,16.6484063 59.5887079,16.7921563 59.760122,16.6749688 C59.9296506,16.5577813 60.1260462,16.3749688 60.0867671,16.2452813 C60.047488,16.1140313 60.0600573,16.0499688 59.8510924,16.0359063 C59.6422847,16.0234063 59.0138189,16.0890313 58.920963,16.1405938 C58.8298355,16.1921563 58.7388651,16.1921563 58.7388651,16.3359063 C58.7388651,16.3812188 58.7467209,16.5046563 58.7638466,16.6734063 C58.7999834,17.0421563 58.8708429,17.6296563 58.9602421,18.0671563 C58.9665268,18.0952813 58.9728115,18.1234063 58.9790961,18.1530938 L58.9476728,18.1593438 L54.8626451,18.2624688 C54.5217024,17.8468438 54.1039298,16.3093438 54.1039298,16.3093438 L52.5373216,16.3421563 L52.4620628,12.5593438 L52.4791885,12.5593438 L56.8784492,12.5077813 L57.7425896,12.1952813 L57.7506026,12.1905938 C57.7584584,12.1999688 57.7647431,12.2109063 57.7692994,12.2218438 C57.8211479,12.3249688 57.9532828,12.7155938 57.9532828,12.9109063 C57.9532828,13.1062188 57.965695,13.8093438 58.319207,14.1218438 C58.672719,14.4343438 60.0082089,15.1905938 60.2438835,15.2030938 C60.4795582,15.2155938 60.5849834,15.1765313 60.649244,15.1640313 C60.7152329,15.1515313 60.7937911,15.0343438 60.7937911,15.1374688 C60.7937911,15.2421563 60.7937911,15.5030938 60.820658,15.6202813 C60.8456396,15.7374688 60.8456396,15.7499688 60.8849187,15.8546563" id="Fill-94" fill="#FD4141"></path>
            <path d="M37.5028799,7.03432812 L36.9246913,7.03901562 L35.0392939,5.86714062 L35.1445619,4.01870312 L34.0965952,3.99214062 L33.9661885,5.19057812 L33.6519556,5.03432812 L32.9716414,3.21089062 L32.2379076,3.15932812 L32.2379076,2.24682812 L31.8451165,2.22182812 L31.7665582,3.10620312 L29.854451,3.08120312 L31.086244,5.03432812 L29.5072237,6.06245312 L29.5150795,6.07495312 L30.0901257,6.44057812 L31.0076858,6.23120312 L31.4256155,5.44995312 L31.793268,6.93432812 L33.416281,7.01245312 L33.4681294,7.63745312 L33.0501996,7.94995312 L33.1538965,8.39370312 L33.4948392,8.49682812 L33.4429908,9.07026562 L34.0447468,9.25307812 L34.4108281,8.91401562 L34.8036192,9.07026562 L35.2498299,8.70620312 L35.5640628,9.43432812 L36.5319002,12.0905781 L36.6104584,13.4968281 L37.1085176,13.4968281 L37.1587948,14.6499531 L38.0606433,14.6405781 C38.0417893,13.9593281 38.0245065,13.2983906 38.0245065,13.2374531 C38.0245065,13.1843281 38.02922,12.9952656 38.0402181,12.7671406 C38.0543586,12.4233906 38.0826396,11.9921406 38.1297745,11.8046406 C38.1596266,11.6827656 38.0920665,11.4640156 37.9805139,11.2140156 L37.9993678,11.2062031 L38.0779261,10.7374531 L39.9634806,10.7890156 L39.9884621,9.74682812 C40.6436377,9.46089062 40.9061793,8.83589062 40.9061793,8.83589062 L41.2989704,8.86245312 L42.2933604,7.01245312 L42.2933604,6.99057812 L37.5028799,7.03432812 Z" id="Fill-103" fill="#FD4141"></path>
            <polygon id="Fill-105" fill="#FD4141" points="37.108549 13.496875 36.6104898 13.496875 36.5319316 12.090625 35.5640943 9.434375 35.2498614 8.70625 34.8036506 9.0703125 34.4108595 8.9140625 34.0447782 9.253125 33.4430222 9.0703125 33.4948706 8.496875 33.1539279 8.39375 33.0502311 7.95 33.4681608 7.6375 33.4163124 7.0125 31.7932994 6.934375 31.2166821 6.934375 31.1899723 7.3 32.1860906 7.8984375 32.1593808 10.7625 30.2472736 10.7890625 30.2457024 10.853125 30.1954251 14.5390625 30.1954251 14.565625 34.0966266 14.5125 34.071488 14.8 35.380268 14.878125 35.5373845 14.66875 35.9537431 14.6640625 37.1588262 14.65"></polygon>
            <polygon id="Fill-108" fill="#FD4141" points="26.5031885 5.89685937 26.5031885 5.91873437 26.4764787 7.48123437 25.7694547 7.48123437 25.7694547 7.06560937 23.3608595 7.14373437 23.4127079 3.26248437 23.8054991 3.26248437 23.7018022 2.32498437 23.4394177 2.14373437 23.4127079 1.33592187 26.3727819 1.30935937 26.3193623 5.89373437"></polygon>
            <polygon id="Fill-109" fill="#FD4141" points="31.189988 7.29996875 31.2166978 6.93434375 31.7933152 6.93434375 31.4256627 5.44996875 31.0077329 6.23121875 30.0901728 6.44059375 29.5151266 6.07496875 29.5072708 6.06246875 29.4884168 6.07496875 28.258195 5.99684375 28.2047754 6.33590625 27.7082874 6.30934375 27.6297292 5.91871875 26.5032043 5.89684375 26.5032043 5.91871875 26.4764945 7.48121875 25.7694704 7.48121875 25.7694704 7.06559375 23.3608752 7.14371875 23.015219 10.3734062 22.7842579 12.5343437 21.6058845 12.5343437 21.6844427 11.9093437 22.0253854 11.9093437 22.0520952 11.4655937 20.847012 11.4655937 20.8988604 10.8155937 21.2665129 10.5812187 22.1039436 10.6062187 22.0772338 10.9968437 22.575293 11.0234062 22.689988 10.3218437 22.7324094 10.0593437 20.579914 9.66403125 20.579914 10.3765312 20.579914 12.7374687 20.579914 12.7421562 21.0826867 12.7421562 21.1345351 13.3937187 22.3914667 13.3937187 22.3914667 13.0812187 23.9626312 13.0546562 23.9626312 14.0187187 24.3554224 14.0187187 24.3554224 13.0546562 26.2675296 12.9765312 26.2675296 14.5390312 30.1954409 14.5390312 30.2457181 10.8530937 30.2472893 10.7890312 32.1593965 10.7624687 32.1861063 7.89840625"></polygon>
            <path d="M20.967976,20.8015625 L20.4636322,20.8015625 L20.424353,16.98125 L20.4542052,16.9609375 L20.4274954,15.1375 L18.542098,15.059375 L18.542098,13.70625 L19.4847967,13.7578125 L19.4847967,14.1484375 L20.3237985,14.1484375 L20.3237985,13.2375 L19.5633549,13.2109375 L19.5633549,12.7421875 L20.5798983,12.7421875 L20.5798983,12.7375 L20.5798983,10.3765625 L20.5798983,9.6640625 L16.4995841,8.9140625 L16.4980129,8.915625 C16.6111368,9.021875 16.6959797,9.1296875 16.6834104,9.2 C16.6567006,9.35625 16.4995841,9.8515625 16.4995841,9.98125 C16.4995841,10.0015625 16.5011553,10.040625 16.5027264,10.09375 C17.0746303,10.3578125 17.6418207,10.534375 18.122597,10.534375 L18.122597,10.5359375 C17.7675139,10.5453125 17.1751848,10.559375 16.5215804,10.575 C16.5278651,10.890625 16.5168669,11.2375 16.4477357,11.3625 C16.317329,11.596875 15.6621534,12.6125 15.5835952,12.79375 C15.5443161,12.884375 15.4798983,12.9796875 15.4500462,13.0765625 C15.4201941,13.175 15.4249076,13.2734375 15.5286044,13.3640625 C15.5301756,13.365625 15.5301756,13.365625 15.5317468,13.3671875 C15.7407116,13.55 15.8459797,13.70625 16.0816543,13.70625 C16.317329,13.70625 16.919085,13.55 16.919085,13.8625 C16.919085,14.175 16.8405268,15.215625 16.7619686,15.371875 C16.6834104,15.528125 16.4995841,16.3875 16.4477357,16.51875 C16.3958872,16.6484375 15.9763863,17.3515625 16.0549445,17.5859375 C16.1020795,17.728125 16.2183457,17.8796875 16.336183,18.00625 L16.3691774,17.9765625 L18.2545749,18.028125 L18.2278651,19.04375 L17.0384935,19.01875 C17.0369224,19.0453125 17.0322089,19.0703125 17.024353,19.096875 C16.919085,19.409375 16.7886784,19.825 16.813817,19.9296875 C16.8405268,20.034375 17.4957024,22.3515625 17.5993993,22.45625 C17.6591035,22.5140625 17.7926525,22.646875 17.9167745,22.79375 L17.9670518,22.76875 L21.0056839,22.71875 L21.0056839,22.6921875 L20.967976,20.8015625 Z" id="Fill-110" fill="#FD4141"></path>
            <path d="M15.4500305,13.0765781 L15.4107514,13.0640781 L14.0108438,13.0734531 L11.8049288,13.0890781 L11.8080712,12.9125156 L13.143561,12.3125156 L12.7853355,10.8812656 L11.9337643,7.47501563 L11.0272024,7.42501563 L11.0020638,6.79845313 L8.73487338,6.27345313 L8.73487338,5.87189063 L7.95400462,5.92189063 L7.22184196,5.37032813 L7.32396765,5.14532813 L8.10483641,5.62189063 L9.7168512,5.64689063 L9.69171257,5.14532813 C9.56916174,5.06095313 9.36019686,4.94689063 9.10566821,4.82032813 C8.2383854,4.41251563 7.23912477,3.99064063 6.56352403,3.71720313 L6.46611183,4.89532813 L5.55954991,4.92032813 L5.55954991,3.99220313 L5.25788632,3.99220313 L5.25788632,4.92032813 L3.71971627,4.97032813 L3.11638909,4.31876563 L2.25853327,4.97032813 L1.47766451,4.92032813 L1.47766451,4.11876563 L1.12572366,4.11876563 L1.12572366,5.94689063 L0.0416201479,5.94689063 L0.0416201479,6.72345313 L0.696795749,6.72345313 C0.696795749,6.72345313 0.344854898,7.37501563 0.29300647,7.95157813 L0.0918974122,7.95157813 L0.192451941,15.5937656 L1.70548336,15.6437656 L1.67877357,16.8968906 L2.78801571,17.0468906 L2.78801571,18.2000156 L3.61916174,18.4500156 L3.61916174,17.2484531 L5.03006747,17.5734531 L5.0552061,18.7515781 C5.0552061,18.7515781 6.3655573,19.1515781 6.89503974,19.2281406 C7.42452218,19.3031406 9.36491035,19.2781406 9.36491035,19.2781406 L9.36491035,17.3234531 C9.91796026,17.2984531 11.7326553,17.6234531 11.7326553,17.6234531 L11.8002153,13.4140781 L13.9589954,13.3859531 L15.5285887,13.3640781 C15.4248919,13.2734531 15.4201784,13.1750156 15.4500305,13.0765781" id="Fill-111" fill="#FD4141"></path>
        </g>
    </g>
</svg>