<?xml version="1.0" encoding="UTF-8" standalone="no"?>
<svg width="84px" height="100px" viewBox="0 0 84 100" version="1.1" xmlns="http://www.w3.org/2000/svg" xmlns:xlink="http://www.w3.org/1999/xlink">
    <!-- Generator: Sketch 41.2 (35397) - http://www.bohemiancoding.com/sketch -->
    <title>South Side</title>
    <desc>Created with Sketch.</desc>
    <defs></defs>
    <g id="Styles-and-Assets" stroke="none" stroke-width="1" fill="none" fill-rule="evenodd">
        <g id="South-Side">
            <path d="M16.1765989,17.9765469 L18.0398152,18.0281094 L18.0134196,19.0437344 L16.8380407,19.0187344 C16.8613309,18.7140469 16.5011091,18.3296719 16.3582625,18.2109219 C16.2977079,18.1593594 16.2200739,18.0874844 16.1439926,18.0062344 L16.1765989,17.9765469 Z" id="Fill-3" fill="#CADBE7"></path>
            <path d="M29.8403401,14.5389062 L25.9586396,14.5389062 L25.9586396,12.9764062 L24.0696488,13.0545312 L24.0696488,14.018125 L23.6814787,14.018125 L23.6814787,13.0545312 L22.1287985,13.080625 L22.1287985,13.393125 L20.8866543,13.393125 L20.8347948,12.7420312 L19.3339741,12.7420312 L19.3339741,13.2107812 L20.0843845,13.236875 L20.0843845,14.1482812 L19.2563401,14.1482812 L19.2563401,13.7576562 L18.324732,13.705625 L18.324732,15.0596875 L20.1879482,15.1378125 L20.2137227,16.9607812 L20.8607246,16.9346875 C20.8607246,16.9346875 21.2229649,18.3409375 21.1453309,18.861875 L25.5963993,18.705625 L28.4688577,16.8045312 L29.8921996,16.8045312 L29.8403401,14.5389062 Z" id="Fill-12" fill="#CADBE7"></path>
            <polygon id="Fill-14" fill="#CADBE7" points="47.5927542 87.455625 48.5760665 87.455625 48.5760665 85.5546875 47.5927542 85.5546875"></polygon>
            <path d="M63.0242529,98.454 C63.247373,98.4694687 63.4411475,98.4711875 63.546264,98.4711875 C63.8310255,98.4711875 64.9436762,98.497125 65.2153952,98.57525 C65.4871142,98.653375 66.0566373,98.9136875 66.4705819,98.88775 C66.8845264,98.8618125 67.3375985,98.6274375 67.557458,98.6274375 C67.7773176,98.6274375 68.1656429,98.6663437 68.4114322,99.044 C68.6062935,99.343375 68.8095394,99.6593125 68.8851549,99.777125 L68.8764599,99.7993125 L63.0160237,99.7993125 L63.0160237,98.4972812 L63.0242529,98.454 Z" id="Fill-16" fill="#CADBE7"></path>
            <path d="M72.4736163,97.7031094 C72.4736163,97.7031094 71.956729,97.0906094 71.801461,96.9093594 C71.646193,96.7265469 71.5031911,96.5437344 71.4521079,96.4015469 C71.4272651,96.3327969 71.4272651,96.1515469 71.4348732,95.9671719 C70.6694018,95.9781094 70.0360636,95.9874844 69.9877752,95.9874844 C69.8621634,95.9874844 69.3823852,95.8202969 69.1943556,95.7359219 C69.0066366,95.6515469 68.3607216,95.5671719 68.3607216,95.5671719 L68.3483002,95.5765469 C69.1803815,96.8437344 69.9770617,98.0546719 69.9770617,98.0546719 C69.9770617,98.0546719 70.354363,98.5609219 70.4489213,99.7999844 L73.630363,99.7999844 C73.6258603,99.6062344 73.5899933,99.3984219 73.5482262,99.2781094 C73.4705922,99.0577969 72.4736163,97.7031094 72.4736163,97.7031094" id="Fill-17" fill="#CADBE7"></path>
            <path d="M80.9217804,97.4531719 C80.8722499,97.5483281 80.8458543,97.7297344 80.8458543,97.7297344 L80.7294033,97.7422344 C80.7294033,97.7422344 80.2123608,96.8562969 80.0429634,96.5828594 C79.8754292,96.3094219 78.9949043,96.0625469 78.9949043,96.0625469 L78.9560872,96.9875469 L78.6596806,96.9875469 C78.6596806,96.9875469 78.672102,96.9344219 78.672102,96.8703594 C78.672102,96.8047344 78.8008192,96.7000469 78.8008192,96.6219219 C78.8008192,96.5437969 78.7373146,96.4797344 78.672102,96.4266094 C78.6067342,96.3750469 78.6455512,96.2453594 78.633285,96.1531719 C78.6208636,96.0625469 78.3738322,96.0109844 78.2961982,95.8797344 C78.2185641,95.7500469 78.245115,95.4250469 78.2573811,95.3719219 C78.2715105,95.3203594 78.2715105,94.8000469 78.2961982,94.7219219 C78.322749,94.6437969 78.3879616,94.4734844 78.3879616,94.3562969 C78.3879616,94.2391094 78.5044126,93.9797344 78.5432296,93.9266094 C78.5820466,93.8750469 78.7620022,93.5359844 78.8149486,93.3672344 C78.8661871,93.1984844 78.9050041,92.8719219 78.9050041,92.7812969 C78.9050041,92.6906719 79.2278063,92.3641094 79.2931741,92.3125469 C79.3583867,92.2609844 79.3708081,92.1687969 79.3830743,92.0781719 C79.3972037,91.9875469 79.6301057,91.8703594 79.6301057,91.8703594 L80.5087675,91.8953594 L80.6655882,92.0844219 L80.9234884,91.3359844 L80.8953848,87.2719219 L80.8612259,87.2719219 L79.9018248,87.2719219 L79.8597471,89.1000469 L77.9810041,89.1000469 L77.9810041,89.5608281 L77.0417878,89.5828594 L77.0338691,89.5828594 L77.0633701,91.9764531 C77.0633701,91.9764531 76.8956806,92.8998906 76.8118359,93.1312969 C76.7295438,93.3623906 76.7700688,93.7608281 76.7700688,93.7608281 L77.1037397,95.9873906 L75.5805604,94.7281719 L74.7871409,93.1312969 L74.7731667,93.1155156 C74.650505,93.2219219 74.534054,93.3156719 74.506261,93.3281719 C74.4703941,93.3420781 74.3649671,93.4000469 74.2685457,93.4608281 L74.2873331,93.4891094 L74.2452555,95.9250469 C74.2452555,95.9250469 72.9611889,95.9437969 71.8028895,95.9625469 C71.7671778,96.0842656 71.7454403,96.2592656 71.8913922,96.4531719 C72.0996067,96.7266094 73.7157915,98.9016094 73.7934255,99.0312969 C73.8710595,99.1609844 73.9240059,99.3172344 73.9240059,99.4484844 C73.9240059,99.5670781 73.9021131,99.7859844 73.9580096,99.8000469 L73.9752444,99.8000469 C74.0528784,99.7734844 74.1305124,99.6687969 74.2592296,99.6172344 C74.38981,99.5656719 74.4921316,99.5000469 74.5574994,99.4344219 C74.622712,99.3703594 74.739163,99.2531719 74.8414847,99.2922344 C74.9456695,99.3312969 75.1009375,99.5000469 74.9579357,99.5516094 C74.816797,99.6047344 74.6351335,99.6172344 74.5574994,99.6687969 C74.5169745,99.6967656 74.4224163,99.7483281 74.3368636,99.8000469 L80.9498839,99.8000469 L80.9498839,97.4562969 L80.9217804,97.4531719 Z" id="Fill-18" fill="#CADBE7"></path>
            <path d="M58.0446055,85.3608906 L58.0088939,83.4077656 L59.8457146,83.3874531 L59.819319,81.3860469 C61.1375445,81.2968281 61.4699734,80.4843281 61.5490048,79.9749531 C61.5567682,80.6218281 61.7353264,81.8046406 62.9386536,81.8046406 C64.058136,81.8046406 64.7987645,81.7687031 65.1620917,81.7452656 L63.9354743,88.9733906 C63.9354743,88.9733906 63.9354743,88.9749531 63.9339216,88.9796406 L58.1129235,89.0515156 L58.0446055,85.3608906 Z" id="Fill-19" fill="#CADBE7"></path>
            <path d="M61.5676991,79.5655937 C61.5676991,79.5655937 61.5458063,79.7327812 61.5490669,79.9749687 C61.4698802,80.4843437 61.1374514,81.2968437 59.8192259,81.3859062 L59.7696954,77.5702812 L59.7370891,75.1374687 C59.8690669,75.3327812 60.7368599,76.606375 60.9309449,76.8765312 C61.1390041,77.1702812 61.4729856,77.5062187 61.4729856,77.5062187 L61.5102499,77.5048125 C61.5444089,78.7405937 61.5676991,79.5655937 61.5676991,79.5655937" id="Fill-20" fill="#CADBE7"></path>
            <path d="M65.5425139,79.5015156 L65.1621072,81.7452656 C64.79878,81.7687031 64.0581516,81.8046406 62.9386691,81.8046406 C61.735342,81.8046406 61.5567837,80.6218281 61.5490203,79.9749531 C61.5864399,79.7374531 61.5676525,79.5655781 61.5676525,79.5655781 C61.5676525,79.5655781 61.5443623,78.7405781 61.5102033,77.5047969 L62.2865434,77.4860469 C62.2865434,77.4860469 62.7461368,77.5062031 62.9961183,77.6733906 C63.2150462,77.8202656 64.9773383,79.0921406 65.4338262,79.4233906 C65.5036969,79.4733906 65.5425139,79.5015156 65.5425139,79.5015156" id="Fill-21" fill="#CADBE7"></path>
            <path d="M74.2685922,93.4608594 L74.2872244,93.4891406 L74.245302,95.9250781 C74.245302,95.9250781 72.9612355,95.9438281 71.802936,95.9625781 C71.8153575,95.9125781 71.832437,95.8702344 71.8402004,95.8407031 C71.8665959,95.7374219 72.2019749,95.3592969 72.2283704,95.3077344 C72.254766,95.2547656 72.3836384,95.1905469 72.5513279,95.1514844 C72.7205701,95.1124219 72.7205701,95.0594531 72.7205701,95.0594531 C72.7982041,95.0203906 72.7842299,94.8641406 72.7982041,94.7733594 C72.8106255,94.6827344 73.1863741,94.3702344 73.2251911,94.3436719 C73.2640081,94.3171094 73.5357272,94.1749219 73.6382041,94.1217969 C73.7422336,94.0702344 74.0403482,93.6796094 74.0915867,93.6014844 C74.1148769,93.5655469 74.1894055,93.5124219 74.2685922,93.4608594" id="Fill-22" fill="#CADBE7"></path>
            <path d="M71.3479231,95.3328125 C71.3479231,95.3328125 71.4785035,95.3859375 71.4643741,95.503125 C71.4581634,95.5639062 71.4412392,95.7671875 71.4348732,95.9671875 C70.6694018,95.978125 70.0360636,95.9873437 69.9877752,95.9873437 C69.8621634,95.9873437 69.3823852,95.8203125 69.1943556,95.7359375 C69.0066366,95.6515625 68.3607216,95.5671875 68.3607216,95.5671875 L68.3483002,95.5765625 C67.6090691,94.4484375 66.8435978,93.2765625 66.5875608,92.871875 C66.0907031,92.0859375 65.9834129,91.3671875 65.9292244,90.3734375 L66.3173945,90.3515625 C66.3250026,90.4734375 66.3576089,90.7234375 66.3793464,90.815625 C66.405742,90.91875 66.599827,91.51875 66.6898824,91.5578125 C66.7816458,91.596875 67.0780525,91.675 67.1820821,91.7390625 C67.2862669,91.8046875 67.557986,91.85625 67.63562,91.909375 C67.713254,91.9609375 68.2813797,92.246875 68.3467475,92.2734375 C68.4119601,92.3 68.5408325,92.378125 68.5408325,92.378125 L68.5408325,92.78125 L67.4926181,92.3390625 L67.3639009,92.6375 L68.5672281,93.171875 L68.5672281,93.640625 L67.907339,93.575 L67.907339,93.7453125 L68.5919157,94.03125 L68.5919157,94.175 L71.3479231,95.3328125 Z" id="Fill-23" fill="#CADBE7"></path>
            <path d="M77.2512909,84.4999844 L76.9795719,85.0249844 L77.0339157,89.5827969 L77.0634166,91.9765469 C77.0634166,91.9765469 76.8957272,92.8999844 76.8118824,93.1312344 C76.7295904,93.3624844 76.7699601,93.7609219 76.7699601,93.7609219 L77.1037863,95.9874844 L75.580607,94.7281094 L74.7871874,93.1312344 L74.7732133,93.1156094 C74.9160599,92.9921719 75.0713279,92.8562344 75.113095,92.8202969 C75.190729,92.7546719 75.4889989,92.5468594 75.5930285,92.4687344 C75.6953501,92.3906094 75.7219009,92.1296719 75.7341671,92.0515469 C75.7482965,91.9734219 76.0200155,91.8437344 76.1223372,91.7531094 C76.226522,91.6609219 75.954803,91.5312344 75.8506181,91.4406094 C75.7482965,91.3484219 75.7729841,91.1796719 75.7729841,91.1796719 L75.7729841,87.3515469 L75.7715867,87.3249844 C75.770034,87.2999844 75.7669287,87.2484219 75.7607179,87.1437344 C75.7482965,86.9343594 75.5788991,86.4406094 75.5012651,86.2187344 C75.4236311,85.9968594 75.7094795,85.6062344 75.7871135,85.5281094 C75.8647475,85.4499844 76.0058861,85.3593594 76.5881412,84.9812344 C76.8351726,84.8218594 76.9423076,84.6327969 76.9842299,84.4499844 L77.021339,84.4577969 L77.2512909,84.4999844 Z" id="Fill-24" fill="#CADBE7"></path>
            <path d="M77.2916296,79.1656719 L77.3257885,79.1672344 C77.3149198,79.3467656 77.3011009,79.4873906 77.3011009,79.4873906 C77.3011009,79.4873906 77.2747054,79.5516094 77.3011009,79.6436406 C77.3257885,79.7344219 77.3523394,79.7998906 77.3523394,79.8780156 C77.3523394,79.9561406 77.3135224,80.1250469 77.3135224,80.1641094 C77.3135224,80.1780156 77.3149198,80.2702031 77.3180251,80.3873906 C76.9764355,80.0748906 76.6783209,79.7984844 76.6023948,79.7217656 C76.5323689,79.6500469 76.3491527,79.4358281 76.1519623,79.1984844 L76.8755113,79.1781719 L77.2916296,79.1656719 Z" id="Fill-25" fill="#CADBE7"></path>
            <path d="M70.5981183,88.184375 C70.6633309,88.1328125 70.6492015,87.9640625 70.6492015,87.9640625 L70.6492015,86.934375 C70.6492015,86.934375 70.3527948,87.078125 70.2610314,87.065625 C70.1711312,87.0515625 70.0281294,86.921875 69.9382292,86.8828125 C69.8481738,86.84375 69.0718336,86.609375 68.9412532,86.609375 C68.812536,86.609375 68.773719,86.8828125 68.7224806,87 C68.6695342,87.1171875 68.6307172,87.5203125 68.618451,87.703125 C68.6060296,87.8859375 68.5283956,88.09375 68.4895786,88.2234375 C68.4507616,88.3546875 68.6448466,88.40625 68.6448466,88.40625 L69.3682403,88.39375 L70.4162994,88.5109375 C70.4162994,88.5109375 70.4692458,88.3796875 70.4692458,88.328125 C70.4692458,88.2765625 70.5327505,88.2375 70.5981183,88.184375 M72.5777856,87.5859375 C72.6676858,87.534375 72.6818152,87.3125 72.6818152,87.3125 C72.6818152,87.3125 72.5900518,86.7390625 72.5389686,86.5828125 C72.4877301,86.4265625 72.0466137,86.5046875 72.0466137,86.5046875 C72.0466137,86.5046875 72.0343475,86.7140625 72.0343475,86.7921875 C72.0343475,86.8703125 72.0219261,86.909375 71.9689797,86.9875 C71.9178965,87.065625 72.2548281,87.0390625 72.2548281,87.0390625 L72.2406987,87.3390625 L71.789024,87.3515625 L71.789024,87.7421875 L71.6461774,87.7296875 C71.6461774,87.7296875 71.633756,87.3640625 71.633756,87.2609375 C71.633756,87.15625 71.478488,87.14375 71.362037,87.16875 C71.245586,87.1953125 71.3867246,87.4421875 71.4132754,87.5734375 C71.439671,87.703125 71.3356414,88.08125 71.2968244,88.159375 C71.2580074,88.2375 70.9738669,88.2765625 70.9738669,88.2765625 L70.9738669,88.8875 C70.9738669,88.8875 71.3090906,88.8359375 71.3090906,88.784375 C71.3090906,88.73125 71.2314566,88.653125 71.1926396,88.575 C71.1538226,88.496875 71.2968244,88.39375 71.2968244,88.39375 L72.2548281,88.3546875 L72.2672495,88.10625 C72.2672495,88.10625 72.1896155,87.9765625 72.1630647,87.8859375 C72.1383771,87.79375 72.2160111,87.7421875 72.2548281,87.703125 C72.2936451,87.6640625 72.4877301,87.6375 72.5777856,87.5859375 M66.1170832,88.953125 C66.4818078,87.6375 67.2441738,85.753125 67.584366,84.9390625 L67.5873161,84.940625 L68.9024362,83.659375 L68.924329,83.1765625 L69.2362625,83.1765625 C69.2362625,83.1765625 69.3202625,81.096875 69.3202625,80.7828125 C69.3202625,80.4671875 69.1741553,79.4796875 69.1741553,79.4796875 C69.1741553,79.4796875 69.1555231,79.440625 69.1213641,79.3703125 C69.0935712,79.3125 69.0547542,79.23125 69.0081738,79.1328125 L69.0283586,79.1234375 L73.0342736,79.08125 L73.0140887,79.290625 L76.1519002,79.1984375 C76.3490906,79.4359375 76.5324621,79.65 76.6023327,79.721875 C76.6782588,79.7984375 76.9763734,80.075 77.317963,80.3875 C77.3241738,80.5984375 77.3351978,80.8921875 77.3522773,80.9578125 C77.3786728,81.0625 77.3786728,81.609375 77.3786728,81.7140625 C77.3786728,81.8171875 77.3786728,82.3515625 77.2746433,82.546875 C77.1704584,82.7421875 76.8599224,83.0546875 76.8088392,83.1328125 C76.7576007,83.2109375 76.7046543,83.484375 76.7046543,83.6796875 C76.7046543,83.875 76.8740518,84.421875 76.6535712,84.64375 C76.4329353,84.8640625 76.0059482,85.125 75.8894972,85.1765625 C75.7730462,85.2296875 75.6177782,85.3984375 75.566695,85.4890625 C75.5154566,85.58125 75.1907911,86.0359375 75.2825545,86.284375 L75.37261,86.53125 C75.37261,86.53125 75.4766396,86.9875 75.489061,87.2609375 L75.5013272,87.534375 L75.4766396,91.8828125 C75.4766396,91.8828125 75.489061,92.090625 75.3213715,92.246875 C75.1519741,92.403125 74.3509464,93.015625 74.2857338,93.09375 C74.220366,93.171875 73.5482107,93.6921875 73.4969723,93.7453125 C73.4440259,93.796875 73.3153087,94.0046875 73.2252532,94.01875 C73.1334898,94.03125 72.9782218,94.01875 72.9271386,94.0703125 C72.8759002,94.121875 72.5653641,94.590625 72.4489131,94.6828125 C72.4489131,94.6828125 72.3183327,94.7734375 72.1771941,94.8390625 C72.0343475,94.903125 71.633756,94.903125 71.2580074,94.8640625 C70.8821035,94.825 70.1198928,94.4484375 69.8869908,94.2921875 C69.6540887,94.1359375 69.5376377,93.9921875 69.4846913,93.8875 C69.4336081,93.784375 69.2659187,92.246875 69.2659187,92.246875 L70.1587098,91.85625 L70.1587098,91.5703125 L69.2007061,91.7921875 L69.2007061,91.4265625 L70.5080628,90.91875 L70.5080628,90.659375 L69.2271017,91.1015625 L69.2271017,90.75 L70.5080628,90.3078125 L70.5080628,90.034375 L69.0842551,90.503125 L69.0842551,90.2421875 L70.5327505,89.6828125 L70.5327505,89.35625 L69.0965213,89.8390625 L69.0965213,89.578125 L70.5204843,89.04375 L70.5204843,88.6796875 L69.3823697,88.5625 L67.3250684,88.55 L67.1820665,88.9921875 L68.2566765,89.5125 L68.2566765,90.1515625 L67.8807726,90.046875 L66.6898669,90.046875 L66.6898669,90.203125 L67.2985176,90.5421875 L67.233305,90.659375 L66.5609945,90.3203125 L66.4833604,90.0734375 C66.4833604,90.0734375 66.3158262,90.215625 66.3158262,90.3078125 C66.3158262,90.31875 66.3158262,90.334375 66.3173789,90.3515625 L65.9292089,90.3734375 C65.9229982,90.28125 65.9181848,90.184375 65.9135268,90.0859375 C65.9028133,89.8359375 65.9833974,89.4328125 66.1170832,88.953125" id="Fill-26" fill="#CADBE7"></path>
            <path d="M80.8752311,84.2640937 L80.8954159,87.2719062 L80.8612569,87.2719062 L79.9017006,87.2719062 L79.8597782,89.1000312 L77.9810351,89.1000312 L77.9810351,89.5608125 L77.0416636,89.5828437 L77.0339002,89.5828437 L76.9795564,85.0250312 L77.2512754,84.5000312 L77.0214787,84.4578437 L76.9842144,84.449875 C77.0416636,84.2015937 76.976451,83.9594062 76.976451,83.8094062 C76.976451,83.5500312 76.9904251,83.3547187 77.054085,83.2109687 C77.1192976,83.0672187 77.4034381,82.7812812 77.5587061,82.4031562 C77.7139741,82.0265937 77.6363401,81.4265937 77.6363401,81.3234687 C77.6363401,81.2608125 77.6037338,80.9109687 77.5773383,80.6250312 C77.9732717,80.9859687 78.3692052,81.3422187 78.5167098,81.4656562 C78.7542699,81.6656562 80.1749723,83.331125 80.8752311,84.2640937" id="Fill-27" fill="#CADBE7"></path>
            <path d="M81.0787098,83.0562031 L81.0787098,83.4718281 L80.8722033,83.7312031 L80.8753087,84.2640156 C80.1750499,83.3312031 78.7541922,81.6657344 78.5167874,81.4655781 C78.3692828,81.3421406 77.9733494,80.9858906 77.5772606,80.6249531 C77.5603364,80.4344844 77.5463623,80.2733906 77.5463623,80.2421406 C77.5463623,80.1640156 77.5586285,79.9030781 77.5586285,79.8390156 C77.5586285,79.7733906 77.5075453,79.5124531 77.4951238,79.3952656 C77.4809945,79.2780781 77.5463623,78.9140156 77.5463623,78.9140156 L77.9997449,78.9140156 L77.9997449,78.5749531 L77.6628133,78.3280781 C77.6892089,78.1718281 77.9467985,77.9765156 77.9467985,77.9765156 L79.9918336,76.7780781 L80.8846248,77.0124531 C80.8846248,77.0124531 80.9622588,77.2218281 80.974525,77.4030781 C80.9886543,77.5858906 81.0010758,79.3046406 81.0010758,79.3827656 C81.0010758,79.4608906 80.9357079,79.6296406 80.9110203,79.6952656 C80.8846248,79.7608906 80.8069908,79.9030781 80.8069908,79.9562031 C80.8069908,80.0077656 80.7804399,80.3327656 80.8458078,80.4108906 C80.9110203,80.4890156 81.013342,80.5812031 80.9886543,80.6327656 C80.9622588,80.6843281 80.8722033,80.7374531 80.7945693,80.7499531 C80.7169353,80.7624531 80.4964547,80.8671406 80.4452163,80.8937031 C80.3922699,80.9187031 80.3023697,81.0108906 80.3023697,81.1140156 C80.3023697,81.2187031 80.3675823,81.6874531 80.4452163,81.7780781 C80.5228503,81.8702656 80.6251719,82.0265156 80.5740887,82.0780781 C80.5228503,82.1296406 80.2758189,82.3780781 80.3287652,82.4562031 C80.3800037,82.5343281 80.5087209,82.5858906 80.5616673,82.6515156 C80.6129057,82.7155781 80.9110203,83.0812031 81.0398928,83.0671406 C81.0506063,83.0657344 81.0630277,83.0624531 81.0787098,83.0562031" id="Fill-28" fill="#CADBE7"></path>
            <path d="M58.1129856,89.0515312 L63.9338285,88.9796562 C63.8998248,89.1999687 62.9356104,95.4124687 62.8750558,95.9984062 L62.8610817,95.9968437 L62.6792628,95.9968437 L62.6513146,95.9890312 C62.7227379,95.7046562 62.6669967,95.3468437 62.6669967,95.3468437 C62.6669967,95.3468437 62.6669967,95.2937187 62.5893627,95.1124687 C62.5117287,94.9296562 61.9029227,94.9171562 61.7353885,94.9812187 C61.5659911,95.0468437 60.6873294,95.9062187 60.4666935,96.0890312 C60.2462129,96.2702812 59.9498063,96.4015312 59.7804089,96.4140312 C59.6127194,96.4265312 57.2326159,96.3749687 57.2326159,96.3749687 L57.1719061,96.3812187 L57.1672481,96.3359062 L57.1408525,94.9296562 L58.2277287,94.9030937 L58.1764902,93.0280937 L54.1738359,93.0280937 C54.1738359,92.9968437 54.1753885,92.9673125 54.1783386,92.9390312 C54.1783386,92.9345 54.1783386,92.9296562 54.1800466,92.9249687 C54.1815993,92.8999687 54.1845494,92.8702812 54.1862573,92.8374687 C54.1862573,92.8280937 54.1862573,92.8187187 54.18781,92.8110625 C54.1907601,92.7734062 54.1940207,92.7437187 54.1969708,92.7202812 C54.2126529,92.6077812 54.215603,92.2843437 54.2126529,91.8735625 L54.2126529,91.8640312 C54.2171556,91.4937187 54.2171556,91.1796562 54.2171556,91.1796562 L54.2048895,91.1796562 C54.192468,90.4312187 54.1722832,89.6234062 54.1722832,89.262625 C54.1722832,89.2093437 54.1738359,89.1546562 54.1783386,89.0968437 L54.2111002,89.100125 L58.1129856,89.0515312 Z" id="Fill-29" fill="#CADBE7"></path>
            <path d="M59.8456525,83.3874687 L59.8192569,81.3859062 L59.7697264,77.5704375 L59.7400702,77.5704375 L57.8412976,77.5484062 L57.8412976,77.2343437 L56.9856155,77.6530937 L57.235597,76.7296562 L53.647353,76.7515312 L53.647353,77.2343437 L53.0200702,77.212625 L53.0155675,77.2155937 C53.1242551,77.4171562 53.1910203,77.5530937 53.2096525,77.6124687 C53.2716044,77.7999687 55.4205139,83.4718437 55.4205139,83.4718437 L54.8631017,85.4249687 L55.7698669,85.4062187 L58.0445434,85.3609062 L58.0089871,83.4077812 L59.8456525,83.3874687 Z" id="Fill-30" fill="#CADBE7"></path>
            <path d="M58.6191283,71.8983594 C58.6377604,72.3155469 58.664156,72.6891406 58.6967623,72.7811719 L58.7184998,73.8108594 L59.7199786,73.8311719 L59.737058,75.1374219 L59.7696643,77.5703906 L59.7401634,77.5703906 L57.8412355,77.5483594 L57.8412355,77.2342969 L56.9855534,77.6530469 L57.2356902,76.7296094 L53.6472909,76.7516406 L53.6472909,77.2342969 L53.0200081,77.2125781 L53.0155054,77.2155469 C52.8509213,76.9092969 52.5916237,76.4500781 52.2624555,75.8811719 C52.1056348,75.6124219 51.9348399,75.3202344 51.7485183,75.0077344 C50.9131763,73.6000781 51.0591283,73.2436719 51.0591283,73.2436719 C51.0591283,73.2436719 51.0513649,71.8016406 51.0420488,70.1157031 C52.7808954,70.0811719 54.5247105,70.0483594 55.7916976,70.0233594 C56.9405257,70.0014844 57.6952835,69.9874219 57.6952835,69.9874219 L57.7168658,70.5342969 L58.5725479,70.5141406 L58.5725479,70.5342969 C58.5725479,70.5342969 58.5880747,71.2671094 58.6191283,71.8983594" id="Fill-31" fill="#CADBE7"></path>
            <path d="M66.8995874,74.607875 C66.4819165,73.6000625 66.6480532,73.11725 66.6480532,73.11725 L66.9197723,71.7733437 L66.9197723,71.7563125 L61.3534137,71.8514687 L58.6191438,71.8983437 C58.637776,72.3155312 58.6641715,72.689125 58.6967778,72.7811562 L58.7185153,73.8108437 L59.7199941,73.8311562 L59.7370736,75.1375625 C59.8690514,75.332875 60.7369996,76.6063125 60.9310847,76.876625 C61.1389885,77.1702187 61.4729701,77.5063125 61.4729701,77.5063125 L61.5102344,77.50475 L62.2865745,77.486 C62.2865745,77.486 62.7461678,77.5063125 62.9959941,77.6733437 C63.2150773,77.8202187 64.9773693,79.0920937 65.4338573,79.4233437 L65.4385153,79.4170937 L66.2319349,75.6155312 L67.3405486,75.5936562 C67.1480163,75.176625 66.9896429,74.8250625 66.8995874,74.607875" id="Fill-32" fill="#CADBE7"></path>
            <path d="M76.8479667,79.1581875 L73.0140887,79.2906875 L73.0342736,79.0813125 L69.0283586,79.1233438 L69.0081738,79.132875 C68.6665841,78.4188125 67.8714566,76.7530312 67.3404399,75.5938125 L72.430281,75.4905313 L73.0730906,75.4667812 C74.8183031,77.1636563 75.867915,78.2011562 75.867915,78.2011562 C75.867915,78.2011562 76.4888318,78.77725 76.8479667,79.1581875" id="Fill-33" fill="#CADBE7"></path>
            <path d="M69.1741708,79.4796875 C69.1741708,79.4796875 69.1555386,79.440625 69.1213797,79.3703125 L69.1106662,79.375 L65.5424518,79.5015625 L65.1620451,81.7453125 L63.935583,88.9734375 C63.935583,88.9734375 63.935583,88.975 63.933875,88.9796875 L66.1169434,88.953125 C66.4818233,87.6375 67.2441893,85.753125 67.5843815,84.9389062 L67.5873316,84.940625 L68.9024518,83.659375 L68.9243445,83.1765625 L69.236278,83.1765625 C69.236278,83.1765625 69.3201227,81.096875 69.3201227,80.7828125 C69.3201227,80.4671875 69.1741708,79.4796875 69.1741708,79.4796875" id="Fill-34" fill="#CADBE7"></path>
            <path d="M80.0041153,74.5781094 L80.1859342,76.3234219 C80.1859342,76.3234219 80.1471172,76.4265469 79.9652983,76.5437344 C79.7853427,76.6609219 77.7280414,77.7687344 77.597461,77.9890469 C77.4687438,78.2109219 77.3398713,78.4577969 77.3398713,78.7702969 C77.3398713,78.8984219 77.3336606,79.0421719 77.325742,79.1671719 L77.291583,79.1656094 L76.87562,79.1782656 L76.87562,79.1656094 L69.2486994,71.7406094 L69.2783556,71.7093594 L75.4345774,71.6265469 L76.4779786,70.7640469 L76.79162,71.1015469 L77.2092909,70.8281094 L77.2263704,70.8343594 C77.224973,70.8359219 77.2234203,70.8390469 77.2234203,70.8406094 C77.1846033,70.9843594 77.1970248,71.5312344 77.3398713,71.5702969 C77.48101,71.6093594 77.6892244,71.5702969 77.7668584,71.5827969 C77.8444924,71.5968594 79.5648621,72.5734219 79.6424961,72.5984219 C79.7201301,72.6249844 79.8365811,72.7937344 79.8365811,72.9109219 L80.0041153,74.4484219 L78.0773945,74.4484219 L78.0773945,74.5781094 L80.0041153,74.5781094 Z" id="Fill-35" fill="#CADBE7"></path>
            <path d="M69.1214107,79.3702812 L69.1106972,79.3749687 L65.5424828,79.5015312 C65.5424828,79.5015312 65.5036658,79.4734062 65.4337952,79.4234062 L65.4384532,79.4171562 L66.2320281,75.6155937 L67.3404865,75.5937187 C67.8715031,76.7530937 68.6664754,78.4187187 69.0082203,79.1327812 C69.0546455,79.2312187 69.0934625,79.3124687 69.1214107,79.3702812" id="Fill-36" fill="#CADBE7"></path>
            <path d="M55.0711608,52.8405937 L59.3022144,52.7546562 L59.3225545,54.0312187 L59.4778226,53.9921562 C59.4778226,53.9921562 59.4574824,54.8312187 59.4001885,55.0265312 C59.3410314,55.2218437 59.3410314,55.7296562 59.3410314,55.8280937 C59.3410314,55.9202812 59.410902,60.0734062 59.4171128,60.4655937 L55.6534159,60.5468437 L50.7857634,60.6515312 C50.7828133,59.1640312 50.7873161,57.7030937 50.7873161,57.7030937 C50.7873161,57.7030937 50.4193309,57.7062187 49.8696821,57.7109062 L49.8696821,57.6640312 L49.7656525,52.9499687 L55.0711608,52.8405937 Z" id="Fill-38" fill="#CADBE7"></path>
            <path d="M54.2111312,89.1000625 L58.1130166,89.0514688 L58.0445434,85.3608438 L55.7698669,85.4061563 L54.8631017,85.4249063 L48.5764547,85.5499063 L48.5764547,85.5545938 L48.5764547,87.4561563 L47.5919002,87.4561563 L47.5734233,87.4827188 L47.5951608,88.1125625 L47.5951608,88.1327188 L47.6695342,88.1327188 L47.6959298,89.3311563 L49.5856969,89.3563125 L49.63678,90.7889688 L49.5080628,91.2313125 L54.2049205,91.1795938 C54.1924991,90.4313125 54.1723142,89.6235 54.1723142,89.2625625 C54.1723142,89.2092813 54.1738669,89.15475 54.1783697,89.0967813 L54.2111312,89.1000625 Z" id="Fill-40" fill="#CADBE7"></path>
            <path d="M67.7259704,70.2519375 C69.4867098,71.962875 71.4511608,73.8894375 73.0536821,75.44725 L72.430281,75.4905312 L67.3404399,75.5938125 C67.1479076,75.176625 66.9896895,74.8250625 66.899634,74.607875 C66.4818078,73.6000625 66.6480998,73.11725 66.6480998,73.11725 L66.9198189,71.7733437 L66.9198189,71.7563125 L67.233305,71.751625 L67.1494603,70.7235 L67.0236932,70.639125 L67.1061405,70.2452187" id="Fill-42" fill="#CADBE7"></path>
            <path d="M48.5764392,85.5499531 L48.5764392,85.5546406 L47.5951453,85.5546406 L47.5951453,83.4297969 L47.5951453,83.3937031 L48.4458588,83.3937031 L48.4211712,81.7265156 L50.3620214,81.7265156 L50.2067534,75.9530781 L52.2483726,75.8890156 L52.2623468,75.8812031 C52.591515,76.4501094 52.8508126,76.9093281 53.0155519,77.2155781 C53.1242396,77.4171406 53.1910048,77.5530781 53.209637,77.6124531 C53.2715889,77.7999531 55.4204983,83.4718281 55.4204983,83.4718281 L54.8630861,85.4249531 L48.5764392,85.5499531 Z" id="Fill-44" fill="#CADBE7"></path>
            <polygon id="Fill-48" fill="#CADBE7" points="47.5950987 88.1125 47.5950987 88.1328125 46.970766 88.1328125 46.9460784 89.3828125 45.8062558 89.409375 45.8062558 90.3203125 44.617058 90.346875 44.5905072 89.4609375 39.0786477 89.5390625 39.0522521 87.6375 42.8561634 87.5078125 42.7272909 81.8046875 44.6417457 81.778125 44.6417457 83.6796875 46.5825959 83.653125 46.6089915 83.39375 47.5950987 83.39375 47.5950987 83.4296875 47.5950987 85.5546875 47.5918381 85.5546875 47.5918381 87.45625 47.5733612 87.4828125"></polygon>
            <path d="M44.2366669,58.0812187 L44.3205116,62.5296562 L39.4761494,62.6249687 L39.4202529,60.0343437 L39.9994026,60.0546562 L40.0195874,59.6984062 L41.3766299,59.6765312 L41.4185523,59.2780937 L43.5472769,58.1859062 C43.5472769,58.1859062 44.0268998,57.8702812 44.2147741,57.4093437 L44.2242455,57.4093437 L44.2366669,58.0812187 Z" id="Fill-49" fill="#CADBE7"></path>
            <path d="M44.1247652,52.1171719 L44.2242921,57.4093594 L44.2148207,57.4093594 C44.0269464,57.8702969 43.5471682,58.1859219 43.5471682,58.1859219 L41.4184436,59.2781094 L41.3766765,59.6765469 L40.019634,59.6984219 L39.9994492,60.0546719 L39.4201442,60.0343594 L39.289719,54.1093594 C40.9386654,53.4156094 42.5953752,52.7187344 44.1092384,52.0796719 L44.1247652,52.1171719 Z" id="Fill-50" fill="#CADBE7"></path>
            <path d="M51.0172059,64.9061719 C51.0172059,65.0641406 51.03118,67.8155469 51.0420488,70.1157031 C47.82179,70.1733594 44.6201634,70.2296094 44.5068177,70.2186719 C44.495949,70.2171094 44.4819749,70.2141406 44.4648954,70.2061719 L44.3204961,62.5296094 L50.6725109,62.4032031 L50.79362,62.4032031 C50.8012281,63.1202344 50.8122521,63.6561719 50.8293316,63.7514844 C50.8929915,64.0875781 51.0172059,64.6327344 51.0172059,64.9061719" id="Fill-51" fill="#CADBE7"></path>
            <path d="M64.9819342,41.2968594 C65.1372022,41.3624844 65.2677826,41.5437344 65.1901486,41.6609219 C65.120278,41.7671719 64.8299268,41.9781094 64.8299268,42.1343594 L64.3794943,42.1406094 C64.3794943,42.0937344 64.3779416,42.0546719 64.3749915,42.0265469 C64.3608621,41.8952969 64.1667771,41.6749844 64.1667771,41.6749844 L64.1809065,41.4062344 L64.5937641,41.4265469 C64.5937641,41.4265469 64.8266662,41.2312344 64.9819342,41.2968594" id="Fill-53" fill="#CADBE7"></path>
            <path d="M65.0983852,42.7687187 C65.1125146,42.8859062 65.1125146,43.1984062 65.1125146,43.1984062 L64.9184296,43.2109062 L64.9960636,44.9812187 C64.5425257,45.0952812 64.4075978,44.9202812 64.385705,44.7327812 C64.381047,44.6843437 64.3827549,44.6359062 64.3872577,44.5905937 C64.4138085,44.3702812 64.4138085,44.0577812 64.3872577,43.9530937 C64.3608621,43.8484062 64.3361745,43.8093437 64.3361745,43.7577812 C64.3361745,43.7062187 64.3220451,43.5359062 64.2832281,43.4327812 C64.2490691,43.3405937 64.2149102,43.2702812 64.207302,43.1921562 C64.2055941,43.1812187 64.2055941,43.1702812 64.2055941,43.1593437 C64.2055941,43.0671562 64.2832281,42.8202812 64.3361745,42.6765312 C64.3765442,42.5655937 64.3841523,42.3093437 64.3794943,42.1405937 L64.8299268,42.1343437 C64.8299268,42.1515312 64.8328769,42.1671562 64.8407956,42.1827812 C64.9184296,42.3390312 65.0859638,42.6515312 65.0983852,42.7687187" id="Fill-54" fill="#CADBE7"></path>
            <path d="M59.529061,43.10625 C59.5413272,43.046875 59.5475379,43.0015625 59.5475379,42.9765625 C59.5475379,42.8890625 59.5071682,42.046875 59.4683512,41.284375 L59.4699039,41.284375 L62.6016599,41.1796875 L63.1963364,40.996875 L63.222732,40.9828125 C63.2475749,41.03125 63.2880998,41.0640625 63.3516044,41.05 C63.533268,41.0109375 63.610902,40.9328125 63.7150869,40.984375 C63.8174085,41.0359375 64.0114935,41.0359375 63.8174085,41.3875 L64.1808909,41.40625 L64.1667616,41.675 L63.8315379,41.6609375 C63.8315379,41.6609375 63.7661701,41.921875 63.727353,42.078125 C63.688536,42.234375 63.6233235,42.48125 63.688536,42.6125 C63.7476932,42.73125 63.9059113,42.98125 63.912122,43.203125 C63.912122,43.2234375 63.9107246,43.24375 63.9091719,43.2625 C63.8826211,43.496875 63.7009575,43.809375 63.727353,44.0046875 C63.7539039,44.2 63.8174085,44.2921875 63.9338595,44.3828125 C64.0503105,44.4734375 64.1420739,44.65625 64.1420739,44.734375 C64.1420739,44.8125 64.0891275,45.034375 64.1931571,45.1375 C64.297342,45.2421875 64.491427,45.528125 64.4772976,45.7765625 C64.4648762,46.0234375 64.4260591,46.3359375 64.5036932,46.4796875 C64.5813272,46.621875 64.646695,46.8046875 64.6201442,46.909375 C64.6170388,46.925 64.6108281,46.94375 64.60322,46.9640625 L64.5937486,46.9609375 L60.5320924,46.934375 L60.5226211,46.58125 L60.4544584,43.7578125 L59.3643216,43.7078125 C59.4419556,43.478125 59.5009575,43.25 59.529061,43.10625" id="Fill-55" fill="#CADBE7"></path>
            <path d="M59.038383,39.0890625 C58.9949079,38.9890625 58.9560909,38.9015625 58.9264348,38.8359375 C58.7975623,38.55 58.8241131,38.340625 58.8241131,38.340625 C58.8241131,38.340625 58.8085863,37.1625 58.7897989,36.496875 C58.8488007,36.4234375 59.0428858,36.1890625 59.1080983,36.1015625 C59.1857323,35.996875 59.6251409,35.971875 59.6251409,35.971875 C59.6251409,35.971875 60.401481,35.996875 60.5320614,35.996875 C60.6607786,35.996875 61.0754994,35.89375 61.2042166,35.7375 C61.3330891,35.58125 61.9029227,35.60625 61.9029227,35.60625 L63.0674329,35.7109375 L63.1186713,35.7109375 L63.1186713,35.815625 L63.766139,35.89375 L63.766139,36.7265625 C63.766139,36.7265625 63.7926898,37.1953125 63.5597878,37.221875 C63.3268858,37.246875 63.2104348,37.3515625 63.2104348,37.4953125 C63.2104348,37.6375 63.1838839,40.7625 63.1838839,40.7625 C63.1838839,40.7625 63.1793811,40.896875 63.2227009,40.9828125 L63.1963054,40.996875 L62.6016288,41.1796875 L59.4698728,41.284375 L59.4684754,41.284375 C59.4358691,40.675 59.4032628,40.115625 59.3922388,40.034375 C59.3737619,39.89375 59.1841797,39.4265625 59.038383,39.0890625" id="Fill-57" fill="#CADBE7"></path>
            <path d="M49.8696821,57.6640469 L49.8696821,57.7109219 C48.2923142,57.7218594 45.2116414,57.7452969 44.9647652,57.7452969 C44.6310943,57.7452969 44.2568983,58.0812344 44.2568983,58.0812344 L44.2367135,58.0812344 L44.2242921,57.4093594 L44.1247652,52.1171719 L44.1092384,52.0796719 C46.2148281,51.1937344 48.0483882,50.4218594 49.2128983,49.9327969 L49.2222144,51.0234219 C49.2222144,51.0234219 49.2222144,52.0124844 49.5080628,52.3249844 L49.7920481,52.6374844 L49.7656525,52.9499844 L49.8696821,57.6640469 Z" id="Fill-58" fill="#CADBE7"></path>
            <path d="M55.0914854,51.159375 C55.0914854,51.3609375 55.0744059,52.6671875 55.0711453,52.840625 L49.765637,52.95 L49.7920325,52.6375 L49.5080473,52.325 C49.2221989,52.0125 49.2221989,51.0234375 49.2221989,51.0234375 L49.2130381,49.9328125 C49.9893782,49.6078125 50.4676037,49.4078125 50.5295556,49.3828125 C50.9768828,49.20625 52.2763209,49.1671875 52.819759,49.128125 C53.0122913,49.1140625 53.3866425,48.9203125 53.8026055,48.6671875 C53.8508939,48.9015625 53.9145538,49.1421875 53.9842691,49.265625 C54.1395372,49.5390625 54.8197664,50.3390625 54.8974004,50.45625 C54.9750344,50.5734375 55.0914854,50.9453125 55.0914854,51.159375" id="Fill-59" fill="#CADBE7"></path>
            <path d="M48.5251852,39.1327812 C48.5234773,39.8015312 48.5234773,40.4062187 48.5234773,40.7109062 L48.4987896,40.7109062 L45.6774144,40.7374687 L45.6774144,40.4765312 L42.9338285,40.5280937 L42.9246677,40.5280937 L42.9044828,39.5124687 C43.9415179,39.5062187 45.025444,39.4999687 45.1310262,39.4999687 C45.3297693,39.4999687 46.0127933,39.3452812 46.2317213,39.3015312 C46.4523571,39.2562187 47.1790115,39.1452812 47.6632924,39.1452812 C47.7550558,39.1452812 48.0700946,39.1405937 48.5251852,39.1327812" id="Fill-60" fill="#CADBE7"></path>
            <path d="M49.2408776,35.7124531 C49.166349,35.7280781 48.5747778,35.8640156 48.5499349,36.2062031 C48.5344081,36.4124531 48.5281974,37.8874531 48.5252473,39.1327656 C48.0701567,39.1405781 47.7551179,39.1452656 47.6633545,39.1452656 C47.1790736,39.1452656 46.452264,39.2562031 46.2317834,39.3015156 C46.0128555,39.3452656 45.3298314,39.4999531 45.1309331,39.4999531 C45.0255061,39.4999531 43.94158,39.5062031 42.9043896,39.5124531 L42.8315689,35.8108906 C44.5673102,35.7858906 46.6356355,35.7546406 48.5252473,35.7233906 C48.7673102,35.7202656 49.0064229,35.7155781 49.2408776,35.7124531" id="Fill-61" fill="#CADBE7"></path>
            <path d="M49.1539896,43.3155937 L49.1602004,43.9405937 L49.1198307,43.9405937 L47.7471061,44.3312187 L46.2984555,44.3046562 L46.2984555,44.8515312 L44.7723261,44.8249687 L44.7723261,45.3718437 L42.5985738,45.3718437 L42.5720229,45.9718437 C42.5720229,45.9718437 41.9509508,46.1796562 41.5893316,46.2843437 C41.2258492,46.3874687 39.1562817,47.0655937 39.1562817,47.0655937 L39.1485183,47.0655937 L39.0274092,41.6484062 L39.0165405,40.8343437 L40.6047771,40.2155937 L40.5800895,40.7109062 L41.8469213,40.7374687 L41.8733168,40.9452812 L42.9337974,40.9968437 L42.9246366,40.5280937 L42.9337974,40.5280937 L45.6773834,40.4765312 L45.6773834,40.7374687 L48.4987586,40.7109062 L48.5234462,40.7109062 L48.5234462,40.9187187 C48.5234462,40.9187187 48.4987586,41.5702812 48.6274758,41.7530937 C48.7563482,41.9343437 48.9892503,42.2218437 49.1445183,42.2468437 L49.1539896,43.3155937 Z" id="Fill-62" fill="#CADBE7"></path>
            <path d="M59.4683978,41.2843437 C59.4357915,40.6749687 59.4031852,40.1155937 59.3923165,40.0343437 C59.3738396,39.8937187 59.1842573,39.4265312 59.0383054,39.0890312 C58.9948303,38.9890312 58.9560133,38.9015312 58.9265124,38.8359062 C58.7976399,38.5499687 58.8241908,38.3405937 58.8241908,38.3405937 C58.8241908,38.3405937 58.8085087,37.1624687 58.7898765,36.4968437 C58.7836658,36.2890312 58.7774551,36.1312187 58.7712444,36.0749687 C58.7619283,35.9812187 58.6641094,35.7562187 58.5414477,35.5030937 L56.9111335,35.5421562 L54.1395993,35.6062187 C54.0823054,35.6265312 51.9209745,35.6687187 49.2408932,35.7124687 C49.1663645,35.7280937 48.5747933,35.8640312 48.5499505,36.2062187 C48.5344237,36.4124687 48.5282129,37.8874687 48.5252628,39.1327812 C48.5235549,39.8015312 48.5235549,40.4062187 48.5235549,40.7109062 L48.5235549,40.9187187 C48.5235549,40.9187187 48.4988673,41.5702812 48.6275845,41.7530937 C48.7564569,41.9343437 48.989359,42.2218437 49.144627,42.2468437 L49.1539431,43.3155937 L57.6472591,43.1437187 L59.5291076,43.1062187 C59.5413738,43.0468437 59.5475845,43.0015312 59.5475845,42.9765312 C59.5475845,42.8890312 59.5072148,42.0468437 59.4683978,41.2843437" id="Fill-63" fill="#CADBE7"></path>
            <path d="M55.7901915,69.9875 L55.7917442,70.0234375 C54.5247571,70.0484375 52.780942,70.08125 51.0420954,70.115625 C51.0312266,67.815625 51.0172525,65.0640625 51.0172525,64.90625 C51.0172525,64.6326562 50.8930381,64.0875 50.8293782,63.7515625 C50.8121434,63.6560937 50.8012747,63.1203125 50.7935113,62.403125 C50.7890085,61.88125 50.7859031,61.2640625 50.7859031,60.6515625 L55.6534004,60.546875 L55.6534004,60.5734375 L55.7901915,69.9875 Z" id="Fill-64" fill="#CADBE7"></path>
            <path d="M60.8409516,63.2734844 L60.7881604,60.4375469 L60.7588148,60.4375469 L60.170349,60.4500469 L59.4171438,60.4655156 L55.653447,60.5469219 L55.653447,60.5734844 L55.7902381,69.9875469 L55.7916355,70.0233281 C56.9406189,70.0016094 57.6952214,69.9875469 57.6952214,69.9875469 L57.716959,70.5344219 L58.572641,70.5141094 L58.6564858,70.5125469 L58.634593,69.9248906 L59.3659054,69.8625469 L59.3659054,69.3797344 L59.5739645,69.3797344 L59.5739645,67.5092656 L59.823946,67.5092656 L59.823946,67.0266094 L60.2417723,67.0062969 L60.2417723,66.1453594 L60.4915985,66.1453594 L60.50402,65.0358281 L60.5134913,64.2125469 L60.659288,64.2342656 L60.6375505,63.2672344 L60.8409516,63.2734844 Z" id="Fill-66" fill="#CADBE7"></path>
            <path d="M44.3205272,62.529625 L44.4649264,70.2061875 C44.1186787,70.0766562 42.544261,68.8749375 42.544261,68.8749375 L42.5240762,71.2485312 L38.7370891,71.2265 L38.6330595,66.5235312 L38.6625604,66.5235312 L39.5600096,66.4811875 L39.4761649,62.6249375 L44.3205272,62.529625 Z" id="Fill-68" fill="#CADBE7"></path>
            <path d="M44.4648799,70.2061719 C44.4819593,70.2141406 44.4959335,70.2171094 44.5069575,70.2186719 C44.6201479,70.2296094 47.8217745,70.1733594 51.0420333,70.1157031 C51.0513494,71.8016406 51.0591128,73.2436719 51.0591128,73.2436719 C51.0591128,73.2436719 50.9131608,73.6000781 51.7485028,75.0077344 C51.9348244,75.3202344 52.1056192,75.6124219 52.2624399,75.8811719 L52.2484658,75.8889844 L50.2066913,75.9530469 L50.2066913,75.9452344 L38.8457301,76.1532031 L38.7370425,71.2264844 L42.5240296,71.2485156 L42.5442144,68.8749219 C42.5442144,68.8749219 44.1187874,70.0766406 44.4648799,70.2061719" id="Fill-69" fill="#CADBE7"></path>
            <polygon id="Fill-71" fill="#CADBE7" points="39.4761338 62.6249844 39.5599786 66.4812344 38.6625294 66.5234219 38.6330285 66.5234219 38.6128436 65.6062344 27.1494055 65.9452969 27.0733242 62.8702969"></polygon>
            <path d="M57.6471815,43.1437187 L49.1540207,43.3155937 L49.1602314,43.9405937 L49.2068118,49.2609062 L49.2130226,49.9327812 C49.9893627,49.6077812 50.4675882,49.4077812 50.5295401,49.3827812 C50.9768673,49.2062187 52.2763054,49.1671562 52.8197434,49.1280937 C53.0124311,49.1140312 53.386627,48.9202812 53.80259,48.6671562 C53.7435882,48.3827812 53.7047712,48.1077812 53.6940577,48.0546562 C53.6737176,47.9562187 53.7716917,47.7218437 53.8105087,47.6249687 C53.8493257,47.5265312 53.9066196,47.3312187 53.9066196,47.3312187 L53.880224,47.2999687 C54.0354921,47.2999687 54.9671002,46.5187187 55.1223682,46.3874687 C55.2776362,46.2577812 55.8210743,46.3624687 56.0027379,46.4405937 C56.1845567,46.5187187 57.01198,46.1530937 57.1408525,46.0749687 C57.2295105,46.0218437 57.386176,45.9937187 57.5662869,45.9734062 C57.6533922,45.9624687 57.746553,45.9530937 57.8395586,45.9452812 C58.125407,45.9187187 58.3829967,45.2155937 58.4606307,45.0343437 C58.5382647,44.8515312 58.7711667,44.6952812 59.0304643,44.4093437 C59.150176,44.2765312 59.271285,43.9905937 59.3644458,43.7077812 C59.4420799,43.4780937 59.5009264,43.2499687 59.5290299,43.1062187 L57.6471815,43.1437187 Z" id="Fill-72" fill="#CADBE7"></path>
            <path d="M50.7858255,60.6515625 C50.7858255,61.2640625 50.7889309,61.88125 50.7935889,62.403125 L50.6724799,62.403125 L44.3204651,62.5296875 L44.2366203,58.08125 L44.2568052,58.08125 C44.2568052,58.08125 44.6310011,57.7453125 44.9648274,57.7453125 C45.2117035,57.7453125 48.2922211,57.721875 49.8697442,57.7109375 C50.419393,57.70625 50.7873782,57.703125 50.7873782,57.703125 C50.7873782,57.703125 50.7827201,59.1639063 50.7858255,60.6515625" id="Fill-73" fill="#CADBE7"></path>
            <path d="M42.9246211,40.528125 L42.9044362,39.5125 L42.8314603,35.8109375 C40.7477634,35.8421875 39.1438447,35.8640625 38.9031793,35.8671875 C38.9140481,36.55 38.9357856,37.7921875 38.9513124,38.75625 L39.2851386,38.73125 L39.2851386,39.4875 L39.0009982,39.4875 L39.0087616,40.096875 L39.016525,40.834375 L40.6049168,40.215625 L40.5800739,40.7109375 L41.847061,40.7375 L41.8734566,40.9453125 L42.9339372,40.996875 L42.9246211,40.528125 Z" id="Fill-74" fill="#CADBE7"></path>
            <path d="M49.2067652,49.2608906 L49.1601848,43.9405781 L49.1198152,43.9405781 L47.7472458,44.3312031 L46.2985952,44.3046406 L46.2985952,44.8515156 L44.7723105,44.8249531 L44.7723105,45.3718281 L42.5985582,45.3718281 L42.5721627,45.9718281 C42.5721627,45.9718281 41.9510906,46.1796406 41.5893161,46.2843281 C41.2259889,46.3874531 39.1562662,47.0655781 39.1562662,47.0655781 L39.1485028,47.0655781 L39.2851386,53.1062031 L39.2680591,53.1077656 L39.2773752,53.4905781 L39.2897967,54.1093281 C40.9387431,53.4155781 42.5954529,52.7187031 44.1093161,52.0796406 C46.2149057,51.1937031 48.0484658,50.4219844 49.212976,49.9327656 L49.2067652,49.2608906 Z" id="Fill-75" fill="#CADBE7"></path>
            <polygon id="Fill-76" fill="#CADBE7" points="39.4201752 60.0343437 39.2897501 54.1093437 39.2773287 53.4905937 39.2680126 53.1077812 38.0429479 53.1843437 38.0429479 54.0171562 38.0429479 54.5655937 36.988678 55.0780937 36.4390292 55.3468437 36.5166632 58.9140312 28.1585856 59.1218437 28.1337427 59.1327812 26.9940754 59.6171562 27.0732621 62.8702812 39.4760717 62.6249687"></polygon>
            <path d="M42.8315224,35.8109531 C40.7476702,35.8422031 39.1439068,35.8640781 38.9032414,35.8672031 C38.900136,35.5968906 38.8970307,35.4140781 38.8970307,35.3718906 C38.8970307,35.1375156 38.7945538,33.7843906 38.7945538,33.7843906 L38.7369494,28.9953281 C38.8768458,29.0093906 39.7368754,29.0968906 40.1390196,29.0968906 C40.2554706,29.0968906 41.2057109,29.0843906 42.5456739,29.0656406 C43.6636037,29.0500156 45.0534078,29.0297031 46.4537701,29.0093906 L46.4537701,29.0187656 L46.4537701,29.9812656 L45.5221619,30.0078281 L45.5487128,32.7937656 L46.376136,32.8203281 L46.4273745,33.7578281 L47.411929,33.7312656 L47.411929,34.1484531 L48.4988052,34.6953281 L48.5234928,35.6593906 L48.5252007,35.7234531 C46.6355889,35.7547031 44.5674189,35.7859531 42.8315224,35.8109531" id="Fill-77" fill="#CADBE7"></path>
            <path d="M47.7844791,16.4296875 L41.2012702,16.5703125 L39.570956,15.0859375 L39.5956436,14.6171875 L37.612871,14.640625 C37.5942388,13.959375 37.5771593,13.2984375 37.5771593,13.2375 C37.5771593,13.184375 37.5818174,12.9953125 37.5926861,12.7671875 L37.6299505,12.76875 L40.5025641,12.7421875 L40.5025641,13.2890625 L40.7354662,13.2625 L40.7601538,13.6796875 L41.4588599,13.6796875 L41.4588599,12.715625 L42.312834,12.715625 C42.312834,12.715625 42.468102,13.003125 42.6233701,13.028125 C42.7786381,13.0546875 43.3484717,13.3671875 43.5302906,13.4453125 C43.7102462,13.5234375 44.2289967,13.70625 44.4089523,13.575 C44.5906159,13.4453125 44.7724348,12.925 45.1606048,12.95 C45.5487749,12.9765625 45.9369449,13.159375 45.9369449,13.159375 L45.9600799,13.153125 C46.0299505,13.4703125 46.0780835,13.6828125 46.0922129,13.73125 C46.169847,13.9921875 46.5050706,14.4875 46.635651,14.66875 C46.7643682,14.8515625 47.7472148,16.05 47.7736104,16.309375 C47.7767157,16.3375 47.7798211,16.3796875 47.7844791,16.4296875" id="Fill-78" fill="#CADBE7"></path>
            <path d="M51.8448,12.559375 L51.9193287,16.3421875 L47.7845412,16.4296875 C47.7797279,16.3796875 47.7767778,16.3375 47.7735172,16.309375 C47.7471216,16.05 46.764275,14.8515625 46.6355579,14.66875 C46.5049774,14.4875 46.1697538,13.9921875 46.0921198,13.73125 C46.0779904,13.6828125 46.0300126,13.4703125 45.960142,13.153125 C45.8343749,12.575 45.6371845,11.65 45.4462048,10.7421875 L45.4710477,10.7375 L48.8869442,10.684375 L48.8603933,8.73125 L51.7702713,8.6796875 L51.8448,12.559375 Z" id="Fill-79" fill="#CADBE7"></path>
            <path d="M57.1408991,32.403125 C57.1408991,32.403125 57.4267475,32.8984375 57.4001967,33.2375 L57.2916643,33.240625 C57.2342152,33.2203125 57.1797161,33.2109375 57.1408991,33.2109375 C56.9856311,33.2109375 56.6504074,33.0546875 56.519827,32.95 C56.3909545,32.846875 56.0027845,32.690625 55.8211209,32.6375 C55.6411652,32.5859375 55.3306292,32.246875 55.3040784,32.065625 C55.2793908,31.8828125 55.2264444,31.8828125 55.0447808,31.7 C54.8648251,31.51875 54.9671468,31.075 54.9671468,30.91875 C54.9671468,30.828125 55.0183852,30.4125 55.0618603,30.009375 C55.1534684,30.015625 55.5837161,30.059375 55.7434869,30.26875 L55.9251505,30.503125 L57.1408991,32.403125 Z" id="Fill-80" fill="#CADBE7"></path>
            <path d="M55.0619224,30.0093281 C55.0184473,30.4124531 54.9672089,30.8280781 54.9672089,30.9187031 C54.9672089,31.0749531 54.864732,31.5187031 55.0448429,31.6999531 C55.2265065,31.8827656 55.2792976,31.8827656 55.3041405,32.0655781 C55.330536,32.2468281 55.6410721,32.5858906 55.821183,32.6374531 C56.0028466,32.6905781 56.3910166,32.8468281 56.5198891,32.9499531 C56.6503142,33.0546406 56.9856932,33.2108906 57.1409612,33.2108906 C57.1797782,33.2108906 57.234122,33.2202656 57.2915712,33.2405781 C57.4654713,33.2999531 57.6843993,33.4515156 57.6843993,33.7062031 C57.6843993,34.0437031 57.8660628,34.3046406 58.0213309,34.5390156 C58.1144917,34.6796406 58.3582625,35.1218281 58.5414787,35.5030781 L56.9111645,35.5421406 C56.4639926,35.0187031 55.7078373,34.4577656 55.3181146,34.1358906 C54.7700185,33.6858906 54.447061,32.4327656 54.3973752,31.9312031 C54.3476895,31.4296406 54.1225508,30.5530781 54.0231793,30.3780781 C53.9284658,30.2124531 53.5434011,29.7312031 53.1443623,28.8937031 L53.8803327,28.5233906 L53.8880961,28.5140156 C53.9144917,28.5374531 53.947098,28.5499531 53.9843623,28.5499531 C54.1660259,28.5499531 54.3461368,28.4452656 54.4501664,28.5499531 C54.5541959,28.6530781 55.1224769,28.9405781 55.1224769,29.2780781 C55.1224769,29.3874531 55.1069501,29.5812031 55.0852126,29.7983906 C55.0774492,29.8671406 55.0696858,29.9374531 55.0619224,30.0093281" id="Fill-81" fill="#CADBE7"></path>
            <path d="M49.2408776,35.7124531 C49.0064229,35.7155781 48.7673102,35.7202656 48.5252473,35.7233906 L48.5235394,35.6593281 L48.4988518,34.6952656 L47.4119756,34.1483906 L47.4119756,33.7312031 L46.4274211,33.7577656 L46.3761826,32.8202656 L45.5487593,32.7937031 L45.5222085,30.0077656 L46.4538166,29.9812031 L46.4538166,29.0187031 L46.4538166,29.0093281 C49.7501567,28.9624531 53.103946,28.9140156 53.103946,28.9140156 L53.144471,28.8937031 C53.5433545,29.7312031 53.9284192,30.2124531 54.0231327,30.3780781 C54.1225043,30.5530781 54.3477982,31.4296406 54.3973287,31.9312031 C54.4470144,32.4327656 54.7699719,33.6858906 55.3182233,34.1358906 C55.7077908,34.4577656 56.463946,35.0187031 56.9111179,35.5421406 L54.1395837,35.6062031 C54.0822898,35.6265156 51.920959,35.6687031 49.2408776,35.7124531" id="Fill-82" fill="#CADBE7"></path>
            <path d="M45.9600799,13.1530938 L45.9369449,13.1593437 C45.9369449,13.1593437 45.5487749,12.9765313 45.1606048,12.9499688 C44.7724348,12.9249687 44.5906159,13.4452813 44.4089523,13.5749688 C44.2289967,13.7062187 43.7102462,13.5234063 43.5302906,13.4452813 C43.3484717,13.3671563 42.7786381,13.0546563 42.6233701,13.0280938 C42.468102,13.0030937 42.312834,12.7155938 42.312834,12.7155938 L41.4588599,12.7155938 L41.4588599,13.6796563 L40.7601538,13.6796563 L40.7354662,13.2624688 L40.5025641,13.2890313 L40.5025641,12.7421563 L37.6299505,12.7687187 L37.5926861,12.7671562 C37.6066603,12.4234063 37.6346085,11.9921563 37.6811889,11.8046563 C37.7106898,11.6827813 37.6439246,11.4640313 37.5336843,11.2140313 L37.5523165,11.2062187 L37.6299505,10.7374687 L39.493322,10.7890313 L39.5180096,9.74684375 C40.1654773,9.46090625 40.4249301,8.83590625 40.4249301,8.83590625 L40.8131002,8.86246875 L41.7957915,7.01246875 L41.7957915,6.99059375 L44.7831482,6.96246875 C44.7971224,7.29215625 44.8250706,7.79371875 44.8747564,8.02809375 C44.9120207,8.20309375 45.172871,9.45465625 45.4461427,10.7421563 C45.6371224,11.6499687 45.8343128,12.5749687 45.9600799,13.1530938" id="Fill-83" fill="#CADBE7"></path>
            <path d="M51.7328983,6.80467188 L51.7701627,8.67967188 L48.8604399,8.73123438 L48.8869908,10.6843594 L45.4710943,10.7374844 L45.4462514,10.7421719 C45.1728244,9.45467188 44.9119741,8.20310938 44.8747098,8.02810938 C44.8251793,7.79373438 44.7970758,7.29217188 44.7831017,6.96248438 L44.9523438,6.96092188 L45.1852458,1.23123438 C45.7271312,1.21560938 48.0594122,1.19060938 49.8432865,1.17498438 L49.8432865,1.17967188 L49.8962329,2.22185938 L51.3447283,6.77810938 L51.7328983,6.77342188 L51.7328983,6.80467188 Z" id="Fill-84" fill="#CADBE7"></path>
            <path d="M58.5414943,35.5030937 C58.358278,35.1218437 58.1145072,34.6796562 58.0211911,34.5390312 C57.8659231,34.3046562 57.6842595,34.0437187 57.6842595,33.7062187 C57.6842595,33.4515312 57.4654869,33.2999687 57.2915867,33.2405937 L57.400119,33.2374687 C57.4266699,32.8984062 57.1408214,32.4030937 57.1408214,32.4030937 L55.9250728,30.5030937 L55.7434092,30.2687187 C55.5836384,30.0593437 55.153546,30.0155937 55.0619379,30.0093437 C55.0697013,29.9374687 55.0773094,29.8671562 55.0852281,29.7984062 L55.0976495,29.7999687 C55.0976495,29.7999687 55.3552392,29.8249687 55.5881412,29.7999687 C55.8148325,29.7734062 61.2695534,29.5999687 61.5319564,29.5905937 L61.5350617,29.6812187 C61.4977974,29.7359062 61.4698492,29.7859062 61.4636384,29.8249687 C61.4370876,29.9812187 61.5535386,31.1796562 61.6189065,31.3749687 C61.6824111,31.5702812 61.8764961,31.7390312 62.0705811,31.8171562 C62.2646662,31.8952812 62.4587512,32.0390312 62.5116976,32.1296562 C62.5627808,32.2218437 63.5720229,34.2921562 63.5720229,34.2921562 L63.99901,34.3171562 L64.270729,33.6921562 L65.7845922,33.6796562 L65.7970137,34.3827812 L64.4772355,34.4093437 L64.4913649,34.6687187 L66.5345368,34.6437187 L66.5345368,35.0343437 L64.4384185,35.0343437 L64.4384185,35.4890312 L64.1031948,35.4890312 L64.1031948,35.0984062 L63.1062189,35.0984062 L63.1062189,35.2937187 L63.8314758,35.2937187 L63.804925,35.5421562 L63.1186403,35.6202812 L63.1186403,35.7109062 L63.0674018,35.7109062 L61.9028917,35.6062187 C61.9028917,35.6062187 61.333058,35.5812187 61.2041856,35.7374687 C61.0754684,35.8937187 60.6607475,35.9968437 60.5320303,35.9968437 C60.4014499,35.9968437 59.6251098,35.9718437 59.6251098,35.9718437 C59.6251098,35.9718437 59.1857013,35.9968437 59.1080673,36.1015312 C59.0428547,36.1890312 58.8487697,36.4234062 58.7899231,36.4968437 C58.7837124,36.2890312 58.7775017,36.1312187 58.7711357,36.0749687 C58.7619749,35.9812187 58.664156,35.7562187 58.5414943,35.5030937" id="Fill-85" fill="#CADBE7"></path>
            <path d="M55.6270359,6.72654687 L51.7329139,6.77342187 L51.3447438,6.77810937 L49.8962484,2.22185937 L49.843302,1.17967187 L49.843302,1.17498437 C51.0404185,1.16248437 51.9923667,1.15310937 51.9923667,1.15310937 L51.2671098,0.215609375 L53.5854166,0.137484375 C53.5900747,0.146859375 53.5930248,0.156234375 53.5961301,0.164046875 C53.6737641,0.359359375 53.8493723,0.690609375 53.8493723,0.846859375 C53.8493723,1.00310937 53.7902152,1.19842187 53.8290322,1.31560937 C53.8678492,1.43279687 53.9843002,1.51092187 54.0046403,1.64842187 C54.0231172,1.78435937 54.0822743,2.07810937 54.1395682,2.21404687 C54.1987253,2.35154687 54.2172022,2.82029687 54.4316274,3.03435937 C54.6441893,3.24998437 54.8974314,3.48435937 54.9159083,3.60154687 C54.9362484,3.71873437 54.9935423,3.83592187 55.0915165,3.99217187 C55.1876274,4.14842187 55.5185035,4.49998437 55.4408695,4.53904687 C55.3632355,4.57810937 55.1691505,4.57810937 55.1691505,4.63592187 C55.1691505,4.69529687 55.1691505,5.55467187 55.2652614,5.78904687 C55.2652614,5.78904687 55.4593464,6.36248437 55.5247142,6.49217187 C55.5556126,6.55467187 55.5944296,6.64217187 55.6270359,6.72654687" id="Fill-86" fill="#CADBE7"></path>
            <path d="M51.7702092,8.67967187 L51.7329449,6.80467187 L51.7329449,6.77342187 L55.6270669,6.72654687 C55.6643312,6.82029688 55.6922795,6.90779687 55.6922795,6.94842187 C55.6922795,7.02654687 55.7188303,7.78123437 55.7188303,7.88592187 C55.7188303,7.98904688 55.7576473,8.65310938 55.7576473,8.77029688 C55.7576473,8.88748438 55.8087305,9.13592187 55.937603,9.29217187 C56.0681834,9.44842187 56.4298026,9.90310938 56.4686196,9.95623437 C56.5074366,10.0077969 56.5850706,10.0984219 56.558675,10.1640469 C56.5339874,10.2296719 56.36459,10.8406094 56.36459,10.9452969 C56.36459,11.0499844 56.4175364,11.4015469 56.4951704,11.5187344 C56.5728044,11.6359219 56.8303941,11.8562344 56.8833405,11.9609219 C56.9297656,12.0546719 57.0167157,12.1062344 57.0712148,12.1906094 L57.0632961,12.1952969 L56.209322,12.5077969 L51.8618174,12.5593594 L51.8447379,12.5593594 L51.7702092,8.67967187 Z" id="Fill-87" fill="#CADBE7"></path>
            <path d="M69.9770462,98.0546719 C69.9770462,98.0546719 69.180366,96.8437344 68.3482847,95.5765469 C67.6090536,94.4484219 66.8435823,93.2765469 66.5875453,92.8718594 C66.0906876,92.0859219 65.9833974,91.3671719 65.9292089,90.3734219 C65.9229982,90.2812344 65.9181848,90.1843594 65.9135268,90.0859219 C65.9028133,89.8359219 65.9833974,89.4327969 66.1170832,88.9531094 L63.9338595,88.9796719 C63.8997006,89.1999844 62.9354861,95.4124844 62.8750869,95.9984219 L62.8611128,95.9968594 L62.3176747,98.0546719 L62.314414,98.0656094 C62.3159667,98.0671719 62.3159667,98.0671719 62.3176747,98.0671719 C62.8469834,98.2109219 63.455634,98.2109219 63.533268,98.2109219 C63.610902,98.2109219 65.4353013,98.2765469 65.5517523,98.3406094 C65.6682033,98.4062344 66.1340074,98.6015469 66.2381922,98.6015469 C66.3405139,98.6015469 66.5875453,98.6140469 66.5875453,98.6140469 C66.8327135,98.6406094 67.233305,98.4577969 67.4926026,98.3796719 C67.7520555,98.3015469 67.9849575,98.4062344 68.2954935,98.6140469 C68.6060296,98.8234219 69.1353383,99.6437344 69.3171571,99.7609219 C69.3326839,99.7702969 69.3527135,99.7843594 69.3777116,99.7999844 L70.4489057,99.7999844 C70.3543475,98.5609219 69.9770462,98.0546719 69.9770462,98.0546719" id="Fill-88" fill="#CADBE7"></path>
            <path d="M68.8295224,99.6905781 C68.8233116,99.6797969 68.8155482,99.6671406 68.8062322,99.6546406 C68.7084133,99.5015156 68.5578033,99.2687031 68.4118514,99.0437031 C68.1649752,98.6671406 67.7768052,98.6280781 67.5578773,98.6280781 C67.3373967,98.6280781 66.884014,98.8624531 66.4710011,98.8874531 C66.0564355,98.9140156 65.4866018,98.6530781 65.2148828,98.5749531 C64.9431638,98.4968281 63.8314447,98.4718281 63.5457516,98.4718281 C63.4836444,98.4718281 63.3904835,98.4718281 63.2786906,98.4671406 C63.2631638,98.4671406 63.2460843,98.4671406 63.2305575,98.4655781 C63.1655002,98.4626094 63.0954743,98.4593281 63.024051,98.4546406 L63.0162876,98.4968281 L63.0162876,99.7999531 L68.8761028,99.7999531 L68.8854189,99.7765156 C68.8761028,99.7608906 68.8636813,99.7437031 68.8514152,99.7233906 C68.8450492,99.7126094 68.8372858,99.7015156 68.8295224,99.6905781" id="Fill-89" fill="#CADBE7"></path>
            <path id="Fill-90" fill="#CADBE7"></path>
            <path id="Fill-91" fill="#CADBE7"></path>
            <path d="M61.5319253,29.590625 C61.2695224,29.6 55.8149567,29.7734375 55.5882654,29.8 C55.3553634,29.825 55.0976185,29.8 55.0976185,29.8 C55.1069346,29.58125 55.1224614,29.3875 55.1224614,29.278125 C55.1224614,28.940625 54.5541804,28.653125 54.4501508,28.55 C54.3461213,28.4453125 54.1660104,28.55 53.9843468,28.55 C53.9470824,28.55 53.9144762,28.5375 53.8882359,28.5140625 C53.7824983,28.428125 53.7467867,28.2 53.7250492,28.0546875 C53.7002063,27.871875 53.2080067,27.2734375 53.0791342,27.0125 C52.9487091,26.753125 52.5869346,26.8046875 52.4316665,26.8046875 C52.2763985,26.8046875 52.0698921,26.5703125 51.9394669,26.3875 C51.8105945,26.20625 51.7329604,25.89375 51.7065649,25.7625 C51.681722,25.6328125 50.9302248,25.26875 50.8013523,25.215625 C50.6724799,25.1640625 50.5172118,24.66875 50.5172118,24.4609375 C50.5172118,24.3609375 50.3947054,24.221875 50.2548089,24.1 L52.0698921,24.0703125 L59.469966,23.965625 L59.4854928,23.9984375 C59.4466758,24.025 59.4187275,24.0546875 59.4187275,24.0828125 L59.4187275,24.1484375 C59.4187275,24.1484375 59.4187275,24.6828125 59.4575445,24.746875 C59.4963616,24.8125 59.586417,25.0984375 59.6128126,25.2421875 C59.6392081,25.3859375 59.625234,25.4640625 59.6780251,25.58125 C59.7292636,25.6984375 59.858136,25.91875 59.8845316,26.0234375 C59.9109272,26.128125 60.2214632,27.2609375 60.2338847,27.4171875 C60.2463061,27.5734375 60.3627571,27.6765625 60.3767312,27.5734375 C60.3891527,27.46875 60.3503357,27.1046875 60.2851231,26.921875 C60.2214632,26.7390625 60.0522211,26.20625 60.0397996,26.0359375 C60.0273782,25.8671875 59.9109272,25.1515625 59.9109272,25.0078125 C59.9109272,24.8640625 59.8457146,24.175 59.9357701,24.1359375 C60.0273782,24.096875 60.2338847,24.0703125 60.2727017,24.175 C60.3115187,24.278125 60.2851231,24.34375 60.2851231,24.434375 C60.2851231,24.5265625 60.2727017,24.8640625 60.2990972,25.034375 C60.3239401,25.203125 60.5056037,25.515625 60.5180251,25.6203125 C60.5319993,25.7234375 60.5568421,25.815625 60.5056037,25.8546875 C60.4543652,25.89375 60.4155482,26.0359375 60.4543652,26.140625 C60.4931823,26.2453125 60.6996887,26.8171875 60.6996887,26.8953125 C60.6996887,26.9734375 60.7773227,27.2859375 60.7773227,27.3640625 C60.7773227,27.4421875 60.8549567,27.625 60.8813523,27.7421875 C60.9061952,27.859375 60.9061952,27.9890625 60.9450122,28.0421875 C60.9838292,28.09375 61.2167312,28.40625 61.3471564,28.575 C61.4760288,28.7453125 61.6437183,28.9265625 61.7989863,28.9921875 C61.9542543,29.0578125 62.0971009,29.0828125 62.1747349,29.0046875 C62.2523689,28.9265625 62.3424244,28.796875 62.3563985,28.9015625 C62.36882,29.0046875 62.291186,29.2 62.2135519,29.2265625 C62.1359179,29.253125 62.0070455,29.253125 61.9294115,29.2921875 C61.8704096,29.321875 61.6530344,29.51875 61.535186,29.68125 L61.5319253,29.590625 Z" id="Fill-92" fill="#CADBE7"></path>
            <path d="M60.1561885,23.340625 C60.207427,23.4453125 60.3380074,23.6796875 60.3114566,23.73125 C60.285061,23.784375 60.2603734,23.9265625 60.1561885,23.9265625 C60.052159,23.9265625 59.7945693,23.940625 59.6781183,23.940625 C59.6127505,23.940625 59.5382218,23.965625 59.485586,23.9984375 L59.4699039,23.965625 L52.0699852,24.0703125 L51.91922,16.3421875 L53.4673974,16.309375 C53.4673974,16.309375 53.8802551,17.846875 54.2171867,18.2625 L58.2541553,18.159375 L58.2852089,18.153125 C58.4202921,18.7640625 58.6718262,19.378125 58.7323808,19.5390625 C58.7975933,19.7078125 58.7853272,19.66875 58.7975933,19.7078125 C58.8100148,19.746875 59.6903845,21.140625 59.7416229,21.2453125 C59.7945693,21.3484375 59.8333863,21.4265625 59.7945693,21.440625 C59.7557523,21.453125 59.6781183,21.4796875 59.6393013,21.4015625 C59.6004843,21.3234375 59.4962994,21.20625 59.4574824,21.2578125 C59.4186654,21.309375 59.3675823,21.4921875 59.3146359,21.4015625 C59.2633974,21.309375 59.1205508,21.05 59.1205508,20.9453125 C59.1205508,20.840625 59.1081294,20.6453125 59.0304954,20.59375 C58.9528614,20.5421875 58.6035083,20.45 58.5382957,20.371875 C58.4747911,20.29375 58.3971571,20.190625 58.3583401,20.1375 C58.3195231,20.0859375 58.1765213,20.059375 58.2277597,20.1640625 C58.2807061,20.26875 58.4994787,20.528125 58.4747911,20.59375 C58.4482403,20.659375 58.4094233,20.7890625 58.4606617,20.8796875 C58.5136081,20.971875 58.5912421,21.20625 58.6688762,21.2703125 C58.7465102,21.3359375 58.7975933,21.3625 58.7975933,21.440625 C58.7975933,21.51875 58.8488318,21.85625 58.9528614,21.9609375 C59.0570462,22.065625 59.1593678,22.246875 59.2899482,22.15625 C59.4186654,22.065625 59.4840333,21.753125 59.5616673,21.753125 C59.6393013,21.753125 59.5863549,21.7390625 59.6515675,21.8828125 C59.7169353,22.0265625 59.7945693,22.46875 59.8580739,22.5984375 C59.9232865,22.7296875 60.1051054,23.2375 60.1561885,23.340625" id="Fill-93" fill="#CADBE7"></path>
            <path d="M60.1686255,15.8546563 C60.2074425,15.9577813 60.2462595,16.0499688 60.1439379,16.1280938 C60.039753,16.2062188 59.6004998,16.4015313 59.5475534,16.4796563 C59.496315,16.5577813 59.1857789,16.9734063 58.9916939,16.9734063 C58.7976089,16.9734063 58.4359896,16.9093438 58.3971726,16.8312188 C58.3768325,16.7905938 58.3380155,16.7140313 58.3286994,16.6577813 C58.3210913,16.6062188 58.3364628,16.5718438 58.4094388,16.5968438 C58.5647068,16.6484063 58.8876643,16.7921563 59.0570617,16.6749688 C59.2245959,16.5577813 59.418681,16.3749688 59.379864,16.2452813 C59.341047,16.1140313 59.3534684,16.0499688 59.1469619,16.0359063 C58.9406107,16.0234063 58.3195386,16.0890313 58.2277752,16.1405938 C58.1377198,16.1921563 58.0478196,16.1921563 58.0478196,16.3359063 C58.0478196,16.3812188 58.055583,16.5046563 58.0725072,16.6734063 C58.1082189,17.0421563 58.1782447,17.6296563 58.2665922,18.0671563 C58.272803,18.0952813 58.2790137,18.1234063 58.2852244,18.1530938 L58.2541708,18.1593438 L54.2172022,18.2624688 C53.8802706,17.8468438 53.4674129,16.3093438 53.4674129,16.3093438 L51.9192355,16.3421563 L51.8448621,12.5593438 L51.8617863,12.5593438 L56.2092909,12.5077813 L57.0632651,12.1952813 L57.0711837,12.1905938 C57.0789471,12.1999688 57.0851579,12.2109063 57.0896606,12.2218438 C57.1408991,12.3249688 57.2714795,12.7155938 57.2714795,12.9109063 C57.2714795,13.1062188 57.2837457,13.8093438 57.6330987,14.1218438 C57.9824518,14.4343438 59.3022299,15.1905938 59.535132,15.2030938 C59.768034,15.2155938 59.8722189,15.1765313 59.9357235,15.1640313 C60.000936,15.1515313 60.0785701,15.0343438 60.0785701,15.1374688 C60.0785701,15.2421563 60.0785701,15.5030938 60.1051209,15.6202813 C60.1298085,15.7374688 60.1298085,15.7499688 60.1686255,15.8546563" id="Fill-94" fill="#CADBE7"></path>
            <path d="M53.1444503,28.8937213 L53.8802396,28.5234219 L53.8881582,28.5140469 C53.7824207,28.4281094 53.7468643,28.1999844 53.7249715,28.0546719 C53.7002839,27.8718594 53.207929,27.2734219 53.0792118,27.0124844 C52.9486314,26.7531094 52.5868569,26.8046719 52.4315889,26.8046719 C52.2763209,26.8046719 52.0699697,26.5702969 51.9393893,26.3874844 C51.8105168,26.2062344 51.7328828,25.8937344 51.7064872,25.7624844 C51.6817996,25.6327969 50.9301471,25.2687344 50.8012747,25.2156094 C50.6725575,25.1640469 50.5172895,24.6687344 50.5172895,24.4609219 C50.5172895,24.3609219 50.3946277,24.2218594 50.2548865,24.0999844 C50.1058292,23.9718594 49.9365871,23.8624844 49.8696665,23.8359219 C49.7409494,23.7843594 49.6367645,23.6796719 49.4304133,23.4452969 C49.3620954,23.3671719 49.281356,23.2937344 49.1975113,23.2249844 L49.2221989,24.0702969 L47.6229383,24.0999844 C49.459759,25.5421719 51.6833523,27.2952969 51.6833523,27.2952969 C51.6833523,27.2952969 51.6833564,27.2952991 51.6833646,27.2953035 C51.6776912,27.2908281 49.4574478,25.540352 47.6229848,24.1000156 L40.7354506,24.2265781 L40.7120052,24.2359531 L41.4852399,26.1531406 L41.718142,26.1531406 L41.718142,27.5859531 L42.2104969,27.5859531 L42.26158,28.3672031 L42.5457205,29.0437656 L42.5457205,29.0656406 C43.6636503,29.0500156 45.0532991,29.0297031 46.4538166,29.0093906 C49.7501567,28.9625156 53.103946,28.9140781 53.103946,28.9140781 L53.144471,28.8937656 C53.1444641,28.8937509 53.1444572,28.8937361 53.1444503,28.8937213 Z" id="Combined-Shape" fill="#CADBE7"></path>
            <path d="M49.1975113,23.2249687 C49.0281139,23.0812187 48.8435002,22.9593437 48.7051564,22.8718437 C48.4988052,22.7421562 48.4722543,22.5859062 48.4722543,22.4030937 C48.4722543,22.2218437 48.0840843,21.9609062 47.9024207,21.7780937 C47.7719956,21.6468437 47.6153301,20.8640312 47.5266721,20.2921562 C47.4940658,20.0718437 47.4709309,19.8812187 47.4630122,19.7734062 C47.4366166,19.3827812 47.6182802,18.9655937 47.6959142,18.8624687 C47.7735482,18.7577812 47.8777331,18.3155937 47.8777331,18.0546562 C47.8777331,17.8234062 47.8156259,16.8296562 47.784417,16.4296562 L51.9192044,16.3421562 L52.0699697,24.0702812 L50.2578366,24.0968437 L50.2548865,24.0999687 C50.1058292,23.9718437 49.9365871,23.8624687 49.8696665,23.8359062 C49.7409494,23.7843437 49.6367645,23.6796562 49.4304133,23.4452812 C49.3620954,23.3671562 49.281356,23.2937187 49.1975113,23.2249687" id="Fill-97" fill="#CADBE7"></path>
            <path d="M49.1975113,23.2249688 C49.0281139,23.0812188 48.8435002,22.9593438 48.7051564,22.8718438 C48.4988052,22.7421563 48.4722543,22.5859063 48.4722543,22.4030938 C48.4722543,22.2218438 48.0840843,21.9609063 47.9024207,21.7780938 C47.7719956,21.6468438 47.6153301,20.8640313 47.5266721,20.2921563 L47.5142506,20.2937188 L43.1964022,20.3687188 L41.5364318,20.3984063 L41.5628274,22.2999688 L39.9449346,22.3327813 L40.7121139,24.2359063 L40.7354041,24.2265313 L47.6229383,24.0999688 L49.2221989,24.0702813 L49.1975113,23.2249688 Z" id="Fill-98" fill="#CADBE7"></path>
            <path d="M42.545705,29.04375 L42.545705,29.065625 C41.205742,29.084375 40.2555017,29.096875 40.1390506,29.096875 C39.7369065,29.096875 38.8768769,29.009375 38.7369804,28.9953125 L38.657949,22.3578125 L39.9449656,22.3328125 L40.7119896,24.2359375 L41.4852244,26.153125 L41.7181264,26.153125 L41.7181264,27.5859375 L42.2104813,27.5859375 L42.2615645,28.3671875 L42.545705,29.04375 Z" id="Fill-99" fill="#CADBE7"></path>
            <path d="M39.2851542,38.73125 L38.9513279,38.75625 C38.9358011,37.7921875 38.9140636,36.55 38.9031948,35.8671875 C38.9000895,35.596875 38.8969841,35.4140625 38.8969841,35.371875 C38.8969841,35.1375 38.7945072,33.784375 38.7945072,33.784375 L38.737058,28.9953125 C38.7230839,28.9921875 38.7168732,28.9921875 38.7168732,28.9921875 C38.7168732,28.9921875 34.8351726,28.3671875 34.5246366,28.340625 C34.2141006,28.315625 31.4192762,28.340625 31.0311061,28.340625 C30.642936,28.340625 29.9954684,28.3671875 29.7361708,28.2375 C29.6989065,28.21875 29.5948769,28.16875 29.4442669,28.0984375 C28.5716606,27.6890625 26.1401634,26.5703125 26.1401634,26.5703125 L26.1308473,26.5703125 L26.2177974,30.346875 L32.1179823,30.2421875 L32.3431209,40.33125 L32.3757272,41.8046875 L39.0274092,41.6484375 L39.0165405,40.834375 L39.0087771,40.096875 L39.0010137,39.4875 L39.2851542,39.4875 L39.2851542,38.73125 Z" id="Fill-100" fill="#CADBE7"></path>
            <path d="M38.6578713,22.3578125 L38.737058,28.9953125 C38.7230839,28.9921875 38.7168732,28.9921875 38.7168732,28.9921875 C38.7168732,28.9921875 34.8351726,28.3671875 34.5246366,28.340625 C34.2141006,28.315625 31.4192762,28.340625 31.0311061,28.340625 C30.642936,28.340625 29.9954684,28.3671875 29.7361708,28.2375 C29.6989065,28.21875 29.5948769,28.16875 29.4442669,28.0984375 L29.4520303,28.08125 C29.2455238,27.8984375 29.2191283,27.4296875 29.2191283,27.4296875 L29.1678898,22.559375 L29.1678898,22.55 L31.9627142,22.49375 L38.6578713,22.3578125 Z" id="Fill-101" fill="#CADBE7"></path>
            <path d="M38.6128281,18.5234219 L38.6578558,22.3577969 L31.9626987,22.4937344 L31.9626987,22.4812344 L31.8586691,18.6281094 L29.9442144,18.6796719 L29.8665804,16.8046719 L29.8914233,16.8046719 L29.8401848,14.5656094 L33.6954898,14.5124844 L33.670647,14.7999844 L34.9640296,14.8781094 L35.1192976,14.6687344 L35.5307579,14.6640469 C36.2310166,15.1749844 36.9530129,15.7015469 37.651719,16.2109219 C37.8473567,16.3546719 38.0429945,16.4968594 38.2339741,16.6359219 L38.224658,16.6484219 L37.8100924,16.6218594 L38.6128281,18.5234219 Z" id="Fill-102" fill="#CADBE7"></path>
            <path d="M37.0616695,7.03432812 L36.4902832,7.03901562 L34.6270669,5.86714062 L34.7310965,4.01870312 L33.6954588,3.99214062 L33.5665863,5.19057812 L33.2560503,5.03432812 L32.5837397,3.21089062 L31.8586381,3.15932812 L31.8586381,2.24682812 L31.470468,2.22182812 L31.392834,3.10620312 L29.5032222,3.08120312 L30.7205235,5.03432812 L29.1600799,6.06245312 L29.1678433,6.07495312 L29.7361242,6.44057812 L30.6428895,6.23120312 L31.0559024,5.44995312 L31.4192296,6.93432812 L33.0231482,7.01245312 L33.0743867,7.63745312 L32.6613738,7.94995312 L32.7638506,8.39370312 L33.1007823,8.49682812 L33.0495438,9.07026562 L33.6442203,9.25307812 L34.0059948,8.91401562 L34.3941649,9.07026562 L34.8351261,8.70620312 L35.1456621,9.43432812 L36.1021131,12.0905781 L36.1797471,13.4968281 L36.6719468,13.4968281 L36.7216325,14.6499531 L37.612871,14.6405781 C37.5942388,13.9593281 37.5771593,13.2983906 37.5771593,13.2374531 C37.5771593,13.1843281 37.5818174,12.9952656 37.5926861,12.7671406 C37.6066603,12.4233906 37.6346085,11.9921406 37.6811889,11.8046406 C37.7106898,11.6827656 37.6439246,11.4640156 37.5336843,11.2140156 L37.5523165,11.2062031 L37.6299505,10.7374531 L39.493322,10.7890156 L39.5180096,9.74682812 C40.1654773,9.46089062 40.4249301,8.83589062 40.4249301,8.83589062 L40.8131002,8.86245312 L41.7957915,7.01245312 L41.7957915,6.99057812 L37.0616695,7.03432812 Z" id="Fill-103" fill="#CADBE7"></path>
            <path d="M47.8777331,18.0546719 C47.8777331,17.8234219 47.8156259,16.8296719 47.784417,16.4296719 L41.2012081,16.5702969 L39.5708939,15.0859219 L39.5955815,14.6171719 L37.6129641,14.6406094 L36.7215704,14.6499844 L35.53082,14.6640469 C36.2310787,15.1749844 36.953075,15.7015469 37.6517811,16.2109219 C37.8472636,16.3546719 38.0430566,16.4968594 38.2340362,16.6359219 L38.2247201,16.6484219 L37.8101545,16.6218594 L38.6128902,18.5234219 L38.6579179,22.3577969 L39.9449346,22.3327969 L41.5628274,22.2999844 L41.5364318,20.3984219 L43.1964022,20.3687344 L47.5142506,20.2937344 L47.5266721,20.2921719 C47.4940658,20.0718594 47.4709309,19.8812344 47.4630122,19.7734219 C47.4366166,19.3827969 47.6182802,18.9656094 47.6959142,18.8624844 C47.7735482,18.7577969 47.8777331,18.3156094 47.8777331,18.0546719" id="Fill-104" fill="#CADBE7"></path>
            <polygon id="Fill-105" fill="#CADBE7" points="36.6719778 13.496875 36.1797782 13.496875 36.1021442 12.090625 35.1456932 9.434375 34.8351571 8.70625 34.3941959 9.0703125 34.0060259 8.9140625 33.6442514 9.253125 33.0495749 9.0703125 33.1008133 8.496875 32.7638817 8.39375 32.6614048 7.95 33.0744177 7.6375 33.0231793 7.0125 31.4192606 6.934375 30.849427 6.934375 30.8230314 7.3 31.8074307 7.8984375 31.7810351 10.7625 29.8914233 10.7890625 29.8898706 10.853125 29.8401848 14.5390625 29.8401848 14.565625 33.6954898 14.5125 33.670647 14.8 34.9640296 14.878125 35.1192976 14.66875 35.5307579 14.6640625 36.7216636 14.65"></polygon>
            <path d="M31.9626832,22.48125 L31.9626832,22.49375 L29.1678588,22.55 L26.0361028,22.6125 L26.0361028,23.6015625 L24.1216481,23.6015625 L24.1216481,22.6640625 L20.7585427,22.71875 L20.7585427,22.6921875 L20.7212784,20.8015625 L20.222868,20.8015625 L20.184051,16.98125 L20.2135519,16.9609375 L20.8610196,16.934375 C20.8610196,16.934375 21.2227941,18.340625 21.1451601,18.8625 L25.5966943,18.70625 L28.4691527,16.8046875 L29.8665649,16.8046875 L29.9441989,18.6796875 L31.8586536,18.628125 L31.9626832,22.48125 Z" id="Fill-106" fill="#CADBE7"></path>
            <path d="M29.4520148,28.0812188 L29.4442514,28.0984063 C28.5716451,27.6890313 26.1401479,26.5702813 26.1401479,26.5702813 L26.1308318,26.5702813 L26.0625139,23.6015313 L26.0361183,23.6015313 L26.0361183,22.6124688 L29.1678743,22.5499688 L29.1678743,22.5593438 L29.2191128,27.4296563 C29.2191128,27.4296563 29.2455083,27.8984063 29.4520148,28.0812188" id="Fill-107" fill="#CADBE7"></path>
            <polygon id="Fill-108" fill="#CADBE7" points="26.1913863 5.89685937 26.1913863 5.91873437 26.1649908 7.48123437 25.4662847 7.48123437 25.4662847 7.06560937 23.0860259 7.14373437 23.1372643 3.26248437 23.5254344 3.26248437 23.4229575 2.32498437 23.1636599 2.14373437 23.1372643 1.33592187 26.0625139 1.30935937 26.0097227 5.89373437"></polygon>
            <polygon id="Fill-109" fill="#CADBE7" points="30.823047 7.29996875 30.8494425 6.93434375 31.4192762 6.93434375 31.055949 5.44996875 30.642936 6.23121875 29.7361708 6.44059375 29.1678898 6.07496875 29.1601264 6.06246875 29.1414943 6.07496875 27.9257457 5.99684375 27.8729545 6.33590625 27.3823076 6.30934375 27.3046736 5.91871875 26.1914018 5.89684375 26.1914018 5.91871875 26.1650063 7.48121875 25.4663002 7.48121875 25.4663002 7.06559375 23.0860414 7.14371875 22.7444518 10.3734062 22.5162078 12.5343437 21.3516976 12.5343437 21.4293316 11.9093437 21.7662632 11.9093437 21.7926588 11.4655937 20.601753 11.4655937 20.6529915 10.8155937 21.0163187 10.5812187 21.8438972 10.6062187 21.8175017 10.9968437 22.3097013 11.0234062 22.423047 10.3218437 22.4649693 10.0593437 20.3377974 9.66403125 20.3377974 10.3765312 20.3377974 12.7374687 20.3377974 12.7421562 20.8346551 12.7421562 20.8858935 13.3937187 22.1280377 13.3937187 22.1280377 13.0812187 23.6807179 13.0546562 23.6807179 14.0187187 24.068888 14.0187187 24.068888 13.0546562 25.9584998 12.9765312 25.9584998 14.5390312 29.8402004 14.5390312 29.8898861 10.8530937 29.8914388 10.7890312 31.7810506 10.7624687 31.8074462 7.89840625"></polygon>
            <path d="M20.7212939,20.8015625 L20.2228835,20.8015625 L20.1840665,16.98125 L20.2135675,16.9609375 L20.1871719,15.1375 L18.3239556,15.059375 L18.3239556,13.70625 L19.2555638,13.7578125 L19.2555638,14.1484375 L20.084695,14.1484375 L20.084695,13.2375 L19.3331978,13.2109375 L19.3331978,12.7421875 L20.3377819,12.7421875 L20.3377819,12.7375 L20.3377819,10.3765625 L20.3377819,9.6640625 L16.3054713,8.9140625 L16.3039187,8.915625 C16.4157116,9.021875 16.4995564,9.1296875 16.4871349,9.2 C16.4607394,9.35625 16.3054713,9.8515625 16.3054713,9.98125 C16.3054713,10.0015625 16.307024,10.040625 16.3085767,10.09375 C16.8737523,10.3578125 17.4342699,10.534375 17.90939,10.534375 L17.90939,10.5359375 C17.5584843,10.5453125 16.9731238,10.559375 16.3272089,10.575 C16.3334196,10.890625 16.3225508,11.2375 16.2542329,11.3625 C16.1253604,11.596875 15.4778928,12.6125 15.4002588,12.79375 C15.3614418,12.884375 15.2977819,12.9796875 15.268281,13.0765625 C15.23878,13.175 15.2434381,13.2734375 15.345915,13.3640625 C15.3474677,13.365625 15.3474677,13.365625 15.3490203,13.3671875 C15.5555268,13.55 15.6595564,13.70625 15.8924584,13.70625 C16.1253604,13.70625 16.720037,13.55 16.720037,13.8625 C16.720037,14.175 16.642403,15.215625 16.5647689,15.371875 C16.4871349,15.528125 16.3054713,16.3875 16.2542329,16.51875 C16.2029945,16.6484375 15.7884288,17.3515625 15.8660628,17.5859375 C15.9126433,17.728125 16.0275416,17.8796875 16.1439926,18.00625 L16.1765989,17.9765625 L18.0398152,18.028125 L18.0134196,19.04375 L16.8380407,19.01875 C16.836488,19.0453125 16.8318299,19.0703125 16.8240665,19.096875 C16.720037,19.409375 16.5911645,19.825 16.6160074,19.9296875 C16.642403,20.034375 17.2898706,22.3515625 17.3923475,22.45625 C17.4513494,22.5140625 17.5833272,22.646875 17.7059889,22.79375 L17.7556747,22.76875 L20.7585582,22.71875 L20.7585582,22.6921875 L20.7212939,20.8015625 Z" id="Fill-110" fill="#CADBE7"></path>
            <path d="M15.2682654,13.0765781 L15.2294484,13.0640781 L13.8460104,13.0734531 L11.6660473,13.0890781 L11.6691527,12.9125156 L12.9889309,12.3125156 L12.6349198,10.8812656 L11.7933671,7.47501563 L10.8974706,7.42501563 L10.8726277,6.79845313 L8.63211017,6.27345313 L8.63211017,5.87189063 L7.8604281,5.92189063 L7.13687911,5.37032813 L7.23780333,5.14532813 L8.0094854,5.62189063 L9.6025353,5.64689063 L9.57769242,5.14532813 C9.45658336,5.06095313 9.25007689,4.94689063 8.9985427,4.82032813 C8.14146322,4.41251563 7.1539586,3.99064063 6.4863061,3.71720313 L6.39003993,4.89532813 L5.49414344,4.92032813 L5.49414344,3.99220313 L5.19602884,3.99220313 L5.19602884,4.92032813 L3.6759549,4.97032813 L3.07972569,4.31876563 L2.23196229,4.97032813 L1.46028022,4.92032813 L1.46028022,4.11876563 L1.11247985,4.11876563 L1.11247985,5.94689063 L0.0411304991,5.94689063 L0.0411304991,6.72345313 L0.688598152,6.72345313 C0.688598152,6.72345313 0.340797782,7.37501563 0.289559335,7.95157813 L0.0908162662,7.95157813 L0.1901878,15.5937656 L1.68541885,15.6437656 L1.65902329,16.8968906 L2.75521553,17.0468906 L2.75521553,18.2000156 L3.57658336,18.4500156 L3.57658336,17.2484531 L4.9708902,17.5734531 L4.99573309,18.7515781 C4.99573309,18.7515781 6.29066839,19.1515781 6.81392163,19.2281406 C7.33717486,19.3031406 9.25473494,19.2781406 9.25473494,19.2781406 L9.25473494,17.3234531 C9.80127837,17.2984531 11.594624,17.6234531 11.594624,17.6234531 L11.6613893,13.4140781 L13.7947719,13.3859531 L15.3458994,13.3640781 C15.2434226,13.2734531 15.2387645,13.1750156 15.2682654,13.0765781" id="Fill-111" fill="#CADBE7"></path>
            <path d="M70.6498226,86.9346875 L70.6498226,87.9632812 C70.6498226,87.9632812 70.6628651,88.1326562 70.5981183,88.1846875 C70.5333715,88.2367187 70.46878,88.2759375 70.46878,88.3279687 C70.46878,88.38 70.4169205,88.5101562 70.4169205,88.5101562 L69.3688614,88.3929687 L68.6443808,88.4060937 C68.6443808,88.4060937 68.4502957,88.3539062 68.4891128,88.22375 C68.5279298,88.0935937 68.6055638,87.8853125 68.618451,87.7029687 C68.6313383,87.520625 68.6703105,87.1170312 68.7220148,86.9998437 C68.773719,86.8826562 68.8123808,86.6092187 68.9418743,86.6092187 C69.0713678,86.6092187 69.8477079,86.8435937 69.9382292,86.8826562 C70.0287505,86.9217187 70.170976,87.0517187 70.2616525,87.0648437 C70.352329,87.0779687 70.6498226,86.9346875 70.6498226,86.9346875" id="Fill-112" fill="#CADBE7"></path>
            <path d="M72.0472348,86.505 C72.0472348,86.505 72.4872643,86.426875 72.5389686,86.583125 C72.5906728,86.739375 72.6813494,87.3123438 72.6813494,87.3123438 C72.6813494,87.3123438 72.6683068,87.53375 72.5777856,87.5857813 C72.4872643,87.6378125 72.2931793,87.6639063 72.2543623,87.7029688 C72.2155453,87.7420313 72.137756,87.7942188 72.1636858,87.8853125 C72.1896155,87.9764063 72.2672495,88.1065625 72.2672495,88.1065625 L72.2543623,88.3540625 L71.2968244,88.393125 C71.2968244,88.393125 71.1544436,88.4971875 71.1932606,88.5753125 C71.2320776,88.6534375 71.3097116,88.7317188 71.3097116,88.78375 C71.3097116,88.8357813 70.9734011,88.8878125 70.9734011,88.8878125 L70.9734011,88.2759375 C70.9734011,88.2759375 71.2580074,88.236875 71.2968244,88.15875 C71.3356414,88.080625 71.4392052,87.703125 71.4132754,87.5728125 C71.3873457,87.4425 71.2451201,87.195 71.3615712,87.1690625 C71.4780222,87.143125 71.6332902,87.15625 71.6332902,87.2603125 C71.6332902,87.364375 71.6461774,87.7290625 71.6461774,87.7290625 L71.7885582,87.7420313 L71.7885582,87.3514063 L72.2413198,87.3384375 L72.2543623,87.0389063 C72.2543623,87.0389063 71.9177412,87.065 71.9696007,86.986875 C72.0214603,86.90875 72.0343475,86.8696875 72.0343475,86.7915625 C72.0343475,86.7134375 72.0472348,86.505 72.0472348,86.505" id="Fill-113" fill="#CADBE7"></path>
            <path d="M83.7828577,92.1171719 C83.7828577,92.1562344 83.8993087,92.2473281 83.9640555,92.2734219 C84.0288022,92.2995156 83.9511682,92.6118594 83.9381257,92.7160781 C83.9250832,92.8202969 83.8216747,92.8071719 83.7570832,92.8071719 C83.6924917,92.8071719 83.6147024,93.1327969 83.5758854,93.2109219 C83.5370684,93.2890469 83.5887726,93.5102969 83.5370684,93.5884219 C83.4853641,93.6665469 83.4077301,93.5363906 83.3558706,93.4452969 C83.3040111,93.3542031 83.2136451,93.4973281 83.1877153,93.5754531 C83.1617856,93.6535781 83.0324473,93.6796719 82.9419261,93.6926406 C82.8514048,93.7056094 82.8771793,93.7837344 82.9548133,93.8618594 C83.0324473,93.9399844 83.0583771,93.9790469 83.0065176,94.0702969 C83.0065176,94.0702969 82.8512495,94.0832656 82.7995453,94.0832656 C82.747841,94.0832656 82.7995453,94.0832656 82.6959815,94.1093594 C82.5924177,94.1354531 82.553756,94.5259219 82.5018965,94.6692031 C82.450037,94.8124844 82.1267689,95.0207656 81.9972754,95.0598281 C81.8677819,95.0988906 81.5185841,95.2290469 81.4280628,95.2290469 C81.3375416,95.2290469 81.2985693,95.0727969 81.2985693,95.0727969 L81.2468651,94.5390469 C81.2468651,94.5390469 81.2339778,94.4609219 81.2080481,94.3176406 C81.1821183,94.1743594 81.0656673,94.4087344 81.0398928,94.5129531 C81.0141183,94.6171719 81.0787098,95.2942031 81.0787098,95.2942031 L80.819878,95.3462344 L80.819878,96.6352969 C80.819878,96.6352969 81.1563438,96.7395156 81.3116118,96.8176406 C81.4668799,96.8957656 81.3504288,97.0910781 81.2985693,97.1952969 C81.2467098,97.2995156 81.0398928,97.3515469 80.9622588,97.4035781 C80.8846248,97.4556094 80.8458078,97.7290469 80.8458078,97.7290469 L80.7293567,97.7421719 C80.7293567,97.7421719 80.2118484,96.8567031 80.0435379,96.5832656 C79.8752274,96.3098281 78.9954787,96.0624844 78.9954787,96.0624844 L78.9566617,96.9870156 L78.6591682,96.9870156 C78.6591682,96.9870156 78.6720555,96.9348281 78.6720555,96.8698281 C78.6720555,96.8048281 78.8013937,96.7004531 78.8013937,96.6223281 C78.8013937,96.5442031 78.7368022,96.4792031 78.6720555,96.4270156 C78.6073087,96.3748281 78.6461257,96.2448281 78.6332384,96.1535781 C78.6203512,96.0623281 78.3744067,96.0104531 78.2967726,95.8801406 C78.2191386,95.7498281 78.2450684,95.4245156 78.2579556,95.3723281 C78.2708429,95.3201406 78.2709982,94.7995156 78.2967726,94.7213906 C78.3225471,94.6432656 78.3874492,94.4738906 78.3874492,94.3567031 C78.3874492,94.2395156 78.5039002,93.9792031 78.5427172,93.9270156 C78.5815342,93.8748281 78.7625767,93.5363906 78.8144362,93.3671719 C78.8662957,93.1979531 78.9049575,92.8723281 78.9049575,92.7812344 C78.9049575,92.6901406 79.2283808,92.3645156 79.2931275,92.3124844 C79.3578743,92.2604531 79.3707616,92.1692031 79.3836488,92.0781094 C79.396536,91.9870156 79.6295933,91.8698281 79.6295933,91.8698281 L80.509342,91.8957656 L80.781061,92.2213906 L81.130414,92.2213906 L81.1175268,91.7785781 L81.2468651,91.7656094 L81.2727948,92.1432656 C81.2727948,92.1432656 81.6092606,92.1042031 81.6738521,92.0520156 C81.7384436,91.9998281 81.7126691,91.8046719 81.6997819,91.7135781 C81.6868946,91.6224844 81.6868946,91.2968594 81.6868946,91.1796719 L81.6868946,90.2421719 C81.6868946,90.1510781 81.7514861,89.8385781 81.7903031,89.7213906 C81.8291201,89.6042031 82.4890092,89.0573281 82.6185028,88.9140469 C82.7479963,88.7707656 83.0324473,88.1848281 83.1100813,87.9635781 C83.1877153,87.7423281 83.2136451,88.0417031 83.2007579,88.1327969 C83.2007579,88.1327969 83.0195601,88.6927969 82.9031091,88.8359219 C82.786658,88.9790469 82.4113752,89.3957656 82.3725582,89.4348281 C82.3337412,89.4738906 82.3078115,89.5127969 82.3725582,89.5649844 C82.437305,89.6171719 82.476122,89.6171719 82.4890092,89.7473281 C82.5018965,89.8774844 82.450037,90.0468594 82.5407135,90.1249844 C82.63139,90.2031094 82.747841,90.2812344 82.747841,90.3984219 C82.747841,90.5156094 82.6959815,90.6587344 82.8124325,90.7238906 C82.9288835,90.7890469 83.0841516,90.8279531 83.0841516,90.8931094 C83.0841516,90.9582656 83.0711091,91.3877969 83.1617856,91.4399844 C83.2524621,91.4921719 83.5111386,91.4921719 83.5499556,91.5051406 C83.5887726,91.5181094 83.6792939,91.5702969 83.7052237,91.7004531 C83.7311534,91.8306094 83.7828577,92.1171719 83.7828577,92.1171719" id="Fill-115" fill="#CADBE7"></path>
            <path d="M67.7286876,70.2594219 L67.2333826,69.7781719 L67.3793346,68.7703594 L67.5873937,68.7906719 L67.5672089,67.8670781 L67.8171904,67.9094219 C67.8389279,67.7406719 67.7131608,66.5858281 67.7131608,66.5858281 L67.8591128,65.9969219 L67.8591128,65.9873906 L72.8758226,65.9187969 L72.888244,65.9109844 C72.9456932,65.9891094 73.000037,66.0625469 73.043512,66.1141094 C73.1723845,66.2703594 73.3540481,66.3484844 73.3664695,66.4266094 C73.3804436,66.5047344 73.4316821,66.7656719 73.5217375,66.8702031 C73.6133457,66.9734844 73.8850647,67.2078594 73.9626987,67.1953594 C74.0403327,67.1827031 74.1567837,67.0781719 74.1692052,67.1827031 C74.1816266,67.2859844 74.2204436,67.7156719 74.1692052,67.7686406 C74.1179667,67.8203594 73.9238817,67.8858281 73.9751201,67.9891094 C74.0263586,68.0937969 74.2980776,68.4187969 74.4409242,68.5750469 C74.5837708,68.7312969 74.8943068,69.0047344 74.9843623,69.0186406 C75.0744177,69.0312969 75.1272089,68.9922344 75.1908688,69.0967656 C75.2560813,69.2000469 75.4237708,69.4873906 75.8507579,69.6297344 C76.2777449,69.7734844 76.6534935,69.8641094 76.7963401,69.7217656 C76.937634,69.5781719 76.937634,69.4219219 76.9516081,69.3828594 C76.9640296,69.3437969 76.976451,69.3437969 77.054085,69.3437969 C77.131719,69.3437969 77.1845102,69.3311406 77.2869871,69.4873906 C77.3910166,69.6436406 77.5338632,69.9687969 77.6239187,70.0203594 C77.7139741,70.0733281 77.9468762,70.2031719 77.8180037,70.3077031 C77.6906839,70.4094219 77.2745656,70.6906719 77.2264325,70.8344219 L77.209353,70.8281719 L76.7916821,71.1016094 L76.4780407,70.7639531 L75.4346396,71.6266094 L69.2782625,71.7092656 L69.2487616,71.7405156 L67.7286876,70.2594219 Z" id="Fill-37" fill="#FD4141"></path>
            <polygon id="Fill-39" fill="#FD4141" points="65.0099911 54.434375 65.0705457 58.3484375 60.7494366 58.44375 60.6423017 52.7265625 63.845481 52.6609375 64.9818876 52.6375"></polygon>
            <path d="M63.2460843,64.17025 L63.2227941,62.6124375 L65.1372488,62.579625 L69.3294854,62.50775 L69.3527756,62.5047812 C69.3760658,62.7469687 69.4336702,63.2968125 69.4336702,63.379625 L69.4336702,63.4843125 C69.4336702,63.4843125 69.4847534,63.8093125 69.5889383,63.835875 C69.6928126,63.8624375 69.8606573,63.9015 69.9117405,63.8093125 C69.9645316,63.7186875 69.9382913,63.4718125 70.0281915,63.4718125 C70.1197996,63.4718125 70.2610935,63.45775 70.2876444,63.3936875 C70.3138847,63.3280625 70.3527017,63.3155625 70.2610935,63.2765 C70.1711933,63.2374375 70.0421656,63.1843125 70.0421656,63.067125 C70.0421656,62.9499375 70.0159253,62.6905625 70.0670085,62.6249375 C70.1197996,62.5593125 70.1586166,62.429625 70.3138847,62.417125 C70.3961767,62.410875 70.4971009,62.3843125 70.584051,62.37025 C70.6585797,62.360875 70.7222396,62.3593125 70.7534484,62.3905625 C70.8185057,62.4561875 70.7563985,62.5468125 70.7563985,62.5468125 C70.7579512,62.8188437 70.8231638,63.1297812 71.2454928,63.4061875 C71.8403246,63.7968125 72.1120436,63.8093125 72.1120436,63.8093125 C72.1120436,63.8093125 72.4348458,63.914 72.2019438,63.9530625 C71.9690418,63.992125 71.6585057,64.08275 71.6196887,64.160875 C71.5808717,64.239 71.5297885,64.3311875 71.4644207,64.3436875 C71.4644207,64.3436875 71.2703357,64.4093125 71.2192525,64.5124375 C71.1678588,64.617125 71.1290418,64.839 71.1538847,64.942125 C71.1804355,65.0468125 71.2968865,65.254625 71.2454928,65.254625 C71.1927017,65.254625 70.9863505,65.2936875 70.9597996,65.2030625 C70.9349567,65.1124375 70.9087165,65.0468125 70.8573227,64.929625 C70.8045316,64.8124375 70.7268976,64.68275 70.7657146,64.5655625 C70.8045316,64.448375 70.8185057,64.2655625 70.7408717,64.292125 C70.6632377,64.317125 70.3915187,64.4093125 70.4040954,64.5515 C70.4163616,64.69525 70.3775445,64.773375 70.4429124,64.8515 C70.5079697,64.929625 70.6104466,65.00775 70.5716296,65.0593125 C70.5328126,65.1124375 70.5205464,65.1515 70.5716296,65.2030625 C70.6244207,65.254625 70.9475335,65.398375 71.0514078,65.398375 C71.1538847,65.398375 71.4783948,65.410875 71.5686055,65.3718125 C71.6585057,65.33275 71.7889309,65.3468125 71.7501139,65.2030625 C71.7112969,65.0593125 71.7112969,64.99525 71.6196887,64.917125 C71.5297885,64.839 71.3867867,64.629625 71.4909715,64.5780625 C71.5948458,64.5265 71.6462396,64.4343125 71.7749567,64.5780625 C71.9053819,64.7218125 72.5002137,65.410875 72.5901139,65.5155625 C72.6506684,65.5860312 72.7748828,65.75775 72.8883837,65.9110312 L72.8759623,65.9186875 L67.8590972,65.9874375 L65.1636444,66.023375 L65.1900399,67.82025 L63.2973227,65.9936875 L63.2740325,65.9718125 L63.2460843,64.17025 Z" id="Fill-41" fill="#FD4141"></path>
            <path d="M70.1057789,57.9640312 C70.1323298,58.0421562 70.0935128,58.1718437 70.0810913,58.2234062 C70.0810913,58.2265312 70.0793834,58.2327812 70.0793834,58.2390312 L70.0546957,58.2374687 L65.070437,58.3484062 L65.0100377,54.4343437 L67.829705,54.4093437 L67.8374684,54.4062187 C67.9227105,54.6452812 68.0143187,54.9609062 68.0748732,55.0734062 C68.1526625,55.2155937 68.2813797,55.4765312 68.3467475,55.5671562 C68.4119601,55.6593437 68.4631985,55.7624687 68.5672281,55.8280937 C68.6695497,55.8937187 68.8125516,55.9843437 68.8125516,56.0624687 C68.8125516,56.1405937 68.9024518,56.5312187 68.9412688,56.5827812 C68.9800858,56.6359062 68.9800858,56.7921562 69.1619046,56.9999687 C69.3435682,57.2077812 69.7952429,57.7546562 69.8481893,57.8077812 C69.8994277,57.8593437 70.0810913,57.8859062 70.1057789,57.9640312" id="Fill-43" fill="#FD4141"></path>
            <polygon id="Fill-45" fill="#FD4141" points="65.0704835 58.3484062 65.1372488 62.5796562 63.2227941 62.6124687 63.2460843 64.1702812 61.3890787 64.1921562 61.3688939 63.2890312 60.8409826 63.2735625 60.7881915 60.4374687 60.7493745 58.4437187"></polygon>
            <path d="M71.1027394,60.059375 C71.1291349,60.3859375 70.7797819,60.29375 70.7797819,60.29375 C70.7797819,60.29375 70.5327505,60.2421875 70.4692458,60.5671875 C70.4040333,60.89375 70.3527948,61.0890625 70.4304288,61.23125 C70.4971941,61.35625 70.7004399,61.771875 70.7533863,62.0921875 C70.7533863,62.0921875 70.8044695,62.14375 70.8698373,62.1953125 C70.8698373,62.1953125 70.6835157,62.2515625 70.5715675,62.26875 C70.5513826,62.271875 70.5344584,62.2734375 70.5204843,62.2734375 C70.4304288,62.2734375 70.1323142,62.3125 70.0546802,62.246875 C69.9770462,62.1828125 69.8093567,62.090625 69.8340444,61.9875 C69.8605952,61.8828125 69.8994122,61.753125 69.8605952,61.7140625 C69.8217782,61.675 69.6665102,61.6484375 69.5764547,61.6484375 C69.4846913,61.6484375 69.2906063,61.675 69.3294233,61.765625 C69.3682403,61.85625 69.4724251,61.9484375 69.5235083,61.9609375 C69.5764547,61.9734375 69.6276932,62.0515625 69.6276932,62.1046875 L69.6276932,62.15625 C69.6276932,62.15625 69.6011423,62.234375 69.5235083,62.246875 C69.4458743,62.2609375 69.3435527,62.3390625 69.3435527,62.390625 C69.3435527,62.4015625 69.346658,62.44375 69.3527135,62.5046875 L69.3294233,62.5078125 L65.1371867,62.5796875 L65.0704214,58.3484375 L70.0546802,58.2375 L70.0793678,58.2390625 C70.0731571,58.3203125 70.1057634,58.5796875 70.1057634,58.784375 L70.1057634,59.0046875 C70.1057634,59.0828125 70.1057634,59.175 70.2222144,59.421875 C70.3386654,59.66875 70.4939335,59.8390625 70.5715675,59.8390625 C70.6492015,59.8390625 71.0761885,59.734375 71.1027394,60.059375" id="Fill-46" fill="#FD4141"></path>
            <path d="M60.749359,58.4437813 L60.6423793,52.7265938 L60.3410041,52.7328438 L59.7680651,52.7451875 L59.302261,52.7547188 L59.3226011,54.0312813 L59.4778691,53.9922188 C59.4778691,53.9922188 59.457529,54.8312813 59.4002351,55.0265938 C59.341078,55.2219063 59.341078,55.7297188 59.341078,55.8281563 C59.341078,55.9203438 59.4109486,60.0734688 59.4171593,60.4655 L60.1703645,60.4500313 L60.7588303,60.4375313 L60.788176,60.4375313 L60.749359,58.4437813 Z" id="Fill-47" fill="#FD4141"></path>
            <path d="M65.738105,50.5967969 L65.7070514,50.6063281 L64.2320052,50.6844531 L63.8438351,52.6124219 L63.8455431,52.6610156 L60.6423638,52.7266406 L60.5321235,46.9344531 L64.5937797,46.9608594 L64.6030957,46.9639844 C64.5658314,47.0811719 64.4975135,47.2686719 64.530275,47.3905469 C64.5690921,47.5342969 64.7631771,48.1453906 64.8019941,48.2374219 C64.8408111,48.3280469 65.0471623,48.7186719 65.4230662,48.7703906 L65.0207667,48.8485156 C65.0207667,48.8485156 65.0859793,49.0186719 65.1125301,49.2000781 C65.1372177,49.3827344 65.1125301,49.4483594 65.1901641,49.5264844 C65.2677982,49.6046094 65.3842492,49.7860156 65.3842492,49.8905469 C65.3842492,49.9952344 65.3701198,50.2157031 65.4618832,50.2686719 C65.5517834,50.3202344 65.7070514,50.3858594 65.7070514,50.4500781 C65.7070514,50.4764844 65.7194728,50.5296094 65.738105,50.5967969" id="Fill-52" fill="#FD4141"></path>
            <path d="M60.5320769,46.934375 L60.5227608,46.58125 L60.4544429,43.7578125 L59.3644614,43.7078125 C59.2713006,43.990625 59.1501915,44.2765625 59.0304799,44.409375 C58.7711823,44.6953125 58.5382802,44.8515625 58.4606462,45.034375 C58.3830122,45.215625 58.1254226,45.91875 57.8395741,45.9453125 C57.7465686,45.953125 57.6534078,45.9625 57.5663024,45.9734375 C57.6658292,46.2234375 57.8412821,46.4453125 58.1316333,46.5640625 C58.1765057,46.5828125 58.2215335,46.6 58.2698218,46.6171875 C58.4561434,46.6875 58.6626499,46.753125 58.8691564,46.825 L58.8567349,46.8625 L58.8567349,47.4875 L59.1469309,47.46875 L59.244905,52.1171875 L59.768003,52.721875 L59.768003,52.7451563 L60.3410972,52.7328125 L60.6423172,52.7265625 L60.5320769,46.934375 Z" id="Fill-56" fill="#FD4141"></path>
            <path d="M67.8374063,54.4062969 L67.8296429,54.4094219 L65.0099756,54.4344219 L64.9818721,52.6375469 L63.8454654,52.6609844 L63.8437575,52.6125469 L64.2319275,50.6844219 L65.7069738,50.6062969 L65.7380274,50.5967656 C65.7661309,50.6984844 65.8111586,50.8295781 65.8499756,50.9328594 C65.9134802,51.1016094 66.1727778,51.5828594 66.3934137,51.7922344 C66.6121863,52.0000469 66.8204007,52.1828594 66.7815837,52.3516094 C66.7427667,52.5203594 66.6898203,52.6125469 66.8062713,52.8859844 C66.9227224,53.1594219 67.3497094,53.5891094 67.3497094,53.5891094 L67.220837,53.7453594 C67.220837,53.7453594 67.6602455,54.0047344 67.764275,54.2266094 C67.7877205,54.2748906 67.8125634,54.3375469 67.8374063,54.4062969" id="Fill-65" fill="#FD4141"></path>
            <path d="M67.8590972,65.9874219 L65.1636444,66.0233594 L65.1900399,67.8202344 L63.2973227,65.9936719 L63.2740325,65.9717969 L63.2460843,64.1702344 L61.3890787,64.1922656 L61.3688939,63.2889844 L60.8409826,63.2735156 L60.6375815,63.2672656 L60.659319,64.2342969 L60.5133671,64.2125781 L60.504051,65.0358594 L60.4916296,66.1453906 L60.2416481,66.1453906 L60.2416481,67.0063281 L59.8239771,67.0264844 L59.8239771,67.5092969 L59.5739956,67.5092969 L59.5739956,69.3797656 L59.3659364,69.3797656 L59.3659364,69.8625781 L58.634624,69.9249219 L58.6563616,70.5125781 L58.5725168,70.5141406 L58.5725168,70.5342969 C58.5725168,70.5342969 58.5880436,71.2671094 58.6190972,71.8983594 L61.3535224,71.8514844 L66.9197257,71.7563281 L67.2333671,71.7516406 L67.1495224,70.7235156 L67.0237553,70.6389844 L67.1060473,70.2452344 L67.1076,70.2391406 L67.7286721,70.2594531 L67.2333671,69.7782031 L67.379319,68.7703906 L67.5873782,68.7905469 L67.5671933,67.8671094 L67.8171749,67.9094531 C67.8389124,67.7407031 67.7131453,66.5858594 67.7131453,66.5858594 L67.8590972,65.9969531 L67.8590972,65.9874219 Z" id="Fill-67" fill="#FD4141"></path>
            <path d="M59.244905,52.1171719 L59.1469309,47.4687344 L58.8567349,47.4874844 L58.8567349,46.8624844 L58.8691564,46.8249844 C58.6626499,46.7531094 58.4561434,46.6874844 58.2698218,46.6171719 C58.2215335,46.5999844 58.1765057,46.5827969 58.1316333,46.5640469 C57.8412821,46.4452969 57.6658292,46.2234219 57.5663024,45.9734219 C57.3861915,45.9937344 57.2295261,46.0218594 57.140868,46.0749844 C57.0119956,46.1531094 56.1845723,46.5187344 56.0027534,46.4406094 C55.8210898,46.3624844 55.2776518,46.2577969 55.1223837,46.3874844 C54.9671157,46.5187344 54.0355076,47.2999844 53.8802396,47.2999844 L53.9066351,47.3312344 C53.9066351,47.3312344 53.8493412,47.5265469 53.8105242,47.6249844 C53.7717072,47.7218594 53.6737331,47.9562344 53.6940732,48.0546719 C53.7047867,48.1077969 53.7436037,48.3827969 53.8026055,48.6671719 C53.8508939,48.9015469 53.9145538,49.1421719 53.9842691,49.2656094 C54.1395372,49.5390469 54.8197664,50.3390469 54.8974004,50.4562344 C54.9750344,50.5734219 55.0914854,50.9452969 55.0914854,51.1593594 C55.0914854,51.3609219 55.0744059,52.6671719 55.0711453,52.8406094 L59.3021989,52.7546719 L59.768003,52.7452969 L59.768003,52.7218594 L59.244905,52.1171719 Z" id="Fill-70" fill="#FD4141"></path>
        </g>
    </g>
</svg>