<?xml version="1.0" encoding="UTF-8" standalone="no"?>
<svg width="31px" height="42px" viewBox="0 0 31 42" version="1.1" xmlns="http://www.w3.org/2000/svg" xmlns:xlink="http://www.w3.org/1999/xlink">
    <!-- Generator: Sketch 42 (36781) - http://www.bohemiancoding.com/sketch -->
    <title></title>
    <desc>Created with Sketch.</desc>
    <defs>
        <filter x="-50%" y="-50%" width="200%" height="200%" filterUnits="objectBoundingBox" id="filter-1">
            <feOffset dx="0" dy="2" in="SourceAlpha" result="shadowOffsetOuter1"></feOffset>
            <feGaussianBlur stdDeviation="2" in="shadowOffsetOuter1" result="shadowBlurOuter1"></feGaussianBlur>
            <feColorMatrix values="0 0 0 0 0   0 0 0 0 0   0 0 0 0 0  0 0 0 0.5 0" type="matrix" in="shadowBlurOuter1" result="shadowMatrixOuter1"></feColorMatrix>
            <feMerge>
                <feMergeNode in="shadowMatrixOuter1"></feMergeNode>
                <feMergeNode in="SourceGraphic"></feMergeNode>
            </feMerge>
        </filter>
    </defs>
    <g id="Desktop" stroke="none" stroke-width="1" fill="none" fill-rule="evenodd">
        <g id="5.1_Hospitals" transform="translate(-449.000000, -491.000000)" fill="#0089C0">
            <g id="Education-Icon--Copy-3" filter="url(#filter-1)" transform="translate(453.210938, 493.317188)">
                <path d="M22.0552083,11.0276042 C22.0552083,12.5927277 21.8182895,13.8778328 21.3444448,14.882958 L13.5045074,31.553594 C13.2747645,32.0274387 12.933745,32.4007653 12.4814387,32.673585 C12.0291324,32.9464047 11.5445257,33.0828125 11.0276042,33.0828125 C10.5106826,33.0828125 10.026076,32.9464047 9.57376963,32.673585 C9.12146329,32.4007653 8.78762315,32.0274387 8.57223918,31.553594 L0.71076355,14.882958 C0.236918814,13.8778328 0,12.5927277 0,11.0276042 C0,7.98351071 1.0769037,5.38458312 3.23074341,3.23074341 C5.38458312,1.0769037 7.98351071,0 11.0276042,0 C14.0716976,0 16.6706252,1.0769037 18.8244649,3.23074341 C20.9783046,5.38458312 22.0552083,7.98351071 22.0552083,11.0276042 Z" id=""></path>
            </g>
        </g>
    </g>
</svg>