<?xml version="1.0" standalone="no"?>
<!DOCTYPE svg PUBLIC "-//W3C//DTD SVG 20010904//EN"
 "http://www.w3.org/TR/2001/REC-SVG-20010904/DTD/svg10.dtd">
<svg version="1.0" xmlns="http://www.w3.org/2000/svg"
 width="147.000000pt" height="147.000000pt" viewBox="0 0 147.000000 147.000000"
 preserveAspectRatio="xMidYMid meet">
<metadata>
Created by potrace 1.11, written by Peter Selinger 2001-2013
</metadata>
<g transform="translate(0.000000,147.000000) scale(0.100000,-0.100000)"
fill="#000000" stroke="none">
<path d="M182 1441 c-65 -23 -117 -70 -148 -136 l-24 -50 0 -531 c1 -511 1
-532 21 -571 22 -46 70 -93 120 -119 31 -16 80 -17 580 -17 307 0 552 4 560 9
8 5 16 9 19 9 20 3 73 41 94 68 55 72 55 76 56 620 0 553 -1 568 -60 640 -18
20 -53 49 -78 65 l-47 27 -520 2 c-484 3 -524 1 -573 -16z m592 -298 c10 -32
22 -67 27 -78 5 -11 18 -51 30 -88 l20 -69 32 6 c65 12 79 15 95 20 9 3 31 8
47 11 17 3 41 8 55 11 14 3 32 7 40 9 8 2 15 4 15 5 0 1 8 3 18 5 25 5 21 -8
-15 -47 -76 -81 -173 -191 -176 -197 -1 -4 45 -60 103 -124 58 -65 99 -117 92
-117 -8 0 -58 9 -113 21 -54 11 -110 23 -124 26 -70 15 -69 16 -104 -92 -18
-55 -39 -122 -46 -148 -8 -26 -17 -47 -20 -47 -4 0 -28 68 -54 151 -48 149
-49 151 -75 145 -14 -3 -69 -15 -121 -26 -52 -11 -112 -24 -132 -29 -21 -5
-38 -7 -38 -4 0 6 116 139 155 178 64 64 66 53 -26 157 -46 51 -94 103 -107
116 -13 13 -22 26 -19 29 3 3 72 -9 153 -26 87 -19 151 -28 156 -23 9 9 79
210 92 265 9 38 20 28 40 -40z"/>
<path d="M700 1025 l-43 -135 -31 6 c-17 2 -47 9 -66 14 -19 5 -48 12 -65 14
-41 8 -65 13 -99 22 l-29 7 27 -36 c15 -20 31 -37 34 -39 4 -2 17 -16 29 -31
13 -17 24 -23 28 -17 4 6 -7 25 -24 42 -17 17 -28 34 -26 38 3 4 30 1 62 -6
31 -7 59 -11 62 -9 2 3 9 1 15 -4 15 -13 107 -25 104 -15 -4 15 63 214 72 214
5 0 11 -10 15 -22 3 -13 10 -32 15 -43 14 -34 45 -140 42 -147 -1 -5 3 -8 8
-8 11 0 194 38 223 46 27 8 20 -9 -23 -56 -23 -25 -59 -64 -80 -89 l-40 -44
29 -31 c82 -87 130 -142 131 -147 0 -4 -51 4 -112 17 -62 13 -118 22 -124 20
-6 -2 -26 -54 -44 -114 -19 -61 -37 -109 -40 -107 -3 2 -19 44 -35 94 -16 50
-32 91 -37 91 -4 0 -5 6 -2 14 10 26 -15 27 -113 6 -54 -12 -106 -23 -115 -25
-10 -2 -18 -1 -18 3 0 7 79 96 136 153 l26 26 -44 51 c-23 28 -46 51 -50 51
-18 2 -6 -29 20 -51 54 -45 54 -44 -62 -168 -87 -94 -90 -98 -69 -96 55 6 113
19 113 27 0 5 6 6 14 3 7 -3 42 2 76 11 66 17 79 13 80 -25 1 -8 18 -67 39
-130 44 -132 36 -137 96 53 23 75 40 115 48 112 7 -2 26 -6 42 -8 17 -3 48 -9
70 -15 22 -6 54 -13 70 -16 17 -3 46 -8 65 -11 l35 -7 -35 38 c-19 21 -44 47
-55 59 -11 13 -41 45 -67 73 l-47 50 47 53 c26 28 68 75 94 103 25 28 44 54
42 58 -3 5 -11 5 -17 1 -6 -4 -18 -8 -27 -9 -14 -2 -67 -13 -100 -19 -8 -2
-15 -4 -15 -5 0 -3 -40 -9 -79 -12 -38 -3 -38 -3 -53 47 -8 28 -20 61 -26 75
-13 31 -15 38 -23 75 -4 17 -12 38 -19 47 -9 14 -18 -5 -55 -117z"/>
</g>
</svg>
